<svg width="375" height="212" viewBox="0 0 375 212" fill="none" xmlns="http://www.w3.org/2000/svg">
<g filter="url(#filter0_d)">
<rect x="17" y="23" width="343" height="164" rx="8" fill="white"/>
</g>
<rect x="36.5" y="131.5" width="97" height="35" rx="17.5" stroke="#222222"/>
<path d="M56.8158 153H60.1338C63.2418 153 65.4538 150.998 65.4538 148.184C65.4538 145.37 63.2418 143.382 60.1338 143.382H56.8158V153ZM58.2298 151.712V144.67H60.2178C62.4438 144.67 63.9978 146.126 63.9978 148.184C63.9978 150.256 62.4438 151.712 60.2178 151.712H58.2298ZM70.5879 151.936C69.3419 151.936 68.4599 151.068 68.2779 149.864H73.9759C73.9759 147.274 72.7019 145.594 70.4899 145.594C68.4879 145.594 66.8779 147.19 66.8779 149.36C66.8779 151.586 68.5859 153.168 70.6019 153.168C71.6239 153.168 72.8839 152.734 73.5279 152.048L72.6599 151.152C72.2259 151.6 71.3439 151.936 70.5879 151.936ZM70.5459 146.826C71.7919 146.826 72.4779 147.638 72.6319 148.758H68.2919C68.5159 147.582 69.4259 146.826 70.5459 146.826ZM78.9704 151.698C78.8164 151.852 78.5364 151.964 78.2284 151.964C77.8224 151.964 77.4864 151.6 77.4864 151.096V146.938H79.1944V145.762H77.4864V143.774H76.1284V145.762H75.0364V146.938H76.1284V151.194C76.1284 152.356 76.9124 153.168 78.0324 153.168C78.5504 153.168 79.0824 152.972 79.4744 152.65L78.9704 151.698ZM83.9251 145.594C83.1271 145.594 82.2171 145.804 81.1811 146.322L81.6851 147.344C82.3151 147.022 83.0151 146.742 83.7291 146.742C85.1711 146.742 85.5911 147.708 85.5911 148.618V148.842C84.8911 148.604 84.1211 148.45 83.4071 148.45C81.8111 148.45 80.5091 149.416 80.5091 150.858C80.5091 152.272 81.6431 153.168 83.1831 153.168C84.0651 153.168 85.0591 152.762 85.5911 152.006V153H86.9491V148.618C86.9491 146.826 85.8711 145.594 83.9251 145.594ZM83.4491 152.076C82.5391 152.076 81.8391 151.6 81.8391 150.816C81.8391 150.032 82.6511 149.486 83.6171 149.486C84.3311 149.486 85.0031 149.584 85.5911 149.766V150.732C85.3531 151.628 84.3451 152.076 83.4491 152.076ZM88.9535 153H90.3255V143.214H88.9535V153ZM96.0261 145.594C95.0321 145.594 94.1501 146.112 93.7161 146.84V143.214H92.3441V153H93.7161V148.506C93.7161 147.568 94.6261 146.798 95.7181 146.798C96.6981 146.798 97.3841 147.554 97.3841 148.632V153H98.7421V148.394C98.7421 146.756 97.6221 145.594 96.0261 145.594ZM104.043 151.936C102.797 151.936 101.915 151.068 101.733 149.864H107.431C107.431 147.274 106.157 145.594 103.945 145.594C101.943 145.594 100.333 147.19 100.333 149.36C100.333 151.586 102.041 153.168 104.057 153.168C105.079 153.168 106.339 152.734 106.983 152.048L106.115 151.152C105.681 151.6 104.799 151.936 104.043 151.936ZM104.001 146.826C105.247 146.826 105.933 147.638 106.087 148.758H101.747C101.971 147.582 102.881 146.826 104.001 146.826ZM111.655 153.168C113.237 153.168 114.399 152.3 114.399 150.928C114.399 149.486 113.125 149.094 111.935 148.744C110.717 148.366 110.269 148.198 110.269 147.638C110.269 147.092 110.829 146.784 111.543 146.784C112.173 146.784 112.901 147.022 113.601 147.456L114.217 146.434C113.433 145.916 112.481 145.594 111.543 145.594C110.003 145.594 108.897 146.462 108.911 147.792C108.911 148.968 109.737 149.444 111.403 149.906C112.299 150.158 113.041 150.368 113.041 151.04C113.041 151.6 112.481 151.978 111.669 151.978C110.815 151.978 109.989 151.656 109.219 151.096L108.561 152.09C109.429 152.79 110.591 153.168 111.655 153.168Z" fill="#222222"/>
<path d="M286.626 144.698V143.382H279.556V153H286.626V151.684H280.984V148.758H286.08V147.442H280.984V144.698H286.626ZM292.042 145.594C291.062 145.594 290.18 146.098 289.746 146.812V145.762H288.36V153H289.746V148.31C289.858 147.456 290.726 146.798 291.734 146.798C292.714 146.798 293.4 147.554 293.4 148.632V153H294.758V148.394C294.758 146.756 293.638 145.594 292.042 145.594ZM300.128 151.698C299.974 151.852 299.694 151.964 299.386 151.964C298.98 151.964 298.644 151.6 298.644 151.096V146.938H300.352V145.762H298.644V143.774H297.286V145.762H296.194V146.938H297.286V151.194C297.286 152.356 298.07 153.168 299.19 153.168C299.708 153.168 300.24 152.972 300.632 152.65L300.128 151.698ZM303.501 147.148V145.762H302.115V153H303.501V148.884C303.627 147.624 304.691 146.798 306.189 146.798V145.594C304.943 145.594 303.963 146.196 303.501 147.148ZM310.859 151.936C309.613 151.936 308.731 151.068 308.549 149.864H314.247C314.247 147.274 312.973 145.594 310.761 145.594C308.759 145.594 307.149 147.19 307.149 149.36C307.149 151.586 308.857 153.168 310.873 153.168C311.895 153.168 313.155 152.734 313.799 152.048L312.931 151.152C312.497 151.6 311.615 151.936 310.859 151.936ZM310.817 146.826C312.063 146.826 312.749 147.638 312.903 148.758H308.563C308.787 147.582 309.697 146.826 310.817 146.826ZM321.356 145.762V146.924C320.81 146.112 319.886 145.594 318.794 145.594C316.89 145.594 315.504 147.008 315.504 149.024C315.504 151.04 316.89 152.468 318.794 152.468C319.886 152.468 320.782 151.978 321.356 151.152V152.202C321.356 153.462 320.418 154.204 318.864 154.204C317.996 154.204 317.128 153.91 316.596 153.406L316.05 154.442C316.736 155.002 317.856 155.408 319.074 155.408C321.216 155.408 322.742 154.092 322.742 152.23V145.762H321.356ZM319.144 151.264C317.856 151.264 316.946 150.34 316.946 149.024C316.946 147.722 317.856 146.798 319.144 146.798C320.432 146.798 321.356 147.722 321.356 149.024C321.356 150.34 320.432 151.264 319.144 151.264ZM329.793 145.762V150.452C329.681 151.306 328.813 151.964 327.805 151.964C326.825 151.964 326.139 151.208 326.139 150.13V145.762H324.781V150.368C324.781 152.006 325.901 153.168 327.497 153.168C328.477 153.168 329.359 152.664 329.793 151.95V153H331.179V145.762H329.793ZM336.508 151.936C335.262 151.936 334.38 151.068 334.198 149.864H339.896C339.896 147.274 338.622 145.594 336.41 145.594C334.408 145.594 332.798 147.19 332.798 149.36C332.798 151.586 334.506 153.168 336.522 153.168C337.544 153.168 338.804 152.734 339.448 152.048L338.58 151.152C338.146 151.6 337.264 151.936 336.508 151.936ZM336.466 146.826C337.712 146.826 338.398 147.638 338.552 148.758H334.212C334.436 147.582 335.346 146.826 336.466 146.826Z" fill="#2AA952"/>
<path d="M32.4251 55H34.4251V51.304H37.2091C39.5611 51.304 41.3211 49.8 41.3211 47.656C41.3211 45.512 39.5611 44.008 37.2091 44.008H32.4251V55ZM34.4251 49.464V45.848H36.9851C38.3451 45.848 39.2891 46.536 39.2891 47.656C39.2891 48.776 38.3451 49.464 36.9851 49.464H34.4251ZM46.6858 53.464C45.5018 53.464 44.6378 52.664 44.3978 51.528H50.6378C50.6378 48.472 49.1498 46.536 46.5898 46.536C44.2378 46.536 42.3818 48.36 42.3818 50.84C42.3818 53.384 44.3338 55.192 46.7018 55.192C47.9018 55.192 49.3418 54.68 50.0618 53.912L48.8298 52.632C48.3658 53.112 47.4538 53.464 46.6858 53.464ZM46.6698 48.264C47.8378 48.264 48.5418 49 48.7658 50.04H44.4138C44.7018 48.952 45.5818 48.264 46.6698 48.264ZM58.6178 43.816V48.008C57.9618 47.08 56.9698 46.536 55.7538 46.536C53.5618 46.536 51.9618 48.328 51.9618 50.856C51.9618 53.4 53.5618 55.192 55.7538 55.192C56.9698 55.192 57.9618 54.648 58.6178 53.72V55H60.5698V43.816H58.6178ZM56.2818 53.528C54.8898 53.528 53.8978 52.408 53.8978 50.856C53.8978 49.304 54.8898 48.2 56.2818 48.2C57.6578 48.2 58.6178 49.304 58.6178 50.856C58.6178 52.408 57.6578 53.528 56.2818 53.528ZM63.7593 45.48C64.3673 45.48 64.8633 44.952 64.8633 44.36C64.8633 43.768 64.3673 43.256 63.7593 43.256C63.1353 43.256 62.6393 43.768 62.6393 44.36C62.6393 44.952 63.1353 45.48 63.7593 45.48ZM62.7673 55H64.7193V46.728H62.7673V55ZM73.1647 43.816V48.008C72.5087 47.08 71.5167 46.536 70.3007 46.536C68.1087 46.536 66.5087 48.328 66.5087 50.856C66.5087 53.4 68.1087 55.192 70.3007 55.192C71.5167 55.192 72.5087 54.648 73.1647 53.72V55H75.1167V43.816H73.1647ZM70.8287 53.528C69.4367 53.528 68.4447 52.408 68.4447 50.856C68.4447 49.304 69.4367 48.2 70.8287 48.2C72.2047 48.2 73.1647 49.304 73.1647 50.856C73.1647 52.408 72.2047 53.528 70.8287 53.528ZM81.3142 55.192C83.7142 55.192 85.7462 53.208 85.7462 50.856C85.7462 48.504 83.7142 46.536 81.3142 46.536C78.9142 46.536 76.8822 48.504 76.8822 50.856C76.8822 53.208 78.9142 55.192 81.3142 55.192ZM81.3142 53.528C79.9382 53.528 78.7862 52.312 78.7862 50.856C78.7862 49.416 79.9382 48.2 81.3142 48.2C82.6742 48.2 83.8262 49.416 83.8262 50.856C83.8262 52.312 82.6742 53.528 81.3142 53.528ZM91.9544 55V43.576H94.5304L98.4824 51.704H98.6264C98.6051 51.4373 98.5784 51.1227 98.5464 50.76C98.5144 50.3867 98.4878 50.008 98.4664 49.624C98.4451 49.2293 98.4344 48.872 98.4344 48.552V43.576H100.514V55H97.9544L93.9704 46.824H93.8584C93.8904 47.112 93.9171 47.4587 93.9384 47.864C93.9704 48.2587 93.9971 48.6533 94.0184 49.048C94.0398 49.4427 94.0504 49.7893 94.0504 50.088V55H91.9544ZM104.082 52.856C103.314 52.856 102.68 52.6107 102.178 52.12C101.688 51.6187 101.442 50.9147 101.442 50.008C101.442 49.1013 101.682 48.4027 102.162 47.912C102.642 47.4213 103.293 47.176 104.114 47.176C104.872 47.176 105.501 47.4213 106.002 47.912C106.504 48.4027 106.754 49.1013 106.754 50.008C106.754 50.9147 106.514 51.6187 106.034 52.12C105.554 52.6107 104.904 52.856 104.082 52.856ZM104.098 51.576C104.802 51.576 105.154 51.0533 105.154 50.008C105.154 48.9733 104.802 48.456 104.098 48.456C103.725 48.456 103.453 48.584 103.282 48.84C103.112 49.096 103.026 49.4853 103.026 50.008C103.026 50.5307 103.112 50.9253 103.282 51.192C103.453 51.448 103.725 51.576 104.098 51.576ZM101.602 55V53.528H106.594V55H101.602ZM110.344 55H112.328V44.008H110.728L107.64 46.104L108.456 47.512L110.344 46.312V55ZM118.544 43.816C116.176 43.816 114.448 45.384 114.448 47.56C114.448 49.752 116.128 51.032 118.144 51.032C119.264 51.032 120.32 50.568 120.992 49.784C120.864 51.944 119.76 53.432 118.208 53.432C117.232 53.432 116.56 53.032 115.888 52.44L114.912 53.96C115.792 54.712 116.832 55.192 118.192 55.192C121.056 55.192 123.056 52.712 123.056 49.32C123.056 46.152 121.664 43.816 118.544 43.816ZM118.672 49.4C117.472 49.4 116.48 48.68 116.48 47.48C116.48 46.472 117.296 45.512 118.64 45.512C119.968 45.512 120.656 46.424 120.896 47.88C120.576 48.808 119.728 49.4 118.672 49.4ZM129.916 55H131.9V52.616H133.42V50.904H131.9V44.008H129.516L124.3 51.064L124.492 52.616H129.916V55ZM126.428 50.904L129.916 46.184V50.904H126.428ZM136.007 55H138.263L142.807 45.512V44.008H134.871V45.832H140.487L136.007 55ZM149.296 55.192C152.112 55.192 154.096 52.84 154.096 49.496C154.096 46.168 152.112 43.816 149.296 43.816C146.464 43.816 144.464 46.168 144.464 49.496C144.464 52.84 146.464 55.192 149.296 55.192ZM149.296 53.368C147.664 53.368 146.512 51.768 146.512 49.496C146.512 47.224 147.664 45.64 149.296 45.64C150.912 45.64 152.064 47.224 152.064 49.496C152.064 51.768 150.912 53.368 149.296 53.368ZM159.666 55.192C162.146 55.192 163.762 53.848 163.762 51.96C163.762 50.472 162.61 49.624 161.442 49.352C162.626 49 163.522 48.136 163.522 46.808C163.522 45.064 161.97 43.816 159.634 43.816C157.762 43.816 156.482 44.648 155.602 45.752L156.786 46.968C157.538 46.136 158.37 45.608 159.458 45.608C160.642 45.608 161.506 46.232 161.506 47.128C161.506 48.088 160.658 48.616 159.362 48.6H158.13V50.328L159.362 50.312C160.914 50.312 161.73 50.824 161.73 51.8C161.73 52.76 160.914 53.416 159.602 53.416C158.418 53.416 157.362 52.888 156.594 52.024L155.378 53.336C156.274 54.408 157.746 55.192 159.666 55.192ZM170.573 55H172.557V52.616H174.077V50.904H172.557V44.008H170.173L164.957 51.064L165.149 52.616H170.573V55ZM167.085 50.904L170.573 46.184V50.904H167.085Z" fill="#222222"/>
<path d="M48.6071 105.184C48.6071 102.482 46.3671 100.214 43.6931 100.214C41.0331 100.214 38.7651 102.482 38.7651 105.184C38.7651 107.886 41.0331 110.168 43.6931 110.168C44.8551 110.168 45.9331 109.734 46.7871 109.02L47.9071 110L48.6071 109.188L47.5291 108.25C48.2011 107.396 48.6071 106.332 48.6071 105.184ZM43.6931 109.16C41.6211 109.16 39.8711 107.34 39.8711 105.184C39.8711 103.042 41.6211 101.222 43.6931 101.222C45.7651 101.222 47.5011 103.042 47.5011 105.184C47.5011 106.066 47.2071 106.892 46.7311 107.55L45.1911 106.22L44.4911 107.032L45.9891 108.334C45.3451 108.852 44.5471 109.16 43.6931 109.16ZM55.4901 102.762V107.368C55.4901 108.376 54.4681 109.23 53.2501 109.23C52.1861 109.23 51.4441 108.404 51.4441 107.228V102.762H50.3941V107.368C50.3941 109.006 51.5141 110.168 53.1101 110.168C54.1321 110.168 55.0701 109.608 55.4901 108.838V110H56.5401V102.762H55.4901ZM61.6192 102.594C60.9192 102.594 60.0512 102.776 59.0152 103.294L59.4352 104.148C60.0932 103.812 60.8212 103.49 61.5492 103.49C63.1172 103.49 63.5092 104.61 63.5092 105.59V105.856C62.7672 105.618 61.9412 105.45 61.1572 105.45C59.6032 105.45 58.3152 106.416 58.3152 107.858C58.3152 109.286 59.4352 110.168 60.9612 110.168C61.9132 110.168 62.9912 109.72 63.5092 108.866V110H64.5592V105.59C64.5592 103.84 63.5932 102.594 61.6192 102.594ZM61.1432 109.244C60.1212 109.244 59.3372 108.712 59.3372 107.816C59.3372 106.948 60.2472 106.332 61.3252 106.332C62.1092 106.332 62.8512 106.444 63.5092 106.626V107.732C63.2292 108.754 62.0952 109.244 61.1432 109.244ZM70.1486 102.594C69.1266 102.594 68.1886 103.154 67.7686 103.924V102.762H66.7186V110H67.7686V105.394C67.7686 104.386 68.7906 103.532 70.0086 103.532C71.0726 103.532 71.8146 104.358 71.8146 105.534V110H72.8646V105.394C72.8646 103.756 71.7446 102.594 70.1486 102.594ZM78.1678 108.936C78.0138 109.104 77.7338 109.23 77.4118 109.23C76.9918 109.23 76.6278 108.852 76.6278 108.32V103.7H78.4058V102.762H76.6278V100.774H75.5778V102.762H74.4438V103.7H75.5778V108.32C75.5778 109.398 76.3058 110.168 77.3418 110.168C77.8318 110.168 78.3078 110 78.6858 109.706L78.1678 108.936ZM80.6894 101.446C81.0674 101.446 81.3754 101.124 81.3754 100.746C81.3754 100.382 81.0674 100.06 80.6894 100.06C80.2974 100.06 79.9894 100.382 79.9894 100.746C79.9894 101.124 80.2974 101.446 80.6894 101.446ZM80.1574 110H81.2074V102.762H80.1574V110ZM88.972 100.214V104.12C88.426 103.168 87.502 102.594 86.34 102.594C84.436 102.594 83.008 104.162 83.008 106.374C83.008 108.6 84.436 110.168 86.34 110.168C87.502 110.168 88.426 109.594 88.972 108.642V110H90.022V100.214H88.972ZM86.536 109.23C85.122 109.23 84.114 108.04 84.114 106.374C84.114 104.708 85.122 103.532 86.536 103.532C87.964 103.532 88.972 104.708 88.972 106.374C88.972 108.04 87.964 109.23 86.536 109.23ZM95.1837 102.594C94.4837 102.594 93.6157 102.776 92.5797 103.294L92.9997 104.148C93.6577 103.812 94.3857 103.49 95.1137 103.49C96.6817 103.49 97.0737 104.61 97.0737 105.59V105.856C96.3317 105.618 95.5057 105.45 94.7217 105.45C93.1677 105.45 91.8797 106.416 91.8797 107.858C91.8797 109.286 92.9997 110.168 94.5257 110.168C95.4777 110.168 96.5557 109.72 97.0737 108.866V110H98.1237V105.59C98.1237 103.84 97.1577 102.594 95.1837 102.594ZM94.7077 109.244C93.6857 109.244 92.9017 108.712 92.9017 107.816C92.9017 106.948 93.8117 106.332 94.8897 106.332C95.6737 106.332 96.4157 106.444 97.0737 106.626V107.732C96.7937 108.754 95.6597 109.244 94.7077 109.244ZM105.925 100.214V104.12C105.379 103.168 104.455 102.594 103.293 102.594C101.389 102.594 99.9611 104.162 99.9611 106.374C99.9611 108.6 101.389 110.168 103.293 110.168C104.455 110.168 105.379 109.594 105.925 108.642V110H106.975V100.214H105.925ZM103.489 109.23C102.075 109.23 101.067 108.04 101.067 106.374C101.067 104.708 102.075 103.532 103.489 103.532C104.917 103.532 105.925 104.708 105.925 106.374C105.925 108.04 104.917 109.23 103.489 109.23ZM112.459 109.23C111.031 109.23 110.037 108.194 109.883 106.78H115.805C115.805 104.246 114.559 102.594 112.375 102.594C110.429 102.594 108.805 104.204 108.805 106.36C108.805 108.586 110.541 110.168 112.473 110.168C113.481 110.168 114.755 109.734 115.385 109.048L114.741 108.362C114.293 108.852 113.313 109.23 112.459 109.23ZM112.417 103.532C113.859 103.532 114.629 104.54 114.769 105.842H109.897C110.093 104.442 111.129 103.532 112.417 103.532ZM118.251 104.358C118.657 104.358 118.993 104.008 118.993 103.588C118.993 103.196 118.657 102.846 118.251 102.846C117.817 102.846 117.481 103.196 117.481 103.588C117.481 104.008 117.817 104.358 118.251 104.358ZM118.251 110.168C118.657 110.168 118.993 109.818 118.993 109.398C118.993 109.006 118.657 108.656 118.251 108.656C117.817 108.656 117.481 109.006 117.481 109.398C117.481 109.818 117.817 110.168 118.251 110.168Z" fill="#9B9B9B"/>
<path d="M138.979 111.192C141.459 111.192 143.075 109.848 143.075 107.96C143.075 106.472 141.923 105.624 140.755 105.352C141.939 105 142.835 104.136 142.835 102.808C142.835 101.064 141.283 99.816 138.947 99.816C137.075 99.816 135.795 100.648 134.915 101.752L136.099 102.968C136.851 102.136 137.683 101.608 138.771 101.608C139.955 101.608 140.819 102.232 140.819 103.128C140.819 104.088 139.971 104.616 138.675 104.6H137.443V106.328L138.675 106.312C140.227 106.312 141.043 106.824 141.043 107.8C141.043 108.76 140.227 109.416 138.915 109.416C137.731 109.416 136.675 108.888 135.907 108.024L134.691 109.336C135.587 110.408 137.059 111.192 138.979 111.192Z" fill="#222222"/>
<path d="M42.3318 85.168C43.6618 85.168 44.8938 84.594 45.7898 83.698L45.0478 82.942C44.3478 83.684 43.3818 84.16 42.3318 84.16C40.2598 84.16 38.5098 82.34 38.5098 80.184C38.5098 78.042 40.2598 76.222 42.3318 76.222C43.3818 76.222 44.3478 76.698 45.0478 77.44L45.7898 76.684C44.8938 75.774 43.6618 75.214 42.3318 75.214C39.6718 75.214 37.4038 77.482 37.4038 80.184C37.4038 82.886 39.6718 85.168 42.3318 85.168ZM49.4954 76.936H50.3074L52.2954 75.172L51.1894 74.92L49.4954 76.936ZM50.6154 85.168C52.6454 85.168 54.3534 83.432 54.3534 81.374C54.3534 79.316 52.6454 77.594 50.6154 77.594C48.5854 77.594 46.8634 79.316 46.8634 81.374C46.8634 83.432 48.5854 85.168 50.6154 85.168ZM50.6154 84.23C49.1734 84.23 47.9694 82.928 47.9694 81.374C47.9694 79.834 49.1734 78.532 50.6154 78.532C52.0434 78.532 53.2474 79.834 53.2474 81.374C53.2474 82.928 52.0434 84.23 50.6154 84.23ZM61.7434 75.214V79.12C61.1974 78.168 60.2734 77.594 59.1114 77.594C57.2074 77.594 55.7794 79.162 55.7794 81.374C55.7794 83.6 57.2074 85.168 59.1114 85.168C60.2734 85.168 61.1974 84.594 61.7434 83.642V85H62.7934V75.214H61.7434ZM59.3074 84.23C57.8934 84.23 56.8854 83.04 56.8854 81.374C56.8854 79.708 57.8934 78.532 59.3074 78.532C60.7354 78.532 61.7434 79.708 61.7434 81.374C61.7434 83.04 60.7354 84.23 59.3074 84.23ZM65.5332 76.446C65.9112 76.446 66.2192 76.124 66.2192 75.746C66.2192 75.382 65.9112 75.06 65.5332 75.06C65.1412 75.06 64.8332 75.382 64.8332 75.746C64.8332 76.124 65.1412 76.446 65.5332 76.446ZM65.0012 85H66.0512V77.762H65.0012V85ZM73.7877 77.762V79.008C73.2277 78.126 72.3037 77.594 71.1557 77.594C69.2097 77.594 67.8237 79.008 67.8237 81.024C67.8237 83.04 69.2097 84.468 71.1557 84.468C72.3037 84.468 73.2277 83.936 73.7877 83.054V84.23C73.7877 85.644 72.8077 86.47 71.1417 86.47C70.2457 86.47 69.3777 86.148 68.8177 85.616L68.3557 86.442C69.0137 87.002 70.1057 87.408 71.2817 87.408C73.3677 87.408 74.8377 86.092 74.8377 84.23V77.762H73.7877ZM71.3517 83.53C69.9377 83.53 68.9297 82.494 68.9297 81.024C68.9297 79.568 69.9377 78.532 71.3517 78.532C72.7797 78.532 73.7877 79.568 73.7877 81.024C73.7877 82.494 72.7797 83.53 71.3517 83.53ZM80.4201 85.168C82.4501 85.168 84.1581 83.432 84.1581 81.374C84.1581 79.316 82.4501 77.594 80.4201 77.594C78.3901 77.594 76.6681 79.316 76.6681 81.374C76.6681 83.432 78.3901 85.168 80.4201 85.168ZM80.4201 84.23C78.9781 84.23 77.7741 82.928 77.7741 81.374C77.7741 79.834 78.9781 78.532 80.4201 78.532C81.8481 78.532 83.0521 79.834 83.0521 81.374C83.0521 82.928 81.8481 84.23 80.4201 84.23ZM95.6087 75.214V79.12C95.0627 78.168 94.1387 77.594 92.9767 77.594C91.0727 77.594 89.6447 79.162 89.6447 81.374C89.6447 83.6 91.0727 85.168 92.9767 85.168C94.1387 85.168 95.0627 84.594 95.6087 83.642V85H96.6587V75.214H95.6087ZM93.1727 84.23C91.7587 84.23 90.7507 83.04 90.7507 81.374C90.7507 79.708 91.7587 78.532 93.1727 78.532C94.6007 78.532 95.6087 79.708 95.6087 81.374C95.6087 83.04 94.6007 84.23 93.1727 84.23ZM102.142 84.23C100.714 84.23 99.7204 83.194 99.5664 81.78H105.488C105.488 79.246 104.242 77.594 102.058 77.594C100.112 77.594 98.4884 79.204 98.4884 81.36C98.4884 83.586 100.224 85.168 102.156 85.168C103.164 85.168 104.438 84.734 105.068 84.048L104.424 83.362C103.976 83.852 102.996 84.23 102.142 84.23ZM102.1 78.532C103.542 78.532 104.312 79.54 104.452 80.842H99.5804C99.7764 79.442 100.812 78.532 102.1 78.532ZM112.415 79.176V77.762H111.365V85H112.415V80.954C112.415 79.54 113.577 78.532 115.215 78.532V77.594C113.885 77.594 112.849 78.21 112.415 79.176ZM119.608 77.594C118.908 77.594 118.04 77.776 117.004 78.294L117.424 79.148C118.082 78.812 118.81 78.49 119.538 78.49C121.106 78.49 121.498 79.61 121.498 80.59V80.856C120.756 80.618 119.93 80.45 119.146 80.45C117.592 80.45 116.304 81.416 116.304 82.858C116.304 84.286 117.424 85.168 118.95 85.168C119.902 85.168 120.98 84.72 121.498 83.866V85H122.548V80.59C122.548 78.84 121.582 77.594 119.608 77.594ZM119.132 84.244C118.11 84.244 117.326 83.712 117.326 82.816C117.326 81.948 118.236 81.332 119.314 81.332C120.098 81.332 120.84 81.444 121.498 81.626V82.732C121.218 83.754 120.084 84.244 119.132 84.244ZM127.255 85.168C128.753 85.168 129.901 84.314 129.901 82.984C129.901 81.612 128.697 81.22 127.535 80.856C126.191 80.422 125.659 80.226 125.659 79.596C125.659 78.896 126.331 78.532 127.143 78.532C127.787 78.532 128.501 78.756 129.229 79.218L129.733 78.406C128.963 77.902 128.039 77.594 127.143 77.594C125.701 77.594 124.609 78.406 124.609 79.722C124.609 80.758 125.281 81.276 127.031 81.78C128.011 82.06 128.851 82.312 128.851 83.096C128.851 83.782 128.207 84.23 127.255 84.23C126.457 84.23 125.631 83.922 124.805 83.32L124.259 84.09C125.127 84.79 126.247 85.168 127.255 85.168ZM134.816 83.936C134.662 84.104 134.382 84.23 134.06 84.23C133.64 84.23 133.276 83.852 133.276 83.32V78.7H135.054V77.762H133.276V75.774H132.226V77.762H131.092V78.7H132.226V83.32C132.226 84.398 132.954 85.168 133.99 85.168C134.48 85.168 134.956 85 135.334 84.706L134.816 83.936ZM137.968 79.176V77.762H136.918V85H137.968V80.954C137.968 79.54 139.13 78.532 140.768 78.532V77.594C139.438 77.594 138.402 78.21 137.968 79.176ZM145.482 84.23C144.054 84.23 143.06 83.194 142.906 81.78H148.828C148.828 79.246 147.582 77.594 145.398 77.594C143.452 77.594 141.828 79.204 141.828 81.36C141.828 83.586 143.564 85.168 145.496 85.168C146.504 85.168 147.778 84.734 148.408 84.048L147.764 83.362C147.316 83.852 146.336 84.23 145.482 84.23ZM145.44 78.532C146.882 78.532 147.652 79.54 147.792 80.842H142.92C143.116 79.442 144.152 78.532 145.44 78.532ZM151.064 76.446C151.442 76.446 151.75 76.124 151.75 75.746C151.75 75.382 151.442 75.06 151.064 75.06C150.672 75.06 150.364 75.382 150.364 75.746C150.364 76.124 150.672 76.446 151.064 76.446ZM150.532 85H151.582V77.762H150.532V85ZM157.051 85.168C159.081 85.168 160.789 83.432 160.789 81.374C160.789 79.316 159.081 77.594 157.051 77.594C155.021 77.594 153.299 79.316 153.299 81.374C153.299 83.432 155.021 85.168 157.051 85.168ZM157.051 84.23C155.609 84.23 154.405 82.928 154.405 81.374C154.405 79.834 155.609 78.532 157.051 78.532C158.479 78.532 159.683 79.834 159.683 81.374C159.683 82.928 158.479 84.23 157.051 84.23ZM163.251 79.358C163.657 79.358 163.993 79.008 163.993 78.588C163.993 78.196 163.657 77.846 163.251 77.846C162.817 77.846 162.481 78.196 162.481 78.588C162.481 79.008 162.817 79.358 163.251 79.358ZM163.251 85.168C163.657 85.168 163.993 84.818 163.993 84.398C163.993 84.006 163.657 83.656 163.251 83.656C162.817 83.656 162.481 84.006 162.481 84.398C162.481 84.818 162.817 85.168 163.251 85.168Z" fill="#9B9B9B"/>
<path d="M238.064 84H239.478V74.382H238.064V84ZM244.139 84H245.553L248.115 76.342L250.649 84H252.063L255.227 74.382H253.659L251.293 81.718L248.885 74.382H247.317L244.909 81.718L242.543 74.382H240.975L244.139 84ZM259.778 84.168C261.864 84.168 263.25 82.992 263.25 81.368C263.25 80.024 262.2 79.296 261.192 79.072C262.2 78.764 263.04 78.022 263.04 76.832C263.04 75.292 261.682 74.214 259.736 74.214C258.168 74.214 257.076 74.942 256.334 75.908L257.216 76.776C257.888 75.992 258.63 75.488 259.638 75.488C260.758 75.488 261.598 76.132 261.598 77.028C261.598 77.994 260.744 78.526 259.526 78.526L258.476 78.512V79.772H259.526C260.968 79.758 261.794 80.276 261.794 81.27C261.794 82.236 260.996 82.894 259.75 82.894C258.644 82.894 257.706 82.376 257.062 81.592L256.152 82.53C256.894 83.454 258.14 84.168 259.778 84.168ZM269.379 84H270.793V81.788H272.179V80.542H270.793V74.382H269.113L264.451 80.654L264.605 81.788H269.379V84ZM266.005 80.542L269.379 75.992V80.542H266.005ZM274.613 84H276.237L280.283 75.446V74.382H273.563V75.698H278.617L274.613 84ZM285.387 84.168C287.473 84.168 288.943 82.894 288.943 80.948C288.943 79.03 287.487 77.938 285.765 77.938C284.911 77.938 284.267 78.218 283.763 78.554L283.847 75.698H288.425V74.382H282.503L282.363 79.408L283.357 79.856C283.931 79.422 284.617 79.156 285.415 79.156C286.661 79.156 287.515 79.898 287.515 81.004C287.515 82.082 286.675 82.922 285.429 82.922C284.407 82.922 283.511 82.418 282.769 81.648L281.887 82.656C282.713 83.552 283.861 84.168 285.387 84.168ZM295.096 84H296.51V81.788H297.896V80.542H296.51V74.382H294.83L290.168 80.654L290.322 81.788H295.096V84ZM291.722 80.542L295.096 75.992V80.542H291.722ZM302.696 84.168C304.782 84.168 306.252 82.894 306.252 80.948C306.252 79.03 304.796 77.938 303.074 77.938C302.22 77.938 301.576 78.218 301.072 78.554L301.156 75.698H305.734V74.382H299.812L299.672 79.408L300.666 79.856C301.24 79.422 301.926 79.156 302.724 79.156C303.97 79.156 304.824 79.898 304.824 81.004C304.824 82.082 303.984 82.922 302.738 82.922C301.716 82.922 300.82 82.418 300.078 81.648L299.196 82.656C300.022 83.552 301.17 84.168 302.696 84.168ZM311.102 84.168C313.188 84.168 314.574 82.992 314.574 81.368C314.574 80.024 313.524 79.296 312.516 79.072C313.524 78.764 314.364 78.022 314.364 76.832C314.364 75.292 313.006 74.214 311.06 74.214C309.492 74.214 308.4 74.942 307.658 75.908L308.54 76.776C309.212 75.992 309.954 75.488 310.962 75.488C312.082 75.488 312.922 76.132 312.922 77.028C312.922 77.994 312.068 78.526 310.85 78.526L309.8 78.512V79.772H310.85C312.292 79.758 313.118 80.276 313.118 81.27C313.118 82.236 312.32 82.894 311.074 82.894C309.968 82.894 309.03 82.376 308.386 81.592L307.476 82.53C308.218 83.454 309.464 84.168 311.102 84.168ZM320.703 84H322.117V81.788H323.503V80.542H322.117V74.382H320.437L315.775 80.654L315.929 81.788H320.703V84ZM317.329 80.542L320.703 75.992V80.542H317.329ZM328.303 84.168C330.389 84.168 331.859 82.894 331.859 80.948C331.859 79.03 330.403 77.938 328.681 77.938C327.827 77.938 327.183 78.218 326.679 78.554L326.763 75.698H331.341V74.382H325.419L325.279 79.408L326.273 79.856C326.847 79.422 327.533 79.156 328.331 79.156C329.577 79.156 330.431 79.898 330.431 81.004C330.431 82.082 329.591 82.922 328.345 82.922C327.323 82.922 326.427 82.418 325.685 81.648L324.803 82.656C325.629 83.552 326.777 84.168 328.303 84.168ZM336.78 84.168C338.866 84.168 340.336 82.894 340.336 80.948C340.336 79.03 338.88 77.938 337.158 77.938C336.304 77.938 335.66 78.218 335.156 78.554L335.24 75.698H339.818V74.382H333.896L333.756 79.408L334.75 79.856C335.324 79.422 336.01 79.156 336.808 79.156C338.054 79.156 338.908 79.898 338.908 81.004C338.908 82.082 338.068 82.922 336.822 82.922C335.8 82.922 334.904 82.418 334.162 81.648L333.28 82.656C334.106 83.552 335.254 84.168 336.78 84.168Z" fill="#222222"/>
<path d="M213.233 111H214.325V102.418H217.559V101.382H209.999V102.418H213.233V111ZM222.612 111.168C224.642 111.168 226.35 109.432 226.35 107.374C226.35 105.316 224.642 103.594 222.612 103.594C220.582 103.594 218.86 105.316 218.86 107.374C218.86 109.432 220.582 111.168 222.612 111.168ZM222.612 110.23C221.17 110.23 219.966 108.928 219.966 107.374C219.966 105.834 221.17 104.532 222.612 104.532C224.04 104.532 225.244 105.834 225.244 107.374C225.244 108.928 224.04 110.23 222.612 110.23ZM231.262 109.936C231.108 110.104 230.828 110.23 230.506 110.23C230.086 110.23 229.722 109.852 229.722 109.32V104.7H231.5V103.762H229.722V101.774H228.672V103.762H227.538V104.7H228.672V109.32C228.672 110.398 229.4 111.168 230.436 111.168C230.926 111.168 231.402 111 231.78 110.706L231.262 109.936ZM236.205 103.594C235.505 103.594 234.637 103.776 233.601 104.294L234.021 105.148C234.679 104.812 235.407 104.49 236.135 104.49C237.703 104.49 238.095 105.61 238.095 106.59V106.856C237.353 106.618 236.527 106.45 235.743 106.45C234.189 106.45 232.901 107.416 232.901 108.858C232.901 110.286 234.021 111.168 235.547 111.168C236.499 111.168 237.577 110.72 238.095 109.866V111H239.145V106.59C239.145 104.84 238.179 103.594 236.205 103.594ZM235.729 110.244C234.707 110.244 233.923 109.712 233.923 108.816C233.923 107.948 234.833 107.332 235.911 107.332C236.695 107.332 237.437 107.444 238.095 107.626V108.732C237.815 109.754 236.681 110.244 235.729 110.244ZM241.291 111H242.341V101.214H241.291V111ZM249.251 105.358C249.657 105.358 249.993 105.008 249.993 104.588C249.993 104.196 249.657 103.846 249.251 103.846C248.817 103.846 248.481 104.196 248.481 104.588C248.481 105.008 248.817 105.358 249.251 105.358ZM249.251 111.168C249.657 111.168 249.993 110.818 249.993 110.398C249.993 110.006 249.657 109.656 249.251 109.656C248.817 109.656 248.481 110.006 248.481 110.398C248.481 110.818 248.817 111.168 249.251 111.168Z" fill="#9B9B9B"/>
<path d="M284.128 111L281.376 107.096C282.96 106.6 284.032 105.32 284.032 103.656C284.032 101.512 282.272 100.008 279.92 100.008H275.136V111H277.136V107.304H279.264L281.856 111H284.128ZM277.136 101.848H279.696C281.056 101.848 282 102.536 282 103.656C282 104.776 281.056 105.464 279.696 105.464H277.136V101.848ZM294.031 107.816C294.031 105.864 292.575 105.112 290.383 104.616V101.608C291.183 101.784 291.951 102.2 292.655 102.808L293.743 101.336C292.815 100.536 291.743 99.992 290.383 99.848V98.856H288.927V99.832C286.959 100.072 285.631 101.4 285.631 103.128C285.631 105.016 286.959 105.72 288.927 106.232V109.352C287.951 109.144 287.103 108.664 286.351 107.976L285.199 109.4C286.207 110.328 287.455 110.936 288.927 111.112V112.184H290.383V111.16C292.703 111 294.031 109.656 294.031 107.816ZM287.647 102.952C287.647 102.328 288.143 101.768 288.927 101.576V104.232C288.063 103.928 287.647 103.592 287.647 102.952ZM290.383 109.448V106.6C291.519 106.936 292.031 107.272 292.031 108.008C292.031 108.712 291.471 109.32 290.383 109.448ZM302.242 111H304.226V100.008H302.626L299.538 102.104L300.354 103.512L302.242 102.312V111ZM308.539 111H310.523V100.008H308.923L305.835 102.104L306.651 103.512L308.539 102.312V111ZM312.564 111H320.644V109.176H315.668L317.972 107.32C319.86 105.864 320.532 104.696 320.532 103.24C320.532 101.208 318.868 99.816 316.692 99.816C314.916 99.816 313.588 100.6 312.548 101.96L313.844 103.16C314.644 102.2 315.476 101.608 316.628 101.608C317.62 101.608 318.5 102.248 318.5 103.288C318.5 104.184 318.004 105.016 316.612 106.136L312.564 109.368V111ZM323.548 113.272C324.62 112.12 325.084 111.288 325.084 110.424C325.084 109.416 324.556 108.68 323.74 108.68C323.052 108.68 322.492 109.256 322.492 109.928C322.492 110.616 323.036 111.192 323.708 111.192C323.58 111.704 323.26 112.216 322.78 112.696L323.548 113.272ZM326.736 111H334.816V109.176H329.84L332.144 107.32C334.032 105.864 334.704 104.696 334.704 103.24C334.704 101.208 333.04 99.816 330.864 99.816C329.088 99.816 327.76 100.6 326.72 101.96L328.016 103.16C328.816 102.2 329.648 101.608 330.8 101.608C331.792 101.608 332.672 102.248 332.672 103.288C332.672 104.184 332.176 105.016 330.784 106.136L326.736 109.368V111ZM338.648 111H340.632V100.008H339.032L335.944 102.104L336.76 103.512L338.648 102.312V111Z" fill="#222222"/>
<path d="M271.362 55H272.454V45.382H271.572L269.206 46.992L269.682 47.804L271.362 46.712V55ZM274.463 55H281.099V53.964H276.213L278.733 51.78C280.357 50.38 281.001 49.344 281.001 48.042C281.001 46.32 279.601 45.214 277.935 45.214C276.423 45.214 275.345 45.928 274.547 47.062L275.317 47.692C275.975 46.796 276.773 46.194 277.893 46.194C278.915 46.194 279.895 46.88 279.895 48.056C279.895 49.008 279.335 49.932 277.977 51.094L274.463 54.09V55ZM282.805 51.71H286.431V50.688H282.805V51.71ZM292.047 55.168C294.385 55.168 296.037 53.11 296.037 50.184C296.037 47.272 294.385 45.214 292.047 45.214C289.695 45.214 288.043 47.272 288.043 50.184C288.043 53.11 289.695 55.168 292.047 55.168ZM292.047 54.16C290.353 54.16 289.149 52.508 289.149 50.184C289.149 47.86 290.353 46.222 292.047 46.222C293.741 46.222 294.931 47.86 294.931 50.184C294.931 52.508 293.741 54.16 292.047 54.16ZM301.041 55.168C303.015 55.168 304.457 53.908 304.457 52.004C304.457 50.1 303.015 49.008 301.279 49.008C300.397 49.008 299.739 49.302 299.221 49.652L299.319 46.418H303.939V45.382H298.255L298.115 50.324L298.913 50.716C299.515 50.268 300.229 49.974 301.055 49.974C302.399 49.974 303.351 50.814 303.351 52.046C303.351 53.264 302.413 54.188 301.083 54.188C300.019 54.188 299.109 53.656 298.367 52.844L297.653 53.642C298.437 54.538 299.557 55.168 301.041 55.168ZM306.034 51.71H309.66V50.688H306.034V51.71ZM311.131 55H317.767V53.964H312.881L315.401 51.78C317.025 50.38 317.669 49.344 317.669 48.042C317.669 46.32 316.269 45.214 314.603 45.214C313.091 45.214 312.013 45.928 311.215 47.062L311.985 47.692C312.643 46.796 313.441 46.194 314.561 46.194C315.583 46.194 316.563 46.88 316.563 48.056C316.563 49.008 316.003 49.932 314.645 51.094L311.131 54.09V55ZM323.519 55.168C325.857 55.168 327.509 53.11 327.509 50.184C327.509 47.272 325.857 45.214 323.519 45.214C321.167 45.214 319.515 47.272 319.515 50.184C319.515 53.11 321.167 55.168 323.519 55.168ZM323.519 54.16C321.825 54.16 320.621 52.508 320.621 50.184C320.621 47.86 321.825 46.222 323.519 46.222C325.213 46.222 326.403 47.86 326.403 50.184C326.403 52.508 325.213 54.16 323.519 54.16ZM330.862 55H331.954V45.382H331.072L328.706 46.992L329.182 47.804L330.862 46.712V55ZM337.505 45.214C335.503 45.214 334.117 46.614 334.117 48.392C334.117 50.296 335.587 51.388 337.337 51.388C338.471 51.388 339.465 50.842 340.053 49.918V50.044C340.053 52.354 338.835 54.174 337.295 54.174C336.371 54.174 335.741 53.754 335.139 53.166L334.537 54.02C335.251 54.706 336.091 55.168 337.267 55.168C339.451 55.168 341.159 52.914 341.159 50.044C341.159 47.328 340.109 45.214 337.505 45.214ZM337.533 50.45C336.245 50.45 335.223 49.652 335.223 48.336C335.223 47.272 336.077 46.152 337.519 46.152C338.863 46.152 339.647 47.202 339.927 48.658C339.689 49.722 338.751 50.45 337.533 50.45Z" fill="#9B9B9B"/>
<defs>
<filter id="filter0_d" x="-7" y="0" width="391" height="212" filterUnits="userSpaceOnUse" color-interpolation-filters="sRGB">
<feFlood flood-opacity="0" result="BackgroundImageFix"/>
<feColorMatrix in="SourceAlpha" type="matrix" values="0 0 0 0 0 0 0 0 0 0 0 0 0 0 0 0 0 0 127 0"/>
<feOffset dy="1"/>
<feGaussianBlur stdDeviation="12"/>
<feColorMatrix type="matrix" values="0 0 0 0 0 0 0 0 0 0 0 0 0 0 0 0 0 0 0.12 0"/>
<feBlend mode="normal" in2="BackgroundImageFix" result="effect1_dropShadow"/>
<feBlend mode="normal" in="SourceGraphic" in2="effect1_dropShadow" result="shape"/>
</filter>
</defs>
</svg>
