<svg width="359" height="64" viewBox="0 0 359 64" fill="none" xmlns="http://www.w3.org/2000/svg">
<g filter="url(#filter0_d)">
<rect x="8" y="4" width="343" height="48" rx="24" fill="#DB3022"/>
</g>
<path d="M91.9932 32.168C93.3652 32.168 94.6252 31.58 95.5352 30.656L94.5412 29.704C93.8972 30.404 92.9872 30.866 91.9932 30.866C90.0752 30.866 88.4512 29.186 88.4512 27.184C88.4512 25.196 90.0752 23.516 91.9932 23.516C92.9872 23.516 93.8972 23.978 94.5412 24.678L95.5352 23.726C94.6252 22.788 93.3652 22.214 91.9932 22.214C89.2912 22.214 86.9952 24.482 86.9952 27.184C86.9952 29.886 89.2912 32.168 91.9932 32.168ZM101.372 32.168C104.074 32.168 106.342 29.886 106.342 27.184C106.342 24.482 104.074 22.214 101.372 22.214C98.6701 22.214 96.3741 24.482 96.3741 27.184C96.3741 29.886 98.6701 32.168 101.372 32.168ZM101.372 30.866C99.4541 30.866 97.8301 29.186 97.8301 27.184C97.8301 25.196 99.4541 23.516 101.372 23.516C103.29 23.516 104.9 25.196 104.9 27.184C104.9 29.186 103.29 30.866 101.372 30.866ZM108.24 32H109.654V24.706L115.184 32H116.598V22.382H115.184V29.676L109.654 22.382H108.24V32ZM121.547 32H122.961V23.698H126.125V22.382H118.397V23.698H121.547V32ZM127.747 32H129.161V22.382H127.747V32ZM131.442 32H132.856V24.706L138.386 32H139.8V22.382H138.386V29.676L132.856 22.382H131.442V32ZM146.274 32.168C148.682 32.168 150.404 30.418 150.404 27.954V22.382H148.976V27.926C148.976 29.648 147.856 30.88 146.274 30.88C144.678 30.88 143.558 29.648 143.558 27.926V22.382H142.144V27.954C142.144 30.418 143.852 32.168 146.274 32.168ZM160.135 32H161.703L157.573 22.382H156.005L151.875 32H153.443L154.283 30.04H159.295L160.135 32ZM154.829 28.766L156.789 24.202L158.749 28.766H154.829ZM170.731 25.518C170.731 23.684 169.191 22.382 167.161 22.382H163.115V32H164.529V28.654H166.741L169.093 32H170.717L168.267 28.514C169.723 28.136 170.731 27.002 170.731 25.518ZM164.529 23.698H166.965C168.351 23.698 169.289 24.384 169.289 25.518C169.289 26.652 168.351 27.338 166.965 27.338H164.529V23.698ZM180.97 32.168C182.342 32.168 183.602 31.58 184.512 30.656L183.518 29.704C182.874 30.404 181.964 30.866 180.97 30.866C179.052 30.866 177.428 29.186 177.428 27.184C177.428 25.196 179.052 23.516 180.97 23.516C181.964 23.516 182.874 23.978 183.518 24.678L184.512 23.726C183.602 22.788 182.342 22.214 180.97 22.214C178.268 22.214 175.972 24.482 175.972 27.184C175.972 29.886 178.268 32.168 180.97 32.168ZM190.349 32.168C193.051 32.168 195.319 29.886 195.319 27.184C195.319 24.482 193.051 22.214 190.349 22.214C187.647 22.214 185.351 24.482 185.351 27.184C185.351 29.886 187.647 32.168 190.349 32.168ZM190.349 30.866C188.431 30.866 186.807 29.186 186.807 27.184C186.807 25.196 188.431 23.516 190.349 23.516C192.267 23.516 193.877 25.196 193.877 27.184C193.877 29.186 192.267 30.866 190.349 30.866ZM197.217 32H198.631V25.154L202.005 31.44L205.379 25.154V32H206.793V22.382H205.379L202.005 28.668L198.631 22.382H197.217V32ZM209.067 32H210.481V28.654H213.113C215.143 28.654 216.683 27.352 216.683 25.518C216.683 23.684 215.143 22.382 213.113 22.382H209.067V32ZM210.481 27.338V23.698H212.917C214.303 23.698 215.241 24.384 215.241 25.518C215.241 26.652 214.303 27.338 212.917 27.338H210.481ZM225.774 25.518C225.774 23.684 224.234 22.382 222.204 22.382H218.158V32H219.572V28.654H221.784L224.136 32H225.76L223.31 28.514C224.766 28.136 225.774 27.002 225.774 25.518ZM219.572 23.698H222.008C223.394 23.698 224.332 24.384 224.332 25.518C224.332 26.652 223.394 27.338 222.008 27.338H219.572V23.698ZM234.961 32H236.529L232.399 22.382H230.831L226.701 32H228.269L229.109 30.04H234.121L234.961 32ZM229.655 28.766L231.615 24.202L233.575 28.766H229.655ZM238.11 32H239.524V24.706L245.054 32H246.468V22.382H245.054V29.676L239.524 22.382H238.11V32ZM248.91 32H252.228C255.336 32 257.548 29.998 257.548 27.184C257.548 24.37 255.336 22.382 252.228 22.382H248.91V32ZM250.324 30.712V23.67H252.312C254.538 23.67 256.092 25.126 256.092 27.184C256.092 29.256 254.538 30.712 252.312 30.712H250.324ZM264.026 32.168C266.728 32.168 268.996 29.886 268.996 27.184C268.996 24.482 266.728 22.214 264.026 22.214C261.324 22.214 259.028 24.482 259.028 27.184C259.028 29.886 261.324 32.168 264.026 32.168ZM264.026 30.866C262.108 30.866 260.484 29.186 260.484 27.184C260.484 25.196 262.108 23.516 264.026 23.516C265.944 23.516 267.554 25.196 267.554 27.184C267.554 29.186 265.944 30.866 264.026 30.866Z" fill="white"/>
<defs>
<filter id="filter0_d" x="0" y="0" width="359" height="64" filterUnits="userSpaceOnUse" color-interpolation-filters="sRGB">
<feFlood flood-opacity="0" result="BackgroundImageFix"/>
<feColorMatrix in="SourceAlpha" type="matrix" values="0 0 0 0 0 0 0 0 0 0 0 0 0 0 0 0 0 0 127 0"/>
<feOffset dy="4"/>
<feGaussianBlur stdDeviation="4"/>
<feColorMatrix type="matrix" values="0 0 0 0 0.829167 0 0 0 0 0.148559 0 0 0 0 0.148559 0 0 0 0.25 0"/>
<feBlend mode="normal" in2="BackgroundImageFix" result="effect1_dropShadow"/>
<feBlend mode="normal" in="SourceGraphic" in2="effect1_dropShadow" result="shape"/>
</filter>
</defs>
</svg>
