<svg width="375" height="812" viewBox="0 0 375 812" fill="none" xmlns="http://www.w3.org/2000/svg">
<rect width="375" height="812" fill="white"/>
<path d="M114.152 481.408C119.864 481.408 123.23 478.45 123.23 473.996C123.23 469.678 119.898 468.182 114.866 467.06C111.262 466.244 109.868 465.7 109.868 464C109.868 462.606 111.16 461.484 113.302 461.484C115.546 461.484 117.892 462.402 119.966 464.068L122.584 460.464C120.204 458.424 117.246 457.234 113.438 457.234C108.338 457.234 104.802 460.192 104.802 464.51C104.802 469.032 108.304 470.426 113.234 471.548C116.804 472.364 118.164 472.874 118.164 474.54C118.164 476.002 116.872 477.158 114.356 477.158C111.398 477.158 108.882 476.002 106.672 474.098L103.782 477.532C106.502 480.048 110.106 481.408 114.152 481.408ZM138.354 463.422V473.928L138.32 473.826C138.32 475.73 136.722 477.226 134.648 477.226C132.676 477.226 131.316 475.73 131.316 473.554V463.422H126.522V474.608C126.522 478.586 129.242 481.408 133.05 481.408C135.328 481.408 137.3 480.388 138.354 478.79V481H143.318V463.422H138.354ZM156.178 481.408C159.102 481.408 161.482 480.218 163.216 478.314L159.918 475.526C159 476.546 157.572 477.226 156.212 477.226C153.594 477.226 151.418 474.914 151.418 472.16C151.418 469.474 153.594 467.196 156.178 467.196C157.538 467.196 158.932 467.842 159.816 468.828L163.114 466.006C161.414 464.17 159.068 463.014 156.212 463.014C151.01 463.014 146.59 467.196 146.59 472.194C146.59 477.192 150.976 481.408 156.178 481.408ZM174.499 477.022C172.425 477.022 170.895 475.73 170.317 473.826H182.999C182.999 467.196 179.769 463.014 174.261 463.014C169.127 463.014 165.217 466.856 165.217 472.16C165.217 477.566 169.297 481.408 174.533 481.408C177.117 481.408 180.143 480.32 181.707 478.688L178.545 475.458C177.593 476.376 175.893 477.022 174.499 477.022ZM174.465 467.4C176.471 467.4 177.763 468.522 178.239 470.256H170.385C171.031 468.488 172.595 467.4 174.465 467.4ZM192.954 481.408C197.272 481.408 200.094 479.198 200.094 475.73C200.094 471.888 196.728 470.868 193.702 470.086C191.322 469.44 190.608 469.168 190.608 468.216C190.608 467.604 191.458 467.162 192.682 467.162C194.178 467.162 196.014 467.74 197.612 468.726L199.618 465.19C197.68 463.898 195.198 463.014 192.682 463.014C188.534 463.014 185.78 465.394 185.814 468.726C185.848 472.194 188.636 473.18 192.24 474.064C194.042 474.54 195.334 474.88 195.334 475.968C195.334 476.75 194.382 477.294 193.056 477.294C190.71 477.294 188.738 476.444 187.174 475.322L185.032 478.756C187.14 480.456 190.132 481.408 192.954 481.408ZM210.02 481.408C214.338 481.408 217.16 479.198 217.16 475.73C217.16 471.888 213.794 470.868 210.768 470.086C208.388 469.44 207.674 469.168 207.674 468.216C207.674 467.604 208.524 467.162 209.748 467.162C211.244 467.162 213.08 467.74 214.678 468.726L216.684 465.19C214.746 463.898 212.264 463.014 209.748 463.014C205.6 463.014 202.846 465.394 202.88 468.726C202.914 472.194 205.702 473.18 209.306 474.064C211.108 474.54 212.4 474.88 212.4 475.968C212.4 476.75 211.448 477.294 210.122 477.294C207.776 477.294 205.804 476.444 204.24 475.322L202.098 478.756C204.206 480.456 207.198 481.408 210.02 481.408ZM229.126 481.408C234.328 481.408 238.68 477.192 238.68 472.194C238.68 467.196 234.328 463.014 229.126 463.014C223.89 463.014 219.504 467.196 219.504 472.194C219.504 477.192 223.89 481.408 229.126 481.408ZM229.126 477.226C226.474 477.226 224.264 474.914 224.264 472.194C224.264 469.474 226.474 467.196 229.126 467.196C231.744 467.196 233.954 469.474 233.954 472.194C233.954 474.914 231.744 477.226 229.126 477.226ZM243.467 472.772H246.833L247.955 457.642H242.345L243.467 472.772ZM245.133 481.408C246.799 481.408 248.159 479.98 248.159 478.246C248.159 476.648 246.799 475.22 245.133 475.22C243.365 475.22 241.971 476.648 241.971 478.246C241.971 479.98 243.365 481.408 245.133 481.408Z" fill="black"/>
<path opacity="0.35" d="M336.5 20C336.5 18.8034 337.47 17.8333 338.667 17.8333H355.333C356.53 17.8333 357.5 18.8034 357.5 20V26C357.5 27.1966 356.53 28.1667 355.333 28.1667H338.667C337.47 28.1667 336.5 27.1966 336.5 26V20Z" stroke="black"/>
<path opacity="0.4" d="M359 21V25C359.805 24.6612 360.328 23.8731 360.328 23C360.328 22.1269 359.805 21.3388 359 21Z" fill="black"/>
<path d="M338 20.6667C338 19.9303 338.597 19.3333 339.333 19.3333H354.667C355.403 19.3333 356 19.9303 356 20.6667V25.3333C356 26.0697 355.403 26.6667 354.667 26.6667H339.333C338.597 26.6667 338 26.0697 338 25.3333V20.6667Z" fill="black"/>
<path fill-rule="evenodd" clip-rule="evenodd" d="M323.33 19.608C325.546 19.6081 327.677 20.4596 329.283 21.9863C329.404 22.1042 329.598 22.1027 329.717 21.983L330.873 20.8163C330.933 20.7556 330.967 20.6734 330.966 20.5878C330.966 20.5022 330.931 20.4204 330.87 20.3603C326.655 16.3208 320.005 16.3208 315.79 20.3603C315.729 20.4203 315.694 20.5021 315.694 20.5877C315.693 20.6733 315.727 20.7556 315.787 20.8163L316.943 21.983C317.062 22.1029 317.256 22.1044 317.377 21.9863C318.983 20.4595 321.114 19.608 323.33 19.608ZM323.33 23.4037C324.548 23.4036 325.722 23.8561 326.624 24.6733C326.746 24.7893 326.939 24.7868 327.058 24.6677L328.212 23.501C328.273 23.4398 328.307 23.3568 328.306 23.2705C328.305 23.1843 328.27 23.102 328.208 23.042C325.459 20.4856 321.204 20.4856 318.455 23.042C318.393 23.102 318.358 23.1843 318.357 23.2706C318.356 23.3569 318.39 23.4399 318.451 23.501L319.605 24.6677C319.724 24.7868 319.917 24.7893 320.039 24.6733C320.941 23.8567 322.114 23.4042 323.33 23.4037ZM325.643 25.9575C325.645 26.044 325.611 26.1274 325.549 26.188L323.552 28.2037C323.493 28.2629 323.414 28.2963 323.33 28.2963C323.247 28.2963 323.167 28.2629 323.109 28.2037L321.111 26.188C321.049 26.1274 321.015 26.0439 321.017 25.9574C321.019 25.8709 321.056 25.789 321.121 25.731C322.396 24.6521 324.264 24.6521 325.54 25.731C325.604 25.7891 325.642 25.871 325.643 25.9575Z" fill="black"/>
<path fill-rule="evenodd" clip-rule="evenodd" d="M309.667 17.6667H308.667C308.114 17.6667 307.667 18.1144 307.667 18.6667V27.3333C307.667 27.8856 308.114 28.3333 308.667 28.3333H309.667C310.219 28.3333 310.667 27.8856 310.667 27.3333V18.6667C310.667 18.1144 310.219 17.6667 309.667 17.6667ZM304 20H305C305.552 20 306 20.4477 306 21V27.3333C306 27.8856 305.552 28.3333 305 28.3333H304C303.448 28.3333 303 27.8856 303 27.3333V21C303 20.4477 303.448 20 304 20ZM300.333 22.3333H299.333C298.781 22.3333 298.333 22.781 298.333 23.3333V27.3333C298.333 27.8856 298.781 28.3333 299.333 28.3333H300.333C300.886 28.3333 301.333 27.8856 301.333 27.3333V23.3333C301.333 22.781 300.886 22.3333 300.333 22.3333ZM295.667 24.3333H294.667C294.114 24.3333 293.667 24.781 293.667 25.3333V27.3333C293.667 27.8856 294.114 28.3333 294.667 28.3333H295.667C296.219 28.3333 296.667 27.8856 296.667 27.3333V25.3333C296.667 24.781 296.219 24.3333 295.667 24.3333Z" fill="black"/>
<path d="M37.2841 28.2563C39.9721 28.2563 41.5688 26.1543 41.5688 22.5947C41.5688 21.2544 41.3124 20.1265 40.8217 19.2549C40.1112 17.8999 38.8881 17.1675 37.3427 17.1675C35.0429 17.1675 33.4169 18.7129 33.4169 20.8809C33.4169 22.917 34.8817 24.3965 36.8959 24.3965C38.1337 24.3965 39.1371 23.8179 39.6352 22.8145H39.6571C39.6571 22.8145 39.6864 22.8145 39.6938 22.8145C39.7084 22.8145 39.7597 22.8145 39.7597 22.8145C39.7597 25.2314 38.8441 26.6743 37.2987 26.6743C36.3905 26.6743 35.6874 26.1763 35.4457 25.3779H33.5634C33.8783 27.1138 35.3505 28.2563 37.2841 28.2563ZM37.35 22.895C36.1342 22.895 35.2699 22.0308 35.2699 20.8223C35.2699 19.6431 36.1781 18.7422 37.3573 18.7422C38.5365 18.7422 39.4447 19.6577 39.4447 20.8516C39.4447 22.0308 38.5585 22.895 37.35 22.895ZM44.5866 26.8794C45.2824 26.8794 45.7585 26.3813 45.7585 25.7222C45.7585 25.0557 45.2824 24.5649 44.5866 24.5649C43.8981 24.5649 43.4147 25.0557 43.4147 25.7222C43.4147 26.3813 43.8981 26.8794 44.5866 26.8794ZM44.5866 21.3862C45.2824 21.3862 45.7585 20.8955 45.7585 20.2363C45.7585 19.5698 45.2824 19.0791 44.5866 19.0791C43.8981 19.0791 43.4147 19.5698 43.4147 20.2363C43.4147 20.8955 43.8981 21.3862 44.5866 21.3862ZM52.7607 28H54.5698V26.0298H55.998V24.4331H54.5698V17.4312H51.9038C50.0361 20.2437 48.5493 22.5947 47.5972 24.3452V26.0298H52.7607V28ZM49.3477 24.3672C50.5781 22.1992 51.6768 20.4634 52.6875 18.9692H52.79V24.4771H49.3477V24.3672ZM60.0267 28H61.9163V17.4312H60.034L57.2728 19.3647V21.1812L59.9021 19.3354H60.0267V28Z" fill="black"/>
<path d="M70.397 515.154C72.637 515.154 73.785 513.908 73.785 512.382C73.785 510.688 72.469 510.03 70.635 509.596C68.997 509.204 68.045 508.854 68.045 507.86C68.045 506.978 68.913 506.194 70.103 506.194C71.111 506.194 72.063 506.656 72.861 507.426L73.533 506.572C72.651 505.76 71.587 505.2 70.159 505.2C68.311 505.2 66.939 506.404 66.939 507.944C66.939 509.61 68.157 510.212 70.089 510.66C71.769 511.052 72.679 511.458 72.679 512.48C72.679 513.348 71.923 514.16 70.439 514.16C69.095 514.16 68.101 513.586 67.289 512.774L66.603 513.628C67.569 514.58 68.815 515.154 70.397 515.154ZM78.8709 514.23C77.4429 514.23 76.4489 513.194 76.2949 511.78H82.2169C82.2169 509.246 80.9709 507.594 78.7869 507.594C76.8409 507.594 75.2169 509.204 75.2169 511.36C75.2169 513.586 76.9529 515.168 78.8849 515.168C79.8929 515.168 81.1669 514.734 81.7969 514.048L81.1529 513.362C80.7049 513.852 79.7249 514.23 78.8709 514.23ZM78.8289 508.532C80.2709 508.532 81.0409 509.54 81.1809 510.842H76.3089C76.5049 509.442 77.5409 508.532 78.8289 508.532ZM89.0311 507.762V512.368C89.0311 513.376 88.0091 514.23 86.7911 514.23C85.7271 514.23 84.9851 513.404 84.9851 512.228V507.762H83.9351V512.368C83.9351 514.006 85.0551 515.168 86.6511 515.168C87.6731 515.168 88.6111 514.608 89.0311 513.838V515H90.0811V507.762H89.0311ZM100.061 507.594C98.8988 507.594 97.9748 508.168 97.4288 509.12V507.762H96.3788V517.408H97.4288V513.642C97.9748 514.594 98.8988 515.168 100.061 515.168C101.965 515.168 103.393 513.6 103.393 511.374C103.393 509.162 101.965 507.594 100.061 507.594ZM99.8648 514.23C98.4368 514.23 97.4288 513.04 97.4288 511.374C97.4288 509.708 98.4368 508.532 99.8648 508.532C101.279 508.532 102.287 509.708 102.287 511.374C102.287 513.04 101.279 514.23 99.8648 514.23ZM108.471 514.23C107.043 514.23 106.049 513.194 105.895 511.78H111.817C111.817 509.246 110.571 507.594 108.387 507.594C106.441 507.594 104.817 509.204 104.817 511.36C104.817 513.586 106.553 515.168 108.485 515.168C109.493 515.168 110.767 514.734 111.397 514.048L110.753 513.362C110.305 513.852 109.325 514.23 108.471 514.23ZM108.429 508.532C109.871 508.532 110.641 509.54 110.781 510.842H105.909C106.105 509.442 107.141 508.532 108.429 508.532ZM119.191 505.214V509.12C118.645 508.168 117.721 507.594 116.559 507.594C114.655 507.594 113.227 509.162 113.227 511.374C113.227 513.6 114.655 515.168 116.559 515.168C117.721 515.168 118.645 514.594 119.191 513.642V515H120.241V505.214H119.191ZM116.755 514.23C115.341 514.23 114.333 513.04 114.333 511.374C114.333 509.708 115.341 508.532 116.755 508.532C118.183 508.532 119.191 509.708 119.191 511.374C119.191 513.04 118.183 514.23 116.755 514.23ZM122.98 506.446C123.358 506.446 123.666 506.124 123.666 505.746C123.666 505.382 123.358 505.06 122.98 505.06C122.588 505.06 122.28 505.382 122.28 505.746C122.28 506.124 122.588 506.446 122.98 506.446ZM122.448 515H123.498V507.762H122.448V515ZM131.263 505.214V509.12C130.717 508.168 129.793 507.594 128.631 507.594C126.727 507.594 125.299 509.162 125.299 511.374C125.299 513.6 126.727 515.168 128.631 515.168C129.793 515.168 130.717 514.594 131.263 513.642V515H132.313V505.214H131.263ZM128.827 514.23C127.413 514.23 126.405 513.04 126.405 511.374C126.405 509.708 127.413 508.532 128.827 508.532C130.255 508.532 131.263 509.708 131.263 511.374C131.263 513.04 130.255 514.23 128.827 514.23ZM137.895 515.168C139.925 515.168 141.633 513.432 141.633 511.374C141.633 509.316 139.925 507.594 137.895 507.594C135.865 507.594 134.143 509.316 134.143 511.374C134.143 513.432 135.865 515.168 137.895 515.168ZM137.895 514.23C136.453 514.23 135.249 512.928 135.249 511.374C135.249 509.834 136.453 508.532 137.895 508.532C139.323 508.532 140.527 509.834 140.527 511.374C140.527 512.928 139.323 514.23 137.895 514.23ZM149.989 515.168C151.487 515.168 152.635 514.314 152.635 512.984C152.635 511.612 151.431 511.22 150.269 510.856C148.925 510.422 148.393 510.226 148.393 509.596C148.393 508.896 149.065 508.532 149.877 508.532C150.521 508.532 151.235 508.756 151.963 509.218L152.467 508.406C151.697 507.902 150.773 507.594 149.877 507.594C148.435 507.594 147.343 508.406 147.343 509.722C147.343 510.758 148.015 511.276 149.765 511.78C150.745 512.06 151.585 512.312 151.585 513.096C151.585 513.782 150.941 514.23 149.989 514.23C149.191 514.23 148.365 513.922 147.539 513.32L146.993 514.09C147.861 514.79 148.981 515.168 149.989 515.168ZM157.635 514.23C156.207 514.23 155.213 513.194 155.059 511.78H160.981C160.981 509.246 159.735 507.594 157.551 507.594C155.605 507.594 153.981 509.204 153.981 511.36C153.981 513.586 155.717 515.168 157.649 515.168C158.657 515.168 159.931 514.734 160.561 514.048L159.917 513.362C159.469 513.852 158.489 514.23 157.635 514.23ZM157.593 508.532C159.035 508.532 159.805 509.54 159.945 510.842H155.073C155.269 509.442 156.305 508.532 157.593 508.532ZM163.847 509.176V507.762H162.797V515H163.847V510.954C163.847 509.54 165.009 508.532 166.647 508.532V507.594C165.317 507.594 164.281 508.21 163.847 509.176ZM172.817 505.172L171.711 504.92L170.017 506.936H170.829L172.817 505.172ZM171.039 507.594C170.339 507.594 169.471 507.776 168.435 508.294L168.855 509.148C169.513 508.812 170.241 508.49 170.969 508.49C172.537 508.49 172.929 509.61 172.929 510.59V510.856C172.187 510.618 171.361 510.45 170.577 510.45C169.023 510.45 167.735 511.416 167.735 512.858C167.735 514.286 168.855 515.168 170.381 515.168C171.333 515.168 172.411 514.72 172.929 513.866V515H173.979V510.59C173.979 508.84 173.013 507.594 171.039 507.594ZM170.563 514.244C169.541 514.244 168.757 513.712 168.757 512.816C168.757 511.948 169.667 511.332 170.745 511.332C171.529 511.332 172.271 511.444 172.929 511.626V512.732C172.649 513.754 171.515 514.244 170.563 514.244ZM183.447 514.23C182.019 514.23 181.025 513.194 180.871 511.78H186.793C186.793 509.246 185.547 507.594 183.363 507.594C181.417 507.594 179.793 509.204 179.793 511.36C179.793 513.586 181.529 515.168 183.461 515.168C184.469 515.168 185.743 514.734 186.373 514.048L185.729 513.362C185.281 513.852 184.301 514.23 183.447 514.23ZM183.405 508.532C184.847 508.532 185.617 509.54 185.757 510.842H180.885C181.081 509.442 182.117 508.532 183.405 508.532ZM191.955 507.594C190.933 507.594 189.995 508.154 189.575 508.924V507.762H188.525V515H189.575V510.394C189.575 509.386 190.597 508.532 191.815 508.532C192.879 508.532 193.621 509.358 193.621 510.534V515H194.671V510.394C194.671 508.756 193.551 507.594 191.955 507.594ZM199.974 513.936C199.82 514.104 199.54 514.23 199.218 514.23C198.798 514.23 198.434 513.852 198.434 513.32V508.7H200.212V507.762H198.434V505.774H197.384V507.762H196.25V508.7H197.384V513.32C197.384 514.398 198.112 515.168 199.148 515.168C199.638 515.168 200.114 515 200.492 514.706L199.974 513.936ZM203.126 509.176V507.762H202.076V515H203.126V510.954C203.126 509.54 204.288 508.532 205.926 508.532V507.594C204.596 507.594 203.56 508.21 203.126 509.176ZM210.64 514.23C209.212 514.23 208.218 513.194 208.064 511.78H213.986C213.986 509.246 212.74 507.594 210.556 507.594C208.61 507.594 206.986 509.204 206.986 511.36C206.986 513.586 208.722 515.168 210.654 515.168C211.662 515.168 212.936 514.734 213.566 514.048L212.922 513.362C212.474 513.852 211.494 514.23 210.64 514.23ZM210.598 508.532C212.04 508.532 212.81 509.54 212.95 510.842H208.078C208.274 509.442 209.31 508.532 210.598 508.532ZM221.333 507.762V509.008C220.773 508.126 219.849 507.594 218.701 507.594C216.755 507.594 215.369 509.008 215.369 511.024C215.369 513.04 216.755 514.468 218.701 514.468C219.849 514.468 220.773 513.936 221.333 513.054V514.23C221.333 515.644 220.353 516.47 218.687 516.47C217.791 516.47 216.923 516.148 216.363 515.616L215.901 516.442C216.559 517.002 217.651 517.408 218.827 517.408C220.913 517.408 222.383 516.092 222.383 514.23V507.762H221.333ZM218.897 513.53C217.483 513.53 216.475 512.494 216.475 511.024C216.475 509.568 217.483 508.532 218.897 508.532C220.325 508.532 221.333 509.568 221.333 511.024C221.333 512.494 220.325 513.53 218.897 513.53ZM229.701 507.762V512.368C229.701 513.376 228.679 514.23 227.461 514.23C226.397 514.23 225.655 513.404 225.655 512.228V507.762H224.605V512.368C224.605 514.006 225.725 515.168 227.321 515.168C228.343 515.168 229.281 514.608 229.701 513.838V515H230.751V507.762H229.701ZM236.152 514.23C234.724 514.23 233.73 513.194 233.576 511.78H239.498C239.498 509.246 238.252 507.594 236.068 507.594C234.122 507.594 232.498 509.204 232.498 511.36C232.498 513.586 234.234 515.168 236.166 515.168C237.174 515.168 238.448 514.734 239.078 514.048L238.434 513.362C237.986 513.852 237.006 514.23 236.152 514.23ZM236.11 508.532C237.552 508.532 238.322 509.54 238.462 510.842H233.59C233.786 509.442 234.822 508.532 236.11 508.532ZM248.539 514.23C247.111 514.23 246.117 513.194 245.963 511.78H251.885C251.885 509.246 250.639 507.594 248.455 507.594C246.509 507.594 244.885 509.204 244.885 511.36C244.885 513.586 246.621 515.168 248.553 515.168C249.561 515.168 250.835 514.734 251.465 514.048L250.821 513.362C250.373 513.852 249.393 514.23 248.539 514.23ZM248.497 508.532C249.939 508.532 250.709 509.54 250.849 510.842H245.977C246.173 509.442 247.209 508.532 248.497 508.532ZM261.429 507.594C260.337 507.594 259.385 508.196 259.091 509.134C258.699 508.196 257.845 507.594 256.753 507.594C255.801 507.594 255.017 508.07 254.653 508.826V507.762H253.603V515H254.653V510.394C254.653 509.302 255.465 508.532 256.613 508.532C257.593 508.532 258.279 509.358 258.279 510.534V515H259.329V510.394C259.329 509.302 260.141 508.532 261.289 508.532C262.269 508.532 262.955 509.358 262.955 510.534V515H264.005V510.394C264.005 508.756 262.941 507.594 261.429 507.594ZM273.967 507.594C272.805 507.594 271.881 508.168 271.335 509.12V505.214H270.285V515H271.335V513.642C271.881 514.594 272.805 515.168 273.967 515.168C275.871 515.168 277.299 513.6 277.299 511.374C277.299 509.162 275.871 507.594 273.967 507.594ZM273.771 514.23C272.343 514.23 271.335 513.04 271.335 511.374C271.335 509.708 272.343 508.532 273.771 508.532C275.185 508.532 276.193 509.708 276.193 511.374C276.193 513.04 275.185 514.23 273.771 514.23ZM280.263 509.176V507.762H279.213V515H280.263V510.954C280.263 509.54 281.425 508.532 283.063 508.532V507.594C281.733 507.594 280.697 508.21 280.263 509.176ZM287.777 514.23C286.349 514.23 285.355 513.194 285.201 511.78H291.123C291.123 509.246 289.877 507.594 287.693 507.594C285.747 507.594 284.123 509.204 284.123 511.36C284.123 513.586 285.859 515.168 287.791 515.168C288.799 515.168 290.073 514.734 290.703 514.048L290.059 513.362C289.611 513.852 288.631 514.23 287.777 514.23ZM287.735 508.532C289.177 508.532 289.947 509.54 290.087 510.842H285.215C285.411 509.442 286.447 508.532 287.735 508.532ZM295.235 515H296.243L299.281 507.762H298.105L295.739 513.768L293.331 507.762H292.155L295.235 515ZM303.5 514.23C302.072 514.23 301.078 513.194 300.924 511.78H306.846C306.846 509.246 305.6 507.594 303.416 507.594C301.47 507.594 299.846 509.204 299.846 511.36C299.846 513.586 301.582 515.168 303.514 515.168C304.522 515.168 305.796 514.734 306.426 514.048L305.782 513.362C305.334 513.852 304.354 514.23 303.5 514.23ZM303.458 508.532C304.9 508.532 305.67 509.54 305.81 510.842H300.938C301.134 509.442 302.17 508.532 303.458 508.532ZM309.292 515.168C309.698 515.168 310.034 514.818 310.034 514.398C310.034 514.006 309.698 513.656 309.292 513.656C308.858 513.656 308.522 514.006 308.522 514.398C308.522 514.818 308.858 515.168 309.292 515.168ZM86.1824 536.168C88.8564 536.168 91.0964 533.886 91.0964 531.184C91.0964 528.482 88.8564 526.214 86.1824 526.214C83.5224 526.214 81.2544 528.482 81.2544 531.184C81.2544 533.886 83.5224 536.168 86.1824 536.168ZM86.1824 535.16C84.1104 535.16 82.3604 533.34 82.3604 531.184C82.3604 529.042 84.1104 527.222 86.1824 527.222C88.2544 527.222 89.9904 529.042 89.9904 531.184C89.9904 533.34 88.2544 535.16 86.1824 535.16ZM96.6633 528.594C95.5013 528.594 94.5773 529.168 94.0313 530.12V526.214H92.9813V536H94.0313V534.642C94.5773 535.594 95.5013 536.168 96.6633 536.168C98.5673 536.168 99.9953 534.6 99.9953 532.374C99.9953 530.162 98.5673 528.594 96.6633 528.594ZM96.4673 535.23C95.0393 535.23 94.0313 534.04 94.0313 532.374C94.0313 530.708 95.0393 529.532 96.4673 529.532C97.8813 529.532 98.8893 530.708 98.8893 532.374C98.8893 534.04 97.8813 535.23 96.4673 535.23ZM102.959 530.176V528.762H101.909V536H102.959V531.954C102.959 530.54 104.121 529.532 105.759 529.532V528.594C104.429 528.594 103.393 529.21 102.959 530.176ZM107.729 527.446C108.107 527.446 108.415 527.124 108.415 526.746C108.415 526.382 108.107 526.06 107.729 526.06C107.337 526.06 107.029 526.382 107.029 526.746C107.029 527.124 107.337 527.446 107.729 527.446ZM107.197 536H108.247V528.762H107.197V536ZM115.984 528.762V530.008C115.424 529.126 114.5 528.594 113.352 528.594C111.406 528.594 110.02 530.008 110.02 532.024C110.02 534.04 111.406 535.468 113.352 535.468C114.5 535.468 115.424 534.936 115.984 534.054V535.23C115.984 536.644 115.004 537.47 113.338 537.47C112.442 537.47 111.574 537.148 111.014 536.616L110.552 537.442C111.21 538.002 112.302 538.408 113.478 538.408C115.564 538.408 117.034 537.092 117.034 535.23V528.762H115.984ZM113.548 534.53C112.134 534.53 111.126 533.494 111.126 532.024C111.126 530.568 112.134 529.532 113.548 529.532C114.976 529.532 115.984 530.568 115.984 532.024C115.984 533.494 114.976 534.53 113.548 534.53ZM122.196 528.594C121.496 528.594 120.628 528.776 119.592 529.294L120.012 530.148C120.67 529.812 121.398 529.49 122.126 529.49C123.694 529.49 124.086 530.61 124.086 531.59V531.856C123.344 531.618 122.518 531.45 121.734 531.45C120.18 531.45 118.892 532.416 118.892 533.858C118.892 535.286 120.012 536.168 121.538 536.168C122.49 536.168 123.568 535.72 124.086 534.866V536H125.136V531.59C125.136 529.84 124.17 528.594 122.196 528.594ZM121.72 535.244C120.698 535.244 119.914 534.712 119.914 533.816C119.914 532.948 120.824 532.332 121.902 532.332C122.686 532.332 123.428 532.444 124.086 532.626V533.732C123.806 534.754 122.672 535.244 121.72 535.244ZM132.938 526.214V530.12C132.392 529.168 131.468 528.594 130.306 528.594C128.402 528.594 126.974 530.162 126.974 532.374C126.974 534.6 128.402 536.168 130.306 536.168C131.468 536.168 132.392 535.594 132.938 534.642V536H133.988V526.214H132.938ZM130.502 535.23C129.088 535.23 128.08 534.04 128.08 532.374C128.08 530.708 129.088 529.532 130.502 529.532C131.93 529.532 132.938 530.708 132.938 532.374C132.938 534.04 131.93 535.23 130.502 535.23ZM139.57 536.168C141.6 536.168 143.308 534.432 143.308 532.374C143.308 530.316 141.6 528.594 139.57 528.594C137.54 528.594 135.818 530.316 135.818 532.374C135.818 534.432 137.54 536.168 139.57 536.168ZM139.57 535.23C138.128 535.23 136.924 533.928 136.924 532.374C136.924 530.834 138.128 529.532 139.57 529.532C140.998 529.532 142.202 530.834 142.202 532.374C142.202 533.928 140.998 535.23 139.57 535.23ZM152.882 528.594C151.72 528.594 150.796 529.168 150.25 530.12V528.762H149.2V538.408H150.25V534.642C150.796 535.594 151.72 536.168 152.882 536.168C154.786 536.168 156.214 534.6 156.214 532.374C156.214 530.162 154.786 528.594 152.882 528.594ZM152.686 535.23C151.258 535.23 150.25 534.04 150.25 532.374C150.25 530.708 151.258 529.532 152.686 529.532C154.1 529.532 155.108 530.708 155.108 532.374C155.108 534.04 154.1 535.23 152.686 535.23ZM161.39 536.168C163.42 536.168 165.128 534.432 165.128 532.374C165.128 530.316 163.42 528.594 161.39 528.594C159.36 528.594 157.638 530.316 157.638 532.374C157.638 534.432 159.36 536.168 161.39 536.168ZM161.39 535.23C159.948 535.23 158.744 533.928 158.744 532.374C158.744 530.834 159.948 529.532 161.39 529.532C162.818 529.532 164.022 530.834 164.022 532.374C164.022 533.928 162.818 535.23 161.39 535.23ZM168.01 530.176V528.762H166.96V536H168.01V531.954C168.01 530.54 169.172 529.532 170.81 529.532V528.594C169.48 528.594 168.444 529.21 168.01 530.176ZM181.419 528.762V533.368C181.419 534.376 180.397 535.23 179.179 535.23C178.115 535.23 177.373 534.404 177.373 533.228V528.762H176.323V533.368C176.323 535.006 177.443 536.168 179.039 536.168C180.061 536.168 180.999 535.608 181.419 534.838V536H182.469V528.762H181.419ZM187.786 534.936C187.632 535.104 187.352 535.23 187.03 535.23C186.61 535.23 186.246 534.852 186.246 534.32V529.7H188.024V528.762H186.246V526.774H185.196V528.762H184.062V529.7H185.196V534.32C185.196 535.398 185.924 536.168 186.96 536.168C187.45 536.168 187.926 536 188.304 535.706L187.786 534.936ZM190.308 527.446C190.686 527.446 190.994 527.124 190.994 526.746C190.994 526.382 190.686 526.06 190.308 526.06C189.916 526.06 189.608 526.382 189.608 526.746C189.608 527.124 189.916 527.446 190.308 527.446ZM189.776 536H190.826V528.762H189.776V536ZM192.934 536H193.984V526.214H192.934V536ZM196.624 527.446C197.002 527.446 197.31 527.124 197.31 526.746C197.31 526.382 197.002 526.06 196.624 526.06C196.232 526.06 195.924 526.382 195.924 526.746C195.924 527.124 196.232 527.446 196.624 527.446ZM196.092 536H197.142V528.762H196.092V536ZM198.943 536H204.655V535.006H200.343L204.627 529.588V528.762H199.027V529.756H203.213L198.943 535.174V536ZM209.382 528.594C208.682 528.594 207.814 528.776 206.778 529.294L207.198 530.148C207.856 529.812 208.584 529.49 209.312 529.49C210.88 529.49 211.272 530.61 211.272 531.59V531.856C210.53 531.618 209.704 531.45 208.92 531.45C207.366 531.45 206.078 532.416 206.078 533.858C206.078 535.286 207.198 536.168 208.724 536.168C209.676 536.168 210.754 535.72 211.272 534.866V536H212.322V531.59C212.322 529.84 211.356 528.594 209.382 528.594ZM208.906 535.244C207.884 535.244 207.1 534.712 207.1 533.816C207.1 532.948 208.01 532.332 209.088 532.332C209.872 532.332 210.614 532.444 211.272 532.626V533.732C210.992 534.754 209.858 535.244 208.906 535.244ZM215.615 530.176V528.762H214.565V536H215.615V531.954C215.615 530.54 216.777 529.532 218.415 529.532V528.594C217.085 528.594 216.049 529.21 215.615 530.176ZM227.372 528.594C226.35 528.594 225.412 529.154 224.992 529.924V528.762H223.942V536H224.992V531.394C224.992 530.386 226.014 529.532 227.232 529.532C228.296 529.532 229.038 530.358 229.038 531.534V536H230.088V531.394C230.088 529.756 228.968 528.594 227.372 528.594ZM235.573 536.168C237.603 536.168 239.311 534.432 239.311 532.374C239.311 530.316 237.603 528.594 235.573 528.594C233.543 528.594 231.821 530.316 231.821 532.374C231.821 534.432 233.543 536.168 235.573 536.168ZM235.573 535.23C234.131 535.23 232.927 533.928 232.927 532.374C232.927 530.834 234.131 529.532 235.573 529.532C237.001 529.532 238.205 530.834 238.205 532.374C238.205 533.928 237.001 535.23 235.573 535.23ZM243.607 536.168C245.105 536.168 246.253 535.314 246.253 533.984C246.253 532.612 245.049 532.22 243.887 531.856C242.543 531.422 242.011 531.226 242.011 530.596C242.011 529.896 242.683 529.532 243.495 529.532C244.139 529.532 244.853 529.756 245.581 530.218L246.085 529.406C245.315 528.902 244.391 528.594 243.495 528.594C242.053 528.594 240.961 529.406 240.961 530.722C240.961 531.758 241.633 532.276 243.383 532.78C244.363 533.06 245.203 533.312 245.203 534.096C245.203 534.782 244.559 535.23 243.607 535.23C242.809 535.23 241.983 534.922 241.157 534.32L240.611 535.09C241.479 535.79 242.599 536.168 243.607 536.168ZM250.553 536.168C252.051 536.168 253.199 535.314 253.199 533.984C253.199 532.612 251.995 532.22 250.833 531.856C249.489 531.422 248.957 531.226 248.957 530.596C248.957 529.896 249.629 529.532 250.441 529.532C251.085 529.532 251.799 529.756 252.527 530.218L253.031 529.406C252.261 528.902 251.337 528.594 250.441 528.594C248.999 528.594 247.907 529.406 247.907 530.722C247.907 531.758 248.579 532.276 250.329 532.78C251.309 533.06 252.149 533.312 252.149 534.096C252.149 534.782 251.505 535.23 250.553 535.23C249.755 535.23 248.929 534.922 248.103 534.32L247.557 535.09C248.425 535.79 249.545 536.168 250.553 536.168ZM258.296 536.168C260.326 536.168 262.034 534.432 262.034 532.374C262.034 530.316 260.326 528.594 258.296 528.594C256.266 528.594 254.544 530.316 254.544 532.374C254.544 534.432 256.266 536.168 258.296 536.168ZM258.296 535.23C256.854 535.23 255.65 533.928 255.65 532.374C255.65 530.834 256.854 529.532 258.296 529.532C259.724 529.532 260.928 530.834 260.928 532.374C260.928 533.928 259.724 535.23 258.296 535.23ZM270.769 528.594C270.069 528.594 269.201 528.776 268.165 529.294L268.585 530.148C269.243 529.812 269.971 529.49 270.699 529.49C272.267 529.49 272.659 530.61 272.659 531.59V531.856C271.917 531.618 271.091 531.45 270.307 531.45C268.753 531.45 267.465 532.416 267.465 533.858C267.465 535.286 268.585 536.168 270.111 536.168C271.063 536.168 272.141 535.72 272.659 534.866V536H273.709V531.59C273.709 529.84 272.743 528.594 270.769 528.594ZM270.293 535.244C269.271 535.244 268.487 534.712 268.487 533.816C268.487 532.948 269.397 532.332 270.475 532.332C271.259 532.332 272.001 532.444 272.659 532.626V533.732C272.379 534.754 271.245 535.244 270.293 535.244ZM279.634 528.594C278.472 528.594 277.548 529.168 277.002 530.12V528.762H275.952V538.408H277.002V534.642C277.548 535.594 278.472 536.168 279.634 536.168C281.538 536.168 282.966 534.6 282.966 532.374C282.966 530.162 281.538 528.594 279.634 528.594ZM279.438 535.23C278.01 535.23 277.002 534.04 277.002 532.374C277.002 530.708 278.01 529.532 279.438 529.532C280.852 529.532 281.86 530.708 281.86 532.374C281.86 534.04 280.852 535.23 279.438 535.23ZM288.562 528.594C287.4 528.594 286.476 529.168 285.93 530.12V528.762H284.88V538.408H285.93V534.642C286.476 535.594 287.4 536.168 288.562 536.168C290.466 536.168 291.894 534.6 291.894 532.374C291.894 530.162 290.466 528.594 288.562 528.594ZM288.366 535.23C286.938 535.23 285.93 534.04 285.93 532.374C285.93 530.708 286.938 529.532 288.366 529.532C289.78 529.532 290.788 530.708 290.788 532.374C290.788 534.04 289.78 535.23 288.366 535.23ZM294.214 533.298H294.956L295.236 526.382H293.948L294.214 533.298ZM294.578 536.168C294.984 536.168 295.32 535.818 295.32 535.398C295.32 535.006 294.984 534.656 294.578 534.656C294.144 534.656 293.808 535.006 293.808 535.398C293.808 535.818 294.144 536.168 294.578 536.168Z" fill="black"/>
<path d="M159.368 261.084L157.515 261.002C157.625 258.475 158.735 236.188 163.613 232.123C163.923 231.846 164.288 231.639 164.685 231.515C165.081 231.39 165.499 231.352 165.912 231.403C168.816 231.808 171.987 236.416 175.607 245.491C178.184 251.952 180.042 258.395 180.06 258.459L178.278 258.971C178.259 258.908 176.423 252.543 173.88 246.167C169.387 234.909 166.632 233.378 165.656 233.242C165.5 233.225 165.341 233.244 165.193 233.297C165.045 233.35 164.91 233.437 164.8 233.549C161.201 236.549 159.659 254.442 159.368 261.084Z" fill="black"/>
<path d="M142.996 249.059L141.141 295.609L202.349 289.011L194.783 244.068L142.996 249.059Z" fill="#FFBA49"/>
<path d="M194.783 244.068L190.28 244.502L196.272 283.913L141.356 290.236L141.141 295.609L202.349 289.011L194.783 244.068Z" fill="#FFA113"/>
<path d="M227.85 324.113L225.304 323.83C225.326 323.63 227.44 303.717 220.585 296.27C219.779 295.364 218.779 294.653 217.66 294.189C216.54 293.725 215.33 293.52 214.121 293.591C199.189 294.015 192.168 319.658 192.099 319.917L189.625 319.255C191.004 314.466 192.919 309.849 195.335 305.491C200.537 296.23 207.008 291.229 214.048 291.029C215.624 290.948 217.198 291.221 218.656 291.827C220.113 292.434 221.416 293.359 222.47 294.535C230.113 302.841 227.946 323.248 227.85 324.113Z" fill="#FFBA49"/>
<path d="M182.428 305.85L236.458 312.263L235.62 397.997L163.497 389.401L182.428 305.85Z" fill="#DB3022"/>
<path d="M236.458 312.263L231.107 311.627L228.501 390.955L164.513 384.918L163.497 389.401L235.62 397.997L236.458 312.263Z" fill="#D10505"/>
<path d="M249.999 339.509C252.46 340.025 254.804 338.057 255.235 335.109C255.694 335.893 256.153 336.678 256.612 337.464C256.181 340.411 253.835 342.38 251.378 341.864C250.919 341.078 250.459 340.293 249.999 339.509Z" fill="#FFBA49"/>
<path d="M177.332 402.563C179.793 403.079 182.137 401.11 182.568 398.163C183.027 398.947 183.486 399.731 183.945 400.517C183.515 403.464 181.169 405.434 178.711 404.918C178.252 404.132 177.792 403.347 177.332 402.563Z" fill="#9B9B9B"/>
<path d="M255.494 290.169C256.526 292.893 259.205 294.103 261.481 292.867C261.199 293.765 260.917 294.662 260.634 295.559C258.358 296.793 255.679 295.584 254.648 292.859C254.932 291.963 255.214 291.067 255.494 290.169Z" fill="#FF5C00"/>
<path d="M239.571 270.82C239.987 267.869 238.327 265.074 235.864 264.577C236.515 264.021 237.167 263.465 237.82 262.91C240.282 263.407 241.942 266.202 241.528 269.152C240.876 269.708 240.224 270.264 239.571 270.82Z" fill="#021193"/>
<path d="M91.7077 258.91C92.123 255.959 90.4636 253.165 88 252.668C88.6515 252.112 89.3035 251.556 89.9563 251C92.418 251.497 94.0783 254.292 93.664 257.242C93.0125 257.798 92.3604 258.354 91.7077 258.91Z" fill="#FF5C00"/>
<path d="M142.094 363.475C142.51 360.523 140.85 357.729 138.387 357.232C139.038 356.676 139.69 356.12 140.343 355.564C142.805 356.061 144.465 358.857 144.051 361.807C143.399 362.363 142.747 362.919 142.094 363.475Z" fill="#FF5C00"/>
<path d="M271.332 252.889C273.776 253.506 276.174 251.633 276.688 248.703C277.126 249.506 277.563 250.309 278 251.113C277.486 254.039 275.087 255.914 272.644 255.299C272.206 254.496 271.769 253.693 271.332 252.889Z" fill="#FFBA49"/>
<path d="M75.8208 289.141C74.9447 286.338 72.3393 284.917 70 285.968C70.3309 285.097 70.6623 284.224 70.9942 283.35C73.3316 282.301 75.9384 283.721 76.815 286.522C76.4841 287.395 76.1527 288.268 75.8208 289.141Z" fill="#FFBA49"/>
<path d="M136.534 323.28C136.707 326.264 138.867 328.516 141.358 328.308C140.832 329.033 140.306 329.754 139.782 330.479C137.29 330.685 135.131 328.432 134.958 325.447C135.483 324.726 136.009 324.003 136.534 323.28Z" fill="#DB3022"/>
<path d="M118.929 269.053C121.403 268.642 123.129 265.905 122.785 262.941C123.424 263.52 124.062 264.098 124.7 264.675C125.043 267.64 123.317 270.376 120.843 270.789C120.206 270.21 119.568 269.631 118.929 269.053Z" fill="#021193"/>
<path d="M219.812 232.706C216.604 232.812 218.91 238.465 215.701 238.573C215.088 237.957 214.476 237.34 213.862 236.724C217.071 236.617 214.765 230.964 217.973 230.856C218.587 231.472 219.199 232.089 219.812 232.706Z" fill="#FF5C00"/>
<path d="M225.642 381.278C222.519 380.392 223.531 386.565 220.407 385.68C219.947 384.895 219.488 384.11 219.029 383.325C222.152 384.211 221.139 378.038 224.264 378.924C224.723 379.709 225.182 380.494 225.642 381.278Z" fill="#FFBA49"/>
<path d="M132.781 389.315C130.575 392.11 135.542 394.157 133.336 396.949C132.54 397.031 131.742 397.116 130.946 397.197C133.151 394.404 128.184 392.359 130.39 389.565C131.187 389.483 131.984 389.4 132.781 389.315Z" fill="#021193"/>
<path d="M204.225 196.355C201.085 197.154 204.202 202.219 201.063 203.016C200.369 202.541 199.671 202.068 198.977 201.592C202.116 200.795 198.998 195.732 202.138 194.933C202.834 195.409 203.53 195.883 204.225 196.355Z" fill="#DB3022"/>
<path d="M103.444 213.004C104.988 216.376 108.137 211.339 109.679 214.71C109.5 215.644 109.323 216.58 109.143 217.514C107.601 214.142 104.454 219.18 102.909 215.808C103.089 214.872 103.267 213.937 103.444 213.004Z" fill="#9B9B9B"/>
<path d="M76.8151 345.583C77.2294 345.508 77.6042 345.29 77.8742 344.966C78.1441 344.643 78.292 344.235 78.292 343.814C78.292 343.392 78.1441 342.984 77.8742 342.661C77.6042 342.337 77.2294 342.119 76.8151 342.044" fill="black"/>
<path d="M244.448 208.866C243.098 208.866 242 207.55 242 205.933C242 204.316 243.098 203 244.448 203C245.798 203 246.896 204.316 246.896 205.933C246.896 207.55 245.798 208.866 244.448 208.866ZM244.448 204.163C244.019 204.206 243.624 204.415 243.348 204.746C243.072 205.077 242.936 205.503 242.971 205.933C242.932 206.149 242.941 206.372 242.997 206.584C243.053 206.797 243.155 206.995 243.296 207.163C243.437 207.332 243.613 207.468 243.812 207.561C244.011 207.654 244.228 207.702 244.448 207.702C244.668 207.702 244.885 207.654 245.084 207.561C245.283 207.468 245.459 207.332 245.6 207.163C245.741 206.995 245.843 206.797 245.899 206.584C245.955 206.372 245.964 206.149 245.925 205.933C245.959 205.503 245.824 205.077 245.548 204.746C245.272 204.415 244.877 204.206 244.448 204.163Z" fill="black"/>
<path d="M101.947 319.983C100.598 319.983 99.4995 318.668 99.4995 317.05C99.4995 315.433 100.598 314.117 101.947 314.117C103.297 314.117 104.395 315.433 104.395 317.05C104.395 318.668 103.297 319.983 101.947 319.983ZM101.947 315.281C101.533 315.356 101.158 315.574 100.888 315.898C100.618 316.221 100.47 316.629 100.47 317.05C100.47 317.472 100.618 317.88 100.888 318.203C101.158 318.526 101.533 318.745 101.947 318.82C102.362 318.745 102.737 318.526 103.006 318.203C103.276 317.88 103.424 317.472 103.424 317.05C103.424 316.629 103.276 316.221 103.006 315.898C102.737 315.574 102.362 315.356 101.947 315.281Z" fill="black"/>
<path d="M286.821 349.137C285.945 346.334 283.339 344.913 281 345.963C281.331 345.092 281.662 344.22 281.994 343.346C284.332 342.296 286.938 343.716 287.815 346.518C287.484 347.39 287.153 348.263 286.821 349.137Z" fill="black"/>
<g filter="url(#filter0_d)">
<rect x="18" y="705" width="343" height="48" rx="24" fill="#DB3022"/>
</g>
<path d="M101.993 733.168C103.365 733.168 104.625 732.58 105.535 731.656L104.541 730.704C103.897 731.404 102.987 731.866 101.993 731.866C100.075 731.866 98.4512 730.186 98.4512 728.184C98.4512 726.196 100.075 724.516 101.993 724.516C102.987 724.516 103.897 724.978 104.541 725.678L105.535 724.726C104.625 723.788 103.365 723.214 101.993 723.214C99.2912 723.214 96.9952 725.482 96.9952 728.184C96.9952 730.886 99.2912 733.168 101.993 733.168ZM111.372 733.168C114.074 733.168 116.342 730.886 116.342 728.184C116.342 725.482 114.074 723.214 111.372 723.214C108.67 723.214 106.374 725.482 106.374 728.184C106.374 730.886 108.67 733.168 111.372 733.168ZM111.372 731.866C109.454 731.866 107.83 730.186 107.83 728.184C107.83 726.196 109.454 724.516 111.372 724.516C113.29 724.516 114.9 726.196 114.9 728.184C114.9 730.186 113.29 731.866 111.372 731.866ZM118.24 733H119.654V725.706L125.184 733H126.598V723.382H125.184V730.676L119.654 723.382H118.24V733ZM131.547 733H132.961V724.698H136.125V723.382H128.397V724.698H131.547V733ZM137.747 733H139.161V723.382H137.747V733ZM141.442 733H142.856V725.706L148.386 733H149.8V723.382H148.386V730.676L142.856 723.382H141.442V733ZM156.274 733.168C158.682 733.168 160.404 731.418 160.404 728.954V723.382H158.976V728.926C158.976 730.648 157.856 731.88 156.274 731.88C154.678 731.88 153.558 730.648 153.558 728.926V723.382H152.144V728.954C152.144 731.418 153.852 733.168 156.274 733.168ZM170.135 733H171.703L167.573 723.382H166.005L161.875 733H163.443L164.283 731.04H169.295L170.135 733ZM164.829 729.766L166.789 725.202L168.749 729.766H164.829ZM180.731 726.518C180.731 724.684 179.191 723.382 177.161 723.382H173.115V733H174.529V729.654H176.741L179.093 733H180.717L178.267 729.514C179.723 729.136 180.731 728.002 180.731 726.518ZM174.529 724.698H176.965C178.351 724.698 179.289 725.384 179.289 726.518C179.289 727.652 178.351 728.338 176.965 728.338H174.529V724.698ZM190.97 733.168C192.342 733.168 193.602 732.58 194.512 731.656L193.518 730.704C192.874 731.404 191.964 731.866 190.97 731.866C189.052 731.866 187.428 730.186 187.428 728.184C187.428 726.196 189.052 724.516 190.97 724.516C191.964 724.516 192.874 724.978 193.518 725.678L194.512 724.726C193.602 723.788 192.342 723.214 190.97 723.214C188.268 723.214 185.972 725.482 185.972 728.184C185.972 730.886 188.268 733.168 190.97 733.168ZM200.349 733.168C203.051 733.168 205.319 730.886 205.319 728.184C205.319 725.482 203.051 723.214 200.349 723.214C197.647 723.214 195.351 725.482 195.351 728.184C195.351 730.886 197.647 733.168 200.349 733.168ZM200.349 731.866C198.431 731.866 196.807 730.186 196.807 728.184C196.807 726.196 198.431 724.516 200.349 724.516C202.267 724.516 203.877 726.196 203.877 728.184C203.877 730.186 202.267 731.866 200.349 731.866ZM207.217 733H208.631V726.154L212.005 732.44L215.379 726.154V733H216.793V723.382H215.379L212.005 729.668L208.631 723.382H207.217V733ZM219.067 733H220.481V729.654H223.113C225.143 729.654 226.683 728.352 226.683 726.518C226.683 724.684 225.143 723.382 223.113 723.382H219.067V733ZM220.481 728.338V724.698H222.917C224.303 724.698 225.241 725.384 225.241 726.518C225.241 727.652 224.303 728.338 222.917 728.338H220.481ZM235.774 726.518C235.774 724.684 234.234 723.382 232.204 723.382H228.158V733H229.572V729.654H231.784L234.136 733H235.76L233.31 729.514C234.766 729.136 235.774 728.002 235.774 726.518ZM229.572 724.698H232.008C233.394 724.698 234.332 725.384 234.332 726.518C234.332 727.652 233.394 728.338 232.008 728.338H229.572V724.698ZM244.961 733H246.529L242.399 723.382H240.831L236.701 733H238.269L239.109 731.04H244.121L244.961 733ZM239.655 729.766L241.615 725.202L243.575 729.766H239.655ZM248.11 733H249.524V725.706L255.054 733H256.468V723.382H255.054V730.676L249.524 723.382H248.11V733ZM258.91 733H262.228C265.336 733 267.548 730.998 267.548 728.184C267.548 725.37 265.336 723.382 262.228 723.382H258.91V733ZM260.324 731.712V724.67H262.312C264.538 724.67 266.092 726.126 266.092 728.184C266.092 730.256 264.538 731.712 262.312 731.712H260.324ZM274.026 733.168C276.728 733.168 278.996 730.886 278.996 728.184C278.996 725.482 276.728 723.214 274.026 723.214C271.324 723.214 269.028 725.482 269.028 728.184C269.028 730.886 271.324 733.168 274.026 733.168ZM274.026 731.866C272.108 731.866 270.484 730.186 270.484 728.184C270.484 726.196 272.108 724.516 274.026 724.516C275.944 724.516 277.554 726.196 277.554 728.184C277.554 730.186 275.944 731.866 274.026 731.866Z" fill="white"/>
<path fill-rule="evenodd" clip-rule="evenodd" d="M121 800.5C121 799.119 122.119 798 123.5 798H252.5C253.881 798 255 799.119 255 800.5C255 801.881 253.881 803 252.5 803H123.5C122.119 803 121 801.881 121 800.5Z" fill="black"/>
<defs>
<filter id="filter0_d" x="10" y="701" width="359" height="64" filterUnits="userSpaceOnUse" color-interpolation-filters="sRGB">
<feFlood flood-opacity="0" result="BackgroundImageFix"/>
<feColorMatrix in="SourceAlpha" type="matrix" values="0 0 0 0 0 0 0 0 0 0 0 0 0 0 0 0 0 0 127 0"/>
<feOffset dy="4"/>
<feGaussianBlur stdDeviation="4"/>
<feColorMatrix type="matrix" values="0 0 0 0 0.829167 0 0 0 0 0.148559 0 0 0 0 0.148559 0 0 0 0.25 0"/>
<feBlend mode="normal" in2="BackgroundImageFix" result="effect1_dropShadow"/>
<feBlend mode="normal" in="SourceGraphic" in2="effect1_dropShadow" result="shape"/>
</filter>
</defs>
</svg>
