<svg width="245" height="35" viewBox="0 0 245 35" fill="none" xmlns="http://www.w3.org/2000/svg">
<path d="M4.39698 11.154C6.63698 11.154 7.78498 9.908 7.78498 8.382C7.78498 6.688 6.46898 6.03 4.63498 5.596C2.99698 5.204 2.04498 4.854 2.04498 3.86C2.04498 2.978 2.91298 2.194 4.10298 2.194C5.11098 2.194 6.06298 2.656 6.86098 3.426L7.53298 2.572C6.65098 1.76 5.58698 1.2 4.15898 1.2C2.31098 1.2 0.938984 2.404 0.938984 3.944C0.938984 5.61 2.15698 6.212 4.08898 6.66C5.76898 7.052 6.67898 7.458 6.67898 8.48C6.67898 9.348 5.92298 10.16 4.43898 10.16C3.09498 10.16 2.10098 9.586 1.28898 8.774L0.602984 9.628C1.56898 10.58 2.81498 11.154 4.39698 11.154ZM12.8709 10.23C11.4429 10.23 10.4489 9.194 10.2949 7.78H16.2169C16.2169 5.246 14.9709 3.594 12.7869 3.594C10.8409 3.594 9.21692 5.204 9.21692 7.36C9.21692 9.586 10.9529 11.168 12.8849 11.168C13.8929 11.168 15.1669 10.734 15.7969 10.048L15.1529 9.362C14.7049 9.852 13.7249 10.23 12.8709 10.23ZM12.8289 4.532C14.2709 4.532 15.0409 5.54 15.1809 6.842H10.3089C10.5049 5.442 11.5409 4.532 12.8289 4.532ZM23.0311 3.762V8.368C23.0311 9.376 22.0091 10.23 20.7911 10.23C19.7271 10.23 18.9851 9.404 18.9851 8.228V3.762H17.9351V8.368C17.9351 10.006 19.0551 11.168 20.6511 11.168C21.6731 11.168 22.6111 10.608 23.0311 9.838V11H24.0811V3.762H23.0311ZM34.0608 3.594C32.8988 3.594 31.9748 4.168 31.4288 5.12V3.762H30.3788V13.408H31.4288V9.642C31.9748 10.594 32.8988 11.168 34.0608 11.168C35.9648 11.168 37.3928 9.6 37.3928 7.374C37.3928 5.162 35.9648 3.594 34.0608 3.594ZM33.8648 10.23C32.4368 10.23 31.4288 9.04 31.4288 7.374C31.4288 5.708 32.4368 4.532 33.8648 4.532C35.2788 4.532 36.2868 5.708 36.2868 7.374C36.2868 9.04 35.2788 10.23 33.8648 10.23ZM42.4705 10.23C41.0425 10.23 40.0485 9.194 39.8945 7.78H45.8165C45.8165 5.246 44.5705 3.594 42.3865 3.594C40.4405 3.594 38.8165 5.204 38.8165 7.36C38.8165 9.586 40.5525 11.168 42.4845 11.168C43.4925 11.168 44.7665 10.734 45.3965 10.048L44.7525 9.362C44.3045 9.852 43.3245 10.23 42.4705 10.23ZM42.4285 4.532C43.8705 4.532 44.6405 5.54 44.7805 6.842H39.9085C40.1045 5.442 41.1405 4.532 42.4285 4.532ZM53.1907 1.214V5.12C52.6447 4.168 51.7207 3.594 50.5587 3.594C48.6547 3.594 47.2267 5.162 47.2267 7.374C47.2267 9.6 48.6547 11.168 50.5587 11.168C51.7207 11.168 52.6447 10.594 53.1907 9.642V11H54.2407V1.214H53.1907ZM50.7547 10.23C49.3407 10.23 48.3327 9.04 48.3327 7.374C48.3327 5.708 49.3407 4.532 50.7547 4.532C52.1827 4.532 53.1907 5.708 53.1907 7.374C53.1907 9.04 52.1827 10.23 50.7547 10.23ZM56.9804 2.446C57.3584 2.446 57.6664 2.124 57.6664 1.746C57.6664 1.382 57.3584 1.06 56.9804 1.06C56.5884 1.06 56.2804 1.382 56.2804 1.746C56.2804 2.124 56.5884 2.446 56.9804 2.446ZM56.4484 11H57.4984V3.762H56.4484V11ZM65.263 1.214V5.12C64.717 4.168 63.793 3.594 62.631 3.594C60.727 3.594 59.299 5.162 59.299 7.374C59.299 9.6 60.727 11.168 62.631 11.168C63.793 11.168 64.717 10.594 65.263 9.642V11H66.313V1.214H65.263ZM62.827 10.23C61.413 10.23 60.405 9.04 60.405 7.374C60.405 5.708 61.413 4.532 62.827 4.532C64.255 4.532 65.263 5.708 65.263 7.374C65.263 9.04 64.255 10.23 62.827 10.23ZM71.8947 11.168C73.9247 11.168 75.6327 9.432 75.6327 7.374C75.6327 5.316 73.9247 3.594 71.8947 3.594C69.8647 3.594 68.1427 5.316 68.1427 7.374C68.1427 9.432 69.8647 11.168 71.8947 11.168ZM71.8947 10.23C70.4527 10.23 69.2487 8.928 69.2487 7.374C69.2487 5.834 70.4527 4.532 71.8947 4.532C73.3227 4.532 74.5267 5.834 74.5267 7.374C74.5267 8.928 73.3227 10.23 71.8947 10.23ZM83.9893 11.168C85.4873 11.168 86.6353 10.314 86.6353 8.984C86.6353 7.612 85.4313 7.22 84.2693 6.856C82.9253 6.422 82.3933 6.226 82.3933 5.596C82.3933 4.896 83.0653 4.532 83.8773 4.532C84.5213 4.532 85.2353 4.756 85.9633 5.218L86.4673 4.406C85.6973 3.902 84.7733 3.594 83.8773 3.594C82.4353 3.594 81.3433 4.406 81.3433 5.722C81.3433 6.758 82.0153 7.276 83.7653 7.78C84.7453 8.06 85.5853 8.312 85.5853 9.096C85.5853 9.782 84.9413 10.23 83.9893 10.23C83.1913 10.23 82.3653 9.922 81.5393 9.32L80.9933 10.09C81.8613 10.79 82.9813 11.168 83.9893 11.168ZM91.6346 10.23C90.2066 10.23 89.2126 9.194 89.0586 7.78H94.9806C94.9806 5.246 93.7346 3.594 91.5506 3.594C89.6046 3.594 87.9806 5.204 87.9806 7.36C87.9806 9.586 89.7166 11.168 91.6486 11.168C92.6566 11.168 93.9306 10.734 94.5606 10.048L93.9166 9.362C93.4686 9.852 92.4886 10.23 91.6346 10.23ZM91.5926 4.532C93.0346 4.532 93.8046 5.54 93.9446 6.842H89.0726C89.2686 5.442 90.3046 4.532 91.5926 4.532ZM97.8468 5.176V3.762H96.7968V11H97.8468V6.954C97.8468 5.54 99.0088 4.532 100.647 4.532V3.594C99.3168 3.594 98.2808 4.21 97.8468 5.176ZM106.817 1.172L105.711 0.92L104.017 2.936H104.829L106.817 1.172ZM105.039 3.594C104.339 3.594 103.471 3.776 102.435 4.294L102.855 5.148C103.513 4.812 104.241 4.49 104.969 4.49C106.537 4.49 106.929 5.61 106.929 6.59V6.856C106.187 6.618 105.361 6.45 104.577 6.45C103.023 6.45 101.735 7.416 101.735 8.858C101.735 10.286 102.855 11.168 104.381 11.168C105.333 11.168 106.411 10.72 106.929 9.866V11H107.979V6.59C107.979 4.84 107.013 3.594 105.039 3.594ZM104.563 10.244C103.541 10.244 102.757 9.712 102.757 8.816C102.757 7.948 103.667 7.332 104.745 7.332C105.529 7.332 106.271 7.444 106.929 7.626V8.732C106.649 9.754 105.515 10.244 104.563 10.244ZM117.447 10.23C116.019 10.23 115.025 9.194 114.871 7.78H120.793C120.793 5.246 119.547 3.594 117.363 3.594C115.417 3.594 113.793 5.204 113.793 7.36C113.793 9.586 115.529 11.168 117.461 11.168C118.469 11.168 119.743 10.734 120.373 10.048L119.729 9.362C119.281 9.852 118.301 10.23 117.447 10.23ZM117.405 4.532C118.847 4.532 119.617 5.54 119.757 6.842H114.885C115.081 5.442 116.117 4.532 117.405 4.532ZM125.955 3.594C124.933 3.594 123.995 4.154 123.575 4.924V3.762H122.525V11H123.575V6.394C123.575 5.386 124.597 4.532 125.815 4.532C126.879 4.532 127.621 5.358 127.621 6.534V11H128.671V6.394C128.671 4.756 127.551 3.594 125.955 3.594ZM133.974 9.936C133.82 10.104 133.54 10.23 133.218 10.23C132.798 10.23 132.434 9.852 132.434 9.32V4.7H134.212V3.762H132.434V1.774H131.384V3.762H130.25V4.7H131.384V9.32C131.384 10.398 132.112 11.168 133.148 11.168C133.638 11.168 134.114 11 134.492 10.706L133.974 9.936ZM137.126 5.176V3.762H136.076V11H137.126V6.954C137.126 5.54 138.288 4.532 139.926 4.532V3.594C138.596 3.594 137.56 4.21 137.126 5.176ZM144.64 10.23C143.212 10.23 142.218 9.194 142.064 7.78H147.986C147.986 5.246 146.74 3.594 144.556 3.594C142.61 3.594 140.986 5.204 140.986 7.36C140.986 9.586 142.722 11.168 144.654 11.168C145.662 11.168 146.936 10.734 147.566 10.048L146.922 9.362C146.474 9.852 145.494 10.23 144.64 10.23ZM144.598 4.532C146.04 4.532 146.81 5.54 146.95 6.842H142.078C142.274 5.442 143.31 4.532 144.598 4.532ZM155.333 3.762V5.008C154.773 4.126 153.849 3.594 152.701 3.594C150.755 3.594 149.369 5.008 149.369 7.024C149.369 9.04 150.755 10.468 152.701 10.468C153.849 10.468 154.773 9.936 155.333 9.054V10.23C155.333 11.644 154.353 12.47 152.687 12.47C151.791 12.47 150.923 12.148 150.363 11.616L149.901 12.442C150.559 13.002 151.651 13.408 152.827 13.408C154.913 13.408 156.383 12.092 156.383 10.23V3.762H155.333ZM152.897 9.53C151.483 9.53 150.475 8.494 150.475 7.024C150.475 5.568 151.483 4.532 152.897 4.532C154.325 4.532 155.333 5.568 155.333 7.024C155.333 8.494 154.325 9.53 152.897 9.53ZM163.701 3.762V8.368C163.701 9.376 162.679 10.23 161.461 10.23C160.397 10.23 159.655 9.404 159.655 8.228V3.762H158.605V8.368C158.605 10.006 159.725 11.168 161.321 11.168C162.343 11.168 163.281 10.608 163.701 9.838V11H164.751V3.762H163.701ZM170.152 10.23C168.724 10.23 167.73 9.194 167.576 7.78H173.498C173.498 5.246 172.252 3.594 170.068 3.594C168.122 3.594 166.498 5.204 166.498 7.36C166.498 9.586 168.234 11.168 170.166 11.168C171.174 11.168 172.448 10.734 173.078 10.048L172.434 9.362C171.986 9.852 171.006 10.23 170.152 10.23ZM170.11 4.532C171.552 4.532 172.322 5.54 172.462 6.842H167.59C167.786 5.442 168.822 4.532 170.11 4.532ZM182.539 10.23C181.111 10.23 180.117 9.194 179.963 7.78H185.885C185.885 5.246 184.639 3.594 182.455 3.594C180.509 3.594 178.885 5.204 178.885 7.36C178.885 9.586 180.621 11.168 182.553 11.168C183.561 11.168 184.835 10.734 185.465 10.048L184.821 9.362C184.373 9.852 183.393 10.23 182.539 10.23ZM182.497 4.532C183.939 4.532 184.709 5.54 184.849 6.842H179.977C180.173 5.442 181.209 4.532 182.497 4.532ZM195.429 3.594C194.337 3.594 193.385 4.196 193.091 5.134C192.699 4.196 191.845 3.594 190.753 3.594C189.801 3.594 189.017 4.07 188.653 4.826V3.762H187.603V11H188.653V6.394C188.653 5.302 189.465 4.532 190.613 4.532C191.593 4.532 192.279 5.358 192.279 6.534V11H193.329V6.394C193.329 5.302 194.141 4.532 195.289 4.532C196.269 4.532 196.955 5.358 196.955 6.534V11H198.005V6.394C198.005 4.756 196.941 3.594 195.429 3.594ZM207.967 3.594C206.805 3.594 205.881 4.168 205.335 5.12V1.214H204.285V11H205.335V9.642C205.881 10.594 206.805 11.168 207.967 11.168C209.871 11.168 211.299 9.6 211.299 7.374C211.299 5.162 209.871 3.594 207.967 3.594ZM207.771 10.23C206.343 10.23 205.335 9.04 205.335 7.374C205.335 5.708 206.343 4.532 207.771 4.532C209.185 4.532 210.193 5.708 210.193 7.374C210.193 9.04 209.185 10.23 207.771 10.23ZM214.263 5.176V3.762H213.213V11H214.263V6.954C214.263 5.54 215.425 4.532 217.063 4.532V3.594C215.733 3.594 214.697 4.21 214.263 5.176ZM221.777 10.23C220.349 10.23 219.355 9.194 219.201 7.78H225.123C225.123 5.246 223.877 3.594 221.693 3.594C219.747 3.594 218.123 5.204 218.123 7.36C218.123 9.586 219.859 11.168 221.791 11.168C222.799 11.168 224.073 10.734 224.703 10.048L224.059 9.362C223.611 9.852 222.631 10.23 221.777 10.23ZM221.735 4.532C223.177 4.532 223.947 5.54 224.087 6.842H219.215C219.411 5.442 220.447 4.532 221.735 4.532ZM229.235 11H230.243L233.281 3.762H232.105L229.739 9.768L227.331 3.762H226.155L229.235 11ZM237.5 10.23C236.072 10.23 235.078 9.194 234.924 7.78H240.846C240.846 5.246 239.6 3.594 237.416 3.594C235.47 3.594 233.846 5.204 233.846 7.36C233.846 9.586 235.582 11.168 237.514 11.168C238.522 11.168 239.796 10.734 240.426 10.048L239.782 9.362C239.334 9.852 238.354 10.23 237.5 10.23ZM237.458 4.532C238.9 4.532 239.67 5.54 239.81 6.842H234.938C235.134 5.442 236.17 4.532 237.458 4.532ZM243.292 11.168C243.698 11.168 244.034 10.818 244.034 10.398C244.034 10.006 243.698 9.656 243.292 9.656C242.858 9.656 242.522 10.006 242.522 10.398C242.522 10.818 242.858 11.168 243.292 11.168ZM20.1824 32.168C22.8564 32.168 25.0964 29.886 25.0964 27.184C25.0964 24.482 22.8564 22.214 20.1824 22.214C17.5224 22.214 15.2544 24.482 15.2544 27.184C15.2544 29.886 17.5224 32.168 20.1824 32.168ZM20.1824 31.16C18.1104 31.16 16.3604 29.34 16.3604 27.184C16.3604 25.042 18.1104 23.222 20.1824 23.222C22.2544 23.222 23.9904 25.042 23.9904 27.184C23.9904 29.34 22.2544 31.16 20.1824 31.16ZM30.6633 24.594C29.5013 24.594 28.5773 25.168 28.0313 26.12V22.214H26.9813V32H28.0313V30.642C28.5773 31.594 29.5013 32.168 30.6633 32.168C32.5673 32.168 33.9953 30.6 33.9953 28.374C33.9953 26.162 32.5673 24.594 30.6633 24.594ZM30.4673 31.23C29.0393 31.23 28.0313 30.04 28.0313 28.374C28.0313 26.708 29.0393 25.532 30.4673 25.532C31.8813 25.532 32.8893 26.708 32.8893 28.374C32.8893 30.04 31.8813 31.23 30.4673 31.23ZM36.9591 26.176V24.762H35.9091V32H36.9591V27.954C36.9591 26.54 38.1211 25.532 39.7591 25.532V24.594C38.4291 24.594 37.3931 25.21 36.9591 26.176ZM41.7295 23.446C42.1075 23.446 42.4155 23.124 42.4155 22.746C42.4155 22.382 42.1075 22.06 41.7295 22.06C41.3375 22.06 41.0295 22.382 41.0295 22.746C41.0295 23.124 41.3375 23.446 41.7295 23.446ZM41.1975 32H42.2475V24.762H41.1975V32ZM49.984 24.762V26.008C49.424 25.126 48.5 24.594 47.352 24.594C45.406 24.594 44.02 26.008 44.02 28.024C44.02 30.04 45.406 31.468 47.352 31.468C48.5 31.468 49.424 30.936 49.984 30.054V31.23C49.984 32.644 49.004 33.47 47.338 33.47C46.442 33.47 45.574 33.148 45.014 32.616L44.552 33.442C45.21 34.002 46.302 34.408 47.478 34.408C49.564 34.408 51.034 33.092 51.034 31.23V24.762H49.984ZM47.548 30.53C46.134 30.53 45.126 29.494 45.126 28.024C45.126 26.568 46.134 25.532 47.548 25.532C48.976 25.532 49.984 26.568 49.984 28.024C49.984 29.494 48.976 30.53 47.548 30.53ZM56.1964 24.594C55.4964 24.594 54.6284 24.776 53.5924 25.294L54.0124 26.148C54.6704 25.812 55.3984 25.49 56.1264 25.49C57.6944 25.49 58.0864 26.61 58.0864 27.59V27.856C57.3444 27.618 56.5184 27.45 55.7344 27.45C54.1804 27.45 52.8924 28.416 52.8924 29.858C52.8924 31.286 54.0124 32.168 55.5384 32.168C56.4904 32.168 57.5684 31.72 58.0864 30.866V32H59.1364V27.59C59.1364 25.84 58.1704 24.594 56.1964 24.594ZM55.7204 31.244C54.6984 31.244 53.9144 30.712 53.9144 29.816C53.9144 28.948 54.8244 28.332 55.9024 28.332C56.6864 28.332 57.4284 28.444 58.0864 28.626V29.732C57.8064 30.754 56.6724 31.244 55.7204 31.244ZM66.9378 22.214V26.12C66.3918 25.168 65.4678 24.594 64.3058 24.594C62.4018 24.594 60.9738 26.162 60.9738 28.374C60.9738 30.6 62.4018 32.168 64.3058 32.168C65.4678 32.168 66.3918 31.594 66.9378 30.642V32H67.9878V22.214H66.9378ZM64.5018 31.23C63.0878 31.23 62.0798 30.04 62.0798 28.374C62.0798 26.708 63.0878 25.532 64.5018 25.532C65.9298 25.532 66.9378 26.708 66.9378 28.374C66.9378 30.04 65.9298 31.23 64.5018 31.23ZM73.5695 32.168C75.5995 32.168 77.3075 30.432 77.3075 28.374C77.3075 26.316 75.5995 24.594 73.5695 24.594C71.5395 24.594 69.8175 26.316 69.8175 28.374C69.8175 30.432 71.5395 32.168 73.5695 32.168ZM73.5695 31.23C72.1275 31.23 70.9235 29.928 70.9235 28.374C70.9235 26.834 72.1275 25.532 73.5695 25.532C74.9975 25.532 76.2015 26.834 76.2015 28.374C76.2015 29.928 74.9975 31.23 73.5695 31.23ZM86.8821 24.594C85.7201 24.594 84.7961 25.168 84.2501 26.12V24.762H83.2001V34.408H84.2501V30.642C84.7961 31.594 85.7201 32.168 86.8821 32.168C88.7861 32.168 90.2141 30.6 90.2141 28.374C90.2141 26.162 88.7861 24.594 86.8821 24.594ZM86.6861 31.23C85.2581 31.23 84.2501 30.04 84.2501 28.374C84.2501 26.708 85.2581 25.532 86.6861 25.532C88.1001 25.532 89.1081 26.708 89.1081 28.374C89.1081 30.04 88.1001 31.23 86.6861 31.23ZM95.3898 32.168C97.4198 32.168 99.1278 30.432 99.1278 28.374C99.1278 26.316 97.4198 24.594 95.3898 24.594C93.3598 24.594 91.6378 26.316 91.6378 28.374C91.6378 30.432 93.3598 32.168 95.3898 32.168ZM95.3898 31.23C93.9478 31.23 92.7438 29.928 92.7438 28.374C92.7438 26.834 93.9478 25.532 95.3898 25.532C96.8178 25.532 98.0218 26.834 98.0218 28.374C98.0218 29.928 96.8178 31.23 95.3898 31.23ZM102.01 26.176V24.762H100.96V32H102.01V27.954C102.01 26.54 103.172 25.532 104.81 25.532V24.594C103.48 24.594 102.444 25.21 102.01 26.176ZM115.419 24.762V29.368C115.419 30.376 114.397 31.23 113.179 31.23C112.115 31.23 111.373 30.404 111.373 29.228V24.762H110.323V29.368C110.323 31.006 111.443 32.168 113.039 32.168C114.061 32.168 114.999 31.608 115.419 30.838V32H116.469V24.762H115.419ZM121.786 30.936C121.632 31.104 121.352 31.23 121.03 31.23C120.61 31.23 120.246 30.852 120.246 30.32V25.7H122.024V24.762H120.246V22.774H119.196V24.762H118.062V25.7H119.196V30.32C119.196 31.398 119.924 32.168 120.96 32.168C121.45 32.168 121.926 32 122.304 31.706L121.786 30.936ZM124.308 23.446C124.686 23.446 124.994 23.124 124.994 22.746C124.994 22.382 124.686 22.06 124.308 22.06C123.916 22.06 123.608 22.382 123.608 22.746C123.608 23.124 123.916 23.446 124.308 23.446ZM123.776 32H124.826V24.762H123.776V32ZM126.934 32H127.984V22.214H126.934V32ZM130.624 23.446C131.002 23.446 131.31 23.124 131.31 22.746C131.31 22.382 131.002 22.06 130.624 22.06C130.232 22.06 129.924 22.382 129.924 22.746C129.924 23.124 130.232 23.446 130.624 23.446ZM130.092 32H131.142V24.762H130.092V32ZM132.943 32H138.655V31.006H134.343L138.627 25.588V24.762H133.027V25.756H137.213L132.943 31.174V32ZM143.382 24.594C142.682 24.594 141.814 24.776 140.778 25.294L141.198 26.148C141.856 25.812 142.584 25.49 143.312 25.49C144.88 25.49 145.272 26.61 145.272 27.59V27.856C144.53 27.618 143.704 27.45 142.92 27.45C141.366 27.45 140.078 28.416 140.078 29.858C140.078 31.286 141.198 32.168 142.724 32.168C143.676 32.168 144.754 31.72 145.272 30.866V32H146.322V27.59C146.322 25.84 145.356 24.594 143.382 24.594ZM142.906 31.244C141.884 31.244 141.1 30.712 141.1 29.816C141.1 28.948 142.01 28.332 143.088 28.332C143.872 28.332 144.614 28.444 145.272 28.626V29.732C144.992 30.754 143.858 31.244 142.906 31.244ZM149.615 26.176V24.762H148.565V32H149.615V27.954C149.615 26.54 150.777 25.532 152.415 25.532V24.594C151.085 24.594 150.049 25.21 149.615 26.176ZM161.372 24.594C160.35 24.594 159.412 25.154 158.992 25.924V24.762H157.942V32H158.992V27.394C158.992 26.386 160.014 25.532 161.232 25.532C162.296 25.532 163.038 26.358 163.038 27.534V32H164.088V27.394C164.088 25.756 162.968 24.594 161.372 24.594ZM169.573 32.168C171.603 32.168 173.311 30.432 173.311 28.374C173.311 26.316 171.603 24.594 169.573 24.594C167.543 24.594 165.821 26.316 165.821 28.374C165.821 30.432 167.543 32.168 169.573 32.168ZM169.573 31.23C168.131 31.23 166.927 29.928 166.927 28.374C166.927 26.834 168.131 25.532 169.573 25.532C171.001 25.532 172.205 26.834 172.205 28.374C172.205 29.928 171.001 31.23 169.573 31.23ZM177.607 32.168C179.105 32.168 180.253 31.314 180.253 29.984C180.253 28.612 179.049 28.22 177.887 27.856C176.543 27.422 176.011 27.226 176.011 26.596C176.011 25.896 176.683 25.532 177.495 25.532C178.139 25.532 178.853 25.756 179.581 26.218L180.085 25.406C179.315 24.902 178.391 24.594 177.495 24.594C176.053 24.594 174.961 25.406 174.961 26.722C174.961 27.758 175.633 28.276 177.383 28.78C178.363 29.06 179.203 29.312 179.203 30.096C179.203 30.782 178.559 31.23 177.607 31.23C176.809 31.23 175.983 30.922 175.157 30.32L174.611 31.09C175.479 31.79 176.599 32.168 177.607 32.168ZM184.553 32.168C186.051 32.168 187.199 31.314 187.199 29.984C187.199 28.612 185.995 28.22 184.833 27.856C183.489 27.422 182.957 27.226 182.957 26.596C182.957 25.896 183.629 25.532 184.441 25.532C185.085 25.532 185.799 25.756 186.527 26.218L187.031 25.406C186.261 24.902 185.337 24.594 184.441 24.594C182.999 24.594 181.907 25.406 181.907 26.722C181.907 27.758 182.579 28.276 184.329 28.78C185.309 29.06 186.149 29.312 186.149 30.096C186.149 30.782 185.505 31.23 184.553 31.23C183.755 31.23 182.929 30.922 182.103 30.32L181.557 31.09C182.425 31.79 183.545 32.168 184.553 32.168ZM192.296 32.168C194.326 32.168 196.034 30.432 196.034 28.374C196.034 26.316 194.326 24.594 192.296 24.594C190.266 24.594 188.544 26.316 188.544 28.374C188.544 30.432 190.266 32.168 192.296 32.168ZM192.296 31.23C190.854 31.23 189.65 29.928 189.65 28.374C189.65 26.834 190.854 25.532 192.296 25.532C193.724 25.532 194.928 26.834 194.928 28.374C194.928 29.928 193.724 31.23 192.296 31.23ZM204.769 24.594C204.069 24.594 203.201 24.776 202.165 25.294L202.585 26.148C203.243 25.812 203.971 25.49 204.699 25.49C206.267 25.49 206.659 26.61 206.659 27.59V27.856C205.917 27.618 205.091 27.45 204.307 27.45C202.753 27.45 201.465 28.416 201.465 29.858C201.465 31.286 202.585 32.168 204.111 32.168C205.063 32.168 206.141 31.72 206.659 30.866V32H207.709V27.59C207.709 25.84 206.743 24.594 204.769 24.594ZM204.293 31.244C203.271 31.244 202.487 30.712 202.487 29.816C202.487 28.948 203.397 28.332 204.475 28.332C205.259 28.332 206.001 28.444 206.659 28.626V29.732C206.379 30.754 205.245 31.244 204.293 31.244ZM213.634 24.594C212.472 24.594 211.548 25.168 211.002 26.12V24.762H209.952V34.408H211.002V30.642C211.548 31.594 212.472 32.168 213.634 32.168C215.538 32.168 216.966 30.6 216.966 28.374C216.966 26.162 215.538 24.594 213.634 24.594ZM213.438 31.23C212.01 31.23 211.002 30.04 211.002 28.374C211.002 26.708 212.01 25.532 213.438 25.532C214.852 25.532 215.86 26.708 215.86 28.374C215.86 30.04 214.852 31.23 213.438 31.23ZM222.562 24.594C221.4 24.594 220.476 25.168 219.93 26.12V24.762H218.88V34.408H219.93V30.642C220.476 31.594 221.4 32.168 222.562 32.168C224.466 32.168 225.894 30.6 225.894 28.374C225.894 26.162 224.466 24.594 222.562 24.594ZM222.366 31.23C220.938 31.23 219.93 30.04 219.93 28.374C219.93 26.708 220.938 25.532 222.366 25.532C223.78 25.532 224.788 26.708 224.788 28.374C224.788 30.04 223.78 31.23 222.366 31.23ZM228.214 29.298H228.956L229.236 22.382H227.948L228.214 29.298ZM228.578 32.168C228.984 32.168 229.32 31.818 229.32 31.398C229.32 31.006 228.984 30.656 228.578 30.656C228.144 30.656 227.808 31.006 227.808 31.398C227.808 31.818 228.144 32.168 228.578 32.168Z" fill="black"/>
</svg>
