<svg width="218" height="211" viewBox="0 0 218 211" fill="none" xmlns="http://www.w3.org/2000/svg">
<path d="M89.3681 67.0837L87.515 67.0024C87.6254 64.4746 88.7353 42.1884 93.6133 38.123C93.9231 37.8462 94.2884 37.6387 94.6848 37.5146C95.0812 37.3905 95.4995 37.3525 95.9117 37.4032C98.8158 37.8077 101.987 42.4157 105.607 51.4908C108.184 57.9521 110.042 64.3946 110.06 64.459L108.278 64.9714C108.259 64.9078 106.423 58.5432 103.88 52.1671C99.3874 40.9093 96.6323 39.3776 95.6562 39.2419C95.4996 39.2249 95.3412 39.2437 95.1929 39.297C95.0446 39.3503 94.9104 39.4366 94.8003 39.5494C91.2009 42.5489 89.6587 60.442 89.3681 67.0837Z" fill="black"/>
<path d="M72.9962 55.0587L71.1411 101.609L132.349 95.0114L124.783 50.0683L72.9962 55.0587Z" fill="#FFBA49"/>
<path d="M124.783 50.0683L120.28 50.5021L126.272 89.9126L71.3555 96.2357L71.1411 101.609L132.349 95.0114L124.783 50.0683Z" fill="#FFA113"/>
<path d="M157.85 130.113L155.304 129.83C155.326 129.63 157.44 109.717 150.585 102.27C149.779 101.364 148.779 100.653 147.66 100.189C146.54 99.7245 145.33 99.5201 144.121 99.5906C129.189 100.015 122.168 125.658 122.099 125.917L119.625 125.255C121.004 120.466 122.919 115.849 125.335 111.491C130.537 102.23 137.008 97.2289 144.048 97.0287C145.624 96.9479 147.198 97.2208 148.656 97.8275C150.113 98.4342 151.416 99.3593 152.47 100.535C160.113 108.841 157.946 129.248 157.85 130.113Z" fill="#FFBA49"/>
<path d="M112.428 111.85L166.458 118.263L165.62 203.997L93.4967 195.401L112.428 111.85Z" fill="#DB3022"/>
<path d="M166.458 118.263L161.107 117.627L158.501 196.955L94.5126 190.918L93.4967 195.401L165.62 203.997L166.458 118.263Z" fill="#D10505"/>
<path d="M179.999 145.509C182.46 146.025 184.804 144.057 185.235 141.109C185.694 141.893 186.153 142.678 186.612 143.464C186.181 146.411 183.835 148.38 181.378 147.864C180.919 147.078 180.459 146.293 179.999 145.509Z" fill="#FFBA49"/>
<path d="M107.332 208.563C109.793 209.079 112.137 207.11 112.568 204.163C113.027 204.947 113.486 205.731 113.945 206.517C113.515 209.464 111.169 211.434 108.711 210.918C108.252 210.132 107.792 209.347 107.332 208.563Z" fill="#9B9B9B"/>
<path d="M185.494 96.1689C186.526 98.8927 189.205 100.103 191.481 98.8671C191.199 99.7646 190.917 100.662 190.634 101.559C188.358 102.793 185.679 101.584 184.648 98.8592C184.932 97.9634 185.214 97.0666 185.494 96.1689Z" fill="#FF5C00"/>
<path d="M169.571 76.8197C169.987 73.8687 168.327 71.0745 165.864 70.5774C166.515 70.0213 167.167 69.4653 167.82 68.9095C170.282 69.4067 171.942 72.202 171.528 75.1519C170.876 75.7081 170.224 76.264 169.571 76.8197Z" fill="#021193"/>
<path d="M21.7077 64.9101C22.123 61.9591 20.4636 59.1648 18 58.6677C18.6515 58.1116 19.3035 57.5557 19.9563 57C22.418 57.497 24.0783 60.2923 23.664 63.2423C23.0125 63.7984 22.3604 64.3543 21.7077 64.9101Z" fill="#FF5C00"/>
<path d="M72.0943 169.475C72.5097 166.523 70.8502 163.729 68.3867 163.232C69.0381 162.676 69.6902 162.12 70.3429 161.564C72.8046 162.061 74.4649 164.857 74.0506 167.807C73.3991 168.363 72.747 168.919 72.0943 169.475Z" fill="#FF5C00"/>
<path d="M201.332 58.8891C203.776 59.5061 206.174 57.6327 206.688 54.7032C207.126 55.5058 207.563 56.309 208 57.1129C207.486 60.0395 205.087 61.914 202.644 61.2988C202.206 60.4962 201.769 59.693 201.332 58.8891Z" fill="#FFBA49"/>
<path d="M5.82079 95.1413C4.94465 92.3384 2.33935 90.9172 0 91.968C0.330918 91.0967 0.662322 90.2241 0.994215 89.3504C3.33162 88.3007 5.93838 89.7209 6.815 92.5225C6.4841 93.395 6.15269 94.2679 5.82079 95.1413Z" fill="#FFBA49"/>
<path d="M66.534 129.28C66.7067 132.264 68.8668 134.516 71.3578 134.308C70.8325 135.033 70.3062 135.754 69.7818 136.479C67.2899 136.685 65.1306 134.432 64.9581 131.447C65.4834 130.726 66.0087 130.003 66.534 129.28Z" fill="#DB3022"/>
<path d="M48.9286 75.0531C51.4026 74.6419 53.1294 71.9049 52.7851 68.9409C53.4243 69.5197 54.0624 70.0977 54.6997 70.6751C55.0429 73.6403 53.3172 76.3755 50.8431 76.7885C50.2059 76.2096 49.5677 75.6312 48.9286 75.0531Z" fill="#021193"/>
<path d="M149.812 38.7056C146.604 38.8118 148.91 44.4645 145.701 44.5731C145.088 43.9567 144.476 43.3404 143.862 42.724C147.071 42.6172 144.765 36.9645 147.973 36.8561C148.587 37.4724 149.199 38.0889 149.812 38.7056Z" fill="#FF5C00"/>
<path d="M155.642 187.278C152.519 186.392 153.531 192.565 150.407 191.68C149.947 190.895 149.488 190.11 149.029 189.325C152.152 190.211 151.139 184.038 154.264 184.924C154.723 185.709 155.182 186.494 155.642 187.278Z" fill="#FFBA49"/>
<path d="M62.7805 195.315C60.575 198.11 65.5419 200.157 63.3362 202.949C62.5397 203.031 61.7422 203.116 60.9457 203.197C63.1513 200.404 58.1844 198.359 60.39 195.565C61.1875 195.483 61.9843 195.4 62.7805 195.315Z" fill="#021193"/>
<path d="M134.225 2.35473C131.085 3.15394 134.202 8.21881 131.063 9.0163C130.369 8.54141 129.671 8.06827 128.977 7.59221C132.116 6.79519 128.998 1.73215 132.138 0.932892C132.834 1.40893 133.53 1.88287 134.225 2.35473Z" fill="#DB3022"/>
<path d="M33.4438 19.0038C34.9885 22.3758 38.1371 17.3394 39.6794 20.7103C39.5003 21.6435 39.3234 22.5803 39.1432 23.5141C37.6009 20.1422 34.4542 25.1802 32.9095 21.8083C33.0891 20.8721 33.2672 19.9373 33.4438 19.0038Z" fill="#9B9B9B"/>
<path d="M6.81506 151.583C7.22939 151.508 7.60424 151.29 7.87417 150.966C8.1441 150.643 8.29197 150.235 8.29197 149.814C8.29197 149.392 8.1441 148.984 7.87417 148.661C7.60424 148.337 7.22939 148.119 6.81506 148.044" fill="black"/>
<path d="M174.448 14.8658C173.098 14.8658 172 13.5501 172 11.9329C172 10.3156 173.098 9.00003 174.448 9.00003C175.798 9.00003 176.896 10.3156 176.896 11.9329C176.896 13.5501 175.798 14.8658 174.448 14.8658ZM174.448 10.1634C174.019 10.2058 173.624 10.415 173.348 10.7459C173.072 11.0769 172.936 11.5031 172.971 11.9329C172.932 12.1493 172.941 12.3716 172.997 12.5842C173.053 12.7968 173.155 12.9945 173.296 13.1633C173.437 13.3321 173.613 13.4678 173.812 13.561C174.011 13.6542 174.228 13.7024 174.448 13.7024C174.668 13.7024 174.885 13.6542 175.084 13.561C175.283 13.4678 175.459 13.3321 175.6 13.1633C175.741 12.9945 175.843 12.7968 175.899 12.5842C175.955 12.3716 175.964 12.1493 175.925 11.9329C175.959 11.5031 175.824 11.0769 175.548 10.7459C175.272 10.415 174.877 10.2058 174.448 10.1634Z" fill="black"/>
<path d="M31.9474 125.983C30.5976 125.983 29.4995 124.668 29.4995 123.05C29.4995 121.433 30.5976 120.117 31.9474 120.117C33.2972 120.117 34.3953 121.433 34.3953 123.05C34.3953 124.668 33.2972 125.983 31.9474 125.983ZM31.9474 121.281C31.5331 121.356 31.1582 121.574 30.8883 121.898C30.6183 122.221 30.4705 122.629 30.4705 123.05C30.4705 123.472 30.6183 123.88 30.8883 124.203C31.1582 124.526 31.5331 124.745 31.9474 124.82C32.3617 124.745 32.7365 124.526 33.0065 124.203C33.2764 123.88 33.4243 123.472 33.4243 123.05C33.4243 122.629 33.2764 122.221 33.0065 121.898C32.7365 121.574 32.3617 121.356 31.9474 121.281Z" fill="black"/>
<path d="M216.821 155.137C215.945 152.334 213.339 150.913 211 151.963C211.331 151.092 211.662 150.22 211.994 149.346C214.332 148.296 216.938 149.716 217.815 152.518C217.484 153.39 217.153 154.263 216.821 155.137Z" fill="black"/>
</svg>
