<svg width="146" height="25" viewBox="0 0 146 25" fill="none" xmlns="http://www.w3.org/2000/svg">
<path d="M11.152 24.408C16.864 24.408 20.23 21.45 20.23 16.996C20.23 12.678 16.898 11.182 11.866 10.06C8.262 9.244 6.868 8.7 6.868 7C6.868 5.606 8.16 4.484 10.302 4.484C12.546 4.484 14.892 5.402 16.966 7.068L19.584 3.464C17.204 1.424 14.246 0.233998 10.438 0.233998C5.338 0.233998 1.802 3.192 1.802 7.51C1.802 12.032 5.304 13.426 10.234 14.548C13.804 15.364 15.164 15.874 15.164 17.54C15.164 19.002 13.872 20.158 11.356 20.158C8.398 20.158 5.882 19.002 3.672 17.098L0.782 20.532C3.502 23.048 7.106 24.408 11.152 24.408ZM35.3536 6.422V16.928L35.3196 16.826C35.3196 18.73 33.7216 20.226 31.6476 20.226C29.6756 20.226 28.3156 18.73 28.3156 16.554V6.422H23.5216V17.608C23.5216 21.586 26.2416 24.408 30.0496 24.408C32.3276 24.408 34.2996 23.388 35.3536 21.79V24H40.3176V6.422H35.3536ZM53.1784 24.408C56.1024 24.408 58.4824 23.218 60.2164 21.314L56.9184 18.526C56.0004 19.546 54.5724 20.226 53.2124 20.226C50.5944 20.226 48.4184 17.914 48.4184 15.16C48.4184 12.474 50.5944 10.196 53.1784 10.196C54.5384 10.196 55.9324 10.842 56.8164 11.828L60.1144 9.006C58.4144 7.17 56.0684 6.014 53.2124 6.014C48.0104 6.014 43.5904 10.196 43.5904 15.194C43.5904 20.192 47.9764 24.408 53.1784 24.408ZM71.4993 20.022C69.4253 20.022 67.8953 18.73 67.3173 16.826H79.9993C79.9993 10.196 76.7693 6.014 71.2613 6.014C66.1273 6.014 62.2173 9.856 62.2173 15.16C62.2173 20.566 66.2973 24.408 71.5333 24.408C74.1173 24.408 77.1433 23.32 78.7073 21.688L75.5453 18.458C74.5933 19.376 72.8933 20.022 71.4993 20.022ZM71.4653 10.4C73.4713 10.4 74.7633 11.522 75.2393 13.256H67.3853C68.0313 11.488 69.5953 10.4 71.4653 10.4ZM89.9536 24.408C94.2716 24.408 97.0936 22.198 97.0936 18.73C97.0936 14.888 93.7276 13.868 90.7016 13.086C88.3216 12.44 87.6076 12.168 87.6076 11.216C87.6076 10.604 88.4576 10.162 89.6816 10.162C91.1776 10.162 93.0136 10.74 94.6116 11.726L96.6176 8.19C94.6796 6.898 92.1976 6.014 89.6816 6.014C85.5336 6.014 82.7796 8.394 82.8136 11.726C82.8476 15.194 85.6356 16.18 89.2396 17.064C91.0416 17.54 92.3336 17.88 92.3336 18.968C92.3336 19.75 91.3816 20.294 90.0556 20.294C87.7096 20.294 85.7376 19.444 84.1736 18.322L82.0316 21.756C84.1396 23.456 87.1316 24.408 89.9536 24.408ZM107.02 24.408C111.338 24.408 114.16 22.198 114.16 18.73C114.16 14.888 110.794 13.868 107.768 13.086C105.388 12.44 104.674 12.168 104.674 11.216C104.674 10.604 105.524 10.162 106.748 10.162C108.244 10.162 110.08 10.74 111.678 11.726L113.684 8.19C111.746 6.898 109.264 6.014 106.748 6.014C102.6 6.014 99.846 8.394 99.88 11.726C99.914 15.194 102.702 16.18 106.306 17.064C108.108 17.54 109.4 17.88 109.4 18.968C109.4 19.75 108.448 20.294 107.122 20.294C104.776 20.294 102.804 19.444 101.24 18.322L99.098 21.756C101.206 23.456 104.198 24.408 107.02 24.408ZM126.126 24.408C131.328 24.408 135.68 20.192 135.68 15.194C135.68 10.196 131.328 6.014 126.126 6.014C120.89 6.014 116.504 10.196 116.504 15.194C116.504 20.192 120.89 24.408 126.126 24.408ZM126.126 20.226C123.474 20.226 121.264 17.914 121.264 15.194C121.264 12.474 123.474 10.196 126.126 10.196C128.744 10.196 130.954 12.474 130.954 15.194C130.954 17.914 128.744 20.226 126.126 20.226ZM140.467 15.772H143.833L144.955 0.641999H139.345L140.467 15.772ZM142.133 24.408C143.799 24.408 145.159 22.98 145.159 21.246C145.159 19.648 143.799 18.22 142.133 18.22C140.365 18.22 138.971 19.648 138.971 21.246C138.971 22.98 140.365 24.408 142.133 24.408Z" fill="black"/>
</svg>
