<svg width="359" height="64" viewBox="0 0 359 64" fill="none" xmlns="http://www.w3.org/2000/svg">
<g filter="url(#filter0_d)">
<rect x="8" y="4" width="343" height="48" rx="24" fill="#DB3022"/>
</g>
<path d="M95.0713 32H96.6393L92.5093 22.382H90.9413L86.8113 32H88.3793L89.2193 30.04H94.2313L95.0713 32ZM89.7653 28.766L91.7253 24.202L93.6853 28.766H89.7653ZM98.22 32H101.538C104.646 32 106.858 29.998 106.858 27.184C106.858 24.37 104.646 22.382 101.538 22.382H98.22V32ZM99.634 30.712V23.67H101.622C103.848 23.67 105.402 25.126 105.402 27.184C105.402 29.256 103.848 30.712 101.622 30.712H99.634ZM108.73 32H110.144V22.382H108.73V32ZM116.877 32.168C118.249 32.168 119.509 31.58 120.419 30.656L119.425 29.704C118.781 30.404 117.871 30.866 116.877 30.866C114.959 30.866 113.335 29.186 113.335 27.184C113.335 25.196 114.959 23.516 116.877 23.516C117.871 23.516 118.781 23.978 119.425 24.678L120.419 23.726C119.509 22.788 118.249 22.214 116.877 22.214C114.175 22.214 111.879 24.482 111.879 27.184C111.879 29.886 114.175 32.168 116.877 32.168ZM121.855 32H123.269V22.382H121.855V32ZM130.002 32.168C132.704 32.168 134.972 29.886 134.972 27.184C134.972 24.482 132.704 22.214 130.002 22.214C127.3 22.214 125.004 24.482 125.004 27.184C125.004 29.886 127.3 32.168 130.002 32.168ZM130.002 30.866C128.084 30.866 126.46 29.186 126.46 27.184C126.46 25.196 128.084 23.516 130.002 23.516C131.92 23.516 133.53 25.196 133.53 27.184C133.53 29.186 131.92 30.866 130.002 30.866ZM136.87 32H138.284V24.706L143.814 32H145.228V22.382H143.814V29.676L138.284 22.382H136.87V32ZM155.077 32H156.645L152.515 22.382H150.947L146.817 32H148.385L149.225 30.04H154.237L155.077 32ZM149.771 28.766L151.731 24.202L153.691 28.766H149.771ZM165.674 25.518C165.674 23.684 164.134 22.382 162.104 22.382H158.058V32H159.472V28.654H161.684L164.036 32H165.66L163.21 28.514C164.666 28.136 165.674 27.002 165.674 25.518ZM159.472 23.698H161.908C163.294 23.698 164.232 24.384 164.232 25.518C164.232 26.652 163.294 27.338 161.908 27.338H159.472V23.698ZM178.866 32H180.434L176.304 22.382H174.736L170.606 32H172.174L173.014 30.04H178.026L178.866 32ZM173.56 28.766L175.52 24.202L177.48 28.766H173.56ZM186.467 32.168C189.169 32.168 191.437 29.886 191.437 27.184C191.437 24.482 189.169 22.214 186.467 22.214C183.765 22.214 181.469 24.482 181.469 27.184C181.469 29.886 183.765 32.168 186.467 32.168ZM186.467 30.866C184.549 30.866 182.925 29.186 182.925 27.184C182.925 25.196 184.549 23.516 186.467 23.516C188.385 23.516 189.995 25.196 189.995 27.184C189.995 29.186 188.385 30.866 186.467 30.866ZM201.793 32.168C203.165 32.168 204.425 31.58 205.335 30.656L204.341 29.704C203.697 30.404 202.787 30.866 201.793 30.866C199.875 30.866 198.251 29.186 198.251 27.184C198.251 25.196 199.875 23.516 201.793 23.516C202.787 23.516 203.697 23.978 204.341 24.678L205.335 23.726C204.425 22.788 203.165 22.214 201.793 22.214C199.091 22.214 196.795 24.482 196.795 27.184C196.795 29.886 199.091 32.168 201.793 32.168ZM214.331 32H215.899L211.769 22.382H210.201L206.071 32H207.639L208.479 30.04H213.491L214.331 32ZM209.025 28.766L210.985 24.202L212.945 28.766H209.025ZM224.928 25.518C224.928 23.684 223.388 22.382 221.358 22.382H217.312V32H218.726V28.654H220.938L223.29 32H224.914L222.464 28.514C223.92 28.136 224.928 27.002 224.928 25.518ZM218.726 23.698H221.162C222.548 23.698 223.486 24.384 223.486 25.518C223.486 26.652 222.548 27.338 221.162 27.338H218.726V23.698ZM234.156 25.518C234.156 23.684 232.616 22.382 230.586 22.382H226.54V32H227.954V28.654H230.166L232.518 32H234.142L231.692 28.514C233.148 28.136 234.156 27.002 234.156 25.518ZM227.954 23.698H230.39C231.776 23.698 232.714 24.384 232.714 25.518C232.714 26.652 231.776 27.338 230.39 27.338H227.954V23.698ZM235.783 32H237.197V22.382H235.783V32ZM239.478 32H240.892V24.706L246.422 32H247.836V22.382H246.422V29.676L240.892 22.382H239.478V32ZM256.775 22.382V26.442H251.525V22.382H250.111V32H251.525V27.758H256.775V32H258.189V22.382H256.775ZM264.902 32.168C267.604 32.168 269.872 29.886 269.872 27.184C269.872 24.482 267.604 22.214 264.902 22.214C262.2 22.214 259.904 24.482 259.904 27.184C259.904 29.886 262.2 32.168 264.902 32.168ZM264.902 30.866C262.984 30.866 261.36 29.186 261.36 27.184C261.36 25.196 262.984 23.516 264.902 23.516C266.82 23.516 268.43 25.196 268.43 27.184C268.43 29.186 266.82 30.866 264.902 30.866Z" fill="white"/>
<defs>
<filter id="filter0_d" x="0" y="0" width="359" height="64" filterUnits="userSpaceOnUse" color-interpolation-filters="sRGB">
<feFlood flood-opacity="0" result="BackgroundImageFix"/>
<feColorMatrix in="SourceAlpha" type="matrix" values="0 0 0 0 0 0 0 0 0 0 0 0 0 0 0 0 0 0 127 0"/>
<feOffset dy="4"/>
<feGaussianBlur stdDeviation="4"/>
<feColorMatrix type="matrix" values="0 0 0 0 0.829167 0 0 0 0 0.148559 0 0 0 0 0.148559 0 0 0 0.25 0"/>
<feBlend mode="normal" in2="BackgroundImageFix" result="effect1_dropShadow"/>
<feBlend mode="normal" in="SourceGraphic" in2="effect1_dropShadow" result="shape"/>
</filter>
</defs>
</svg>
