<svg width="375" height="110" viewBox="0 0 375 110" fill="none" xmlns="http://www.w3.org/2000/svg">
<g clip-path="url(#clip0)">
<g filter="url(#filter0_d)">
<path d="M0 39C0 32.3726 5.37258 27 12 27H363C369.627 27 375 32.3726 375 39V110H0V39Z" fill="white"/>
<path d="M332.141 62L332.141 61.5H332.141L332.141 62ZM322 56.5577L321.5 56.5502L321.498 56.705L321.583 56.8341L322 56.5577ZM342.282 56.5577L342.698 56.8341L342.784 56.705L342.782 56.5502L342.282 56.5577ZM332.141 38.5C334.67 38.5 336.711 40.5409 336.711 43.0704H337.711C337.711 39.9886 335.223 37.5 332.141 37.5V38.5ZM336.711 43.0704C336.711 45.5999 334.67 47.6408 332.141 47.6408V48.6408C335.223 48.6408 337.711 46.1522 337.711 43.0704H336.711ZM332.141 47.6408C329.611 47.6408 327.57 45.5999 327.57 43.0704H326.57C326.57 46.1522 329.059 48.6408 332.141 48.6408V47.6408ZM327.57 43.0704C327.57 40.5409 329.611 38.5 332.141 38.5V37.5C329.059 37.5 326.57 39.9886 326.57 43.0704H327.57ZM332.141 61.5C328.23 61.5 324.579 59.5406 322.417 56.2813L321.583 56.8341C323.931 60.3727 327.895 62.5 332.141 62.5L332.141 61.5ZM322.5 56.5653C322.51 55.904 322.845 55.2784 323.472 54.6902C324.102 54.1002 324.992 53.5826 326.015 53.1549C328.062 52.2987 330.519 51.8521 332.141 51.8521V50.8521C330.382 50.8521 327.794 51.3266 325.629 52.2324C324.545 52.6857 323.537 53.2593 322.789 53.9606C322.038 54.6638 321.515 55.5297 321.5 56.5502L322.5 56.5653ZM332.141 51.8521C333.754 51.8521 336.211 52.2986 338.261 53.155C339.284 53.5827 340.176 54.1004 340.807 54.6906C341.436 55.2789 341.772 55.9045 341.782 56.5653L342.782 56.5502C342.766 55.5293 342.242 54.6633 341.49 53.9603C340.741 53.2591 339.731 52.6855 338.646 52.2323C336.479 51.3267 333.891 50.8521 332.141 50.8521V51.8521ZM341.865 56.2813C339.703 59.5406 336.052 61.5 332.141 61.5L332.141 62.5C336.387 62.5 340.351 60.3727 342.698 56.8341L341.865 56.2813Z" fill="#9B9B9B"/>
<path d="M322.79 75H323.57V72.53H325.58C327 72.53 328.11 71.62 328.11 70.33C328.11 69.04 327 68.13 325.58 68.13H322.79V75ZM323.57 71.79V68.87H325.44C326.56 68.87 327.32 69.41 327.32 70.33C327.32 71.25 326.56 71.79 325.44 71.79H323.57ZM331.526 74.45C330.506 74.45 329.796 73.71 329.686 72.7H333.916C333.916 70.89 333.026 69.71 331.466 69.71C330.076 69.71 328.916 70.86 328.916 72.4C328.916 73.99 330.156 75.12 331.536 75.12C332.256 75.12 333.166 74.81 333.616 74.32L333.156 73.83C332.836 74.18 332.136 74.45 331.526 74.45ZM331.496 70.38C332.526 70.38 333.076 71.1 333.176 72.03H329.696C329.836 71.03 330.576 70.38 331.496 70.38ZM335.963 70.84V69.83H335.213V75H335.963V72.11C335.963 71.1 336.793 70.38 337.963 70.38V69.71C337.013 69.71 336.273 70.15 335.963 70.84ZM340.17 69.12C340.17 68.74 340.43 68.47 340.73 68.47C340.96 68.47 341.16 68.56 341.27 68.68L341.64 68.13C341.37 67.92 341.03 67.8 340.68 67.8C339.94 67.8 339.42 68.35 339.42 69.12V69.83H338.61V70.5H339.42V75H340.17V70.5H341.44V69.83H340.17V69.12ZM342.876 68.89C343.146 68.89 343.366 68.66 343.366 68.39C343.366 68.13 343.146 67.9 342.876 67.9C342.596 67.9 342.376 68.13 342.376 68.39C342.376 68.66 342.596 68.89 342.876 68.89ZM342.496 75H343.246V69.83H342.496V75ZM344.752 75H345.502V68.01H344.752V75Z" fill="#9B9B9B"/>
<path d="M244.88 69.27V68.13H239.71V75H240.96V72.15H244.51V71.01H240.96V69.27H244.88ZM248.18 69.71C247.53 69.71 246.85 69.89 246.12 70.25L246.54 71.1C246.98 70.88 247.45 70.71 247.94 70.71C248.88 70.71 249.21 71.29 249.21 71.89V72.03C248.74 71.85 248.23 71.75 247.76 71.75C246.6 71.75 245.65 72.45 245.65 73.47C245.65 74.47 246.48 75.12 247.58 75.12C248.18 75.12 248.83 74.86 249.21 74.38V75H250.4V71.89C250.4 70.58 249.55 69.71 248.18 69.71ZM247.85 74.23C247.27 74.23 246.84 73.92 246.84 73.43C246.84 72.94 247.33 72.6 247.94 72.6C248.4 72.6 248.83 72.67 249.21 72.8V73.38C249.07 73.93 248.44 74.23 247.85 74.23ZM253.451 75H254.601L256.791 69.83H255.491L254.021 73.59L252.521 69.83H251.231L253.451 75ZM259.904 75.12C261.404 75.12 262.674 73.88 262.674 72.41C262.674 70.94 261.404 69.71 259.904 69.71C258.404 69.71 257.134 70.94 257.134 72.41C257.134 73.88 258.404 75.12 259.904 75.12ZM259.904 74.08C259.044 74.08 258.324 73.32 258.324 72.41C258.324 71.51 259.044 70.75 259.904 70.75C260.754 70.75 261.474 71.51 261.474 72.41C261.474 73.32 260.754 74.08 259.904 74.08ZM264.983 70.83V69.83H263.763V75H264.983V72.39C264.983 71.41 265.723 70.75 266.833 70.75V69.71C265.983 69.71 265.313 70.14 264.983 70.83ZM268.356 69.05C268.736 69.05 269.046 68.72 269.046 68.35C269.046 67.98 268.736 67.66 268.356 67.66C267.966 67.66 267.656 67.98 267.656 68.35C267.656 68.72 267.966 69.05 268.356 69.05ZM267.736 75H268.956V69.83H267.736V75ZM272.885 73.89C272.775 74 272.585 74.08 272.375 74.08C272.085 74.08 271.865 73.83 271.865 73.48V70.84H273.035V69.83H271.865V68.41H270.675V69.83H269.925V70.84H270.675V73.63C270.675 74.5 271.275 75.12 272.135 75.12C272.525 75.12 272.945 74.96 273.235 74.71L272.885 73.89ZM276.682 75.12C278.182 75.12 279.452 73.88 279.452 72.41C279.452 70.94 278.182 69.71 276.682 69.71C275.182 69.71 273.912 70.94 273.912 72.41C273.912 73.88 275.182 75.12 276.682 75.12ZM276.682 74.08C275.822 74.08 275.102 73.32 275.102 72.41C275.102 71.51 275.822 70.75 276.682 70.75C277.532 70.75 278.252 71.51 278.252 72.41C278.252 73.32 277.532 74.08 276.682 74.08ZM282.42 75.12C283.63 75.12 284.45 74.48 284.45 73.49C284.45 72.41 283.51 72.11 282.64 71.87C281.85 71.64 281.58 71.54 281.58 71.21C281.58 70.92 281.91 70.75 282.34 70.75C282.79 70.75 283.32 70.91 283.81 71.22L284.32 70.33C283.76 69.96 283.05 69.71 282.34 69.71C281.19 69.71 280.39 70.37 280.39 71.34C280.4 72.26 281.11 72.58 282.23 72.87C282.82 73.03 283.27 73.16 283.27 73.56C283.27 73.88 282.93 74.09 282.44 74.09C281.79 74.09 281.21 73.85 280.71 73.49L280.16 74.34C280.78 74.84 281.63 75.12 282.42 75.12Z" fill="#DB3022"/>
<path fill-rule="evenodd" clip-rule="evenodd" d="M261.079 62L259.183 60.2736C252.447 54.1657 248 50.1373 248 45.1935C248 41.1651 251.165 38 255.193 38C257.469 38 259.653 39.0594 261.079 40.7335C262.505 39.0594 264.689 38 266.965 38C270.993 38 274.158 41.1651 274.158 45.1935C274.158 50.1373 269.711 54.1657 262.975 60.2866L261.079 62Z" fill="#DB3022"/>
<path d="M172.04 75.12C172.99 75.12 173.87 74.71 174.51 74.07L173.98 73.53C173.48 74.06 172.79 74.4 172.04 74.4C170.56 74.4 169.31 73.1 169.31 71.56C169.31 70.03 170.56 68.73 172.04 68.73C172.79 68.73 173.48 69.07 173.98 69.6L174.51 69.06C173.87 68.41 172.99 68.01 172.04 68.01C170.14 68.01 168.52 69.63 168.52 71.56C168.52 73.49 170.14 75.12 172.04 75.12ZM177.657 69.71C177.157 69.71 176.537 69.84 175.797 70.21L176.097 70.82C176.567 70.58 177.087 70.35 177.607 70.35C178.727 70.35 179.007 71.15 179.007 71.85V72.04C178.477 71.87 177.887 71.75 177.327 71.75C176.217 71.75 175.297 72.44 175.297 73.47C175.297 74.49 176.097 75.12 177.187 75.12C177.867 75.12 178.637 74.8 179.007 74.19V75H179.757V71.85C179.757 70.6 179.067 69.71 177.657 69.71ZM177.317 74.46C176.587 74.46 176.027 74.08 176.027 73.44C176.027 72.82 176.677 72.38 177.447 72.38C178.007 72.38 178.537 72.46 179.007 72.59V73.38C178.807 74.11 177.997 74.46 177.317 74.46ZM182.109 70.84V69.83H181.359V75H182.109V72.11C182.109 71.1 182.939 70.38 184.109 70.38V69.71C183.159 69.71 182.419 70.15 182.109 70.84ZM185.967 70.84V69.83H185.217V75H185.967V72.11C185.967 71.1 186.797 70.38 187.967 70.38V69.71C187.017 69.71 186.277 70.15 185.967 70.84ZM189.374 68.89C189.644 68.89 189.864 68.66 189.864 68.39C189.864 68.13 189.644 67.9 189.374 67.9C189.094 67.9 188.874 68.13 188.874 68.39C188.874 68.66 189.094 68.89 189.374 68.89ZM188.994 75H189.744V69.83H188.994V75ZM193.71 69.71C192.98 69.71 192.31 70.11 192.01 70.66V69.83H191.26V75H192.01V71.71C192.01 70.99 192.74 70.38 193.61 70.38C194.37 70.38 194.9 70.97 194.9 71.81V75H195.65V71.71C195.65 70.54 194.85 69.71 193.71 69.71ZM199.628 69.71C198.898 69.71 198.228 70.11 197.928 70.66V68.01H197.178V75H197.928V71.71C197.928 70.99 198.658 70.38 199.528 70.38C200.288 70.38 200.818 70.97 200.818 71.81V75H201.568V71.71C201.568 70.54 200.768 69.71 199.628 69.71ZM205.486 75.12C206.936 75.12 208.156 73.88 208.156 72.41C208.156 70.94 206.936 69.71 205.486 69.71C204.036 69.71 202.806 70.94 202.806 72.41C202.806 73.88 204.036 75.12 205.486 75.12ZM205.486 74.45C204.456 74.45 203.596 73.52 203.596 72.41C203.596 71.31 204.456 70.38 205.486 70.38C206.506 70.38 207.366 71.31 207.366 72.41C207.366 73.52 206.506 74.45 205.486 74.45Z" fill="#9B9B9B"/>
<path d="M199.456 59.5187L199.458 59.542L199.463 59.565C199.487 59.6823 199.5 59.796 199.5 59.9091C199.5 60.8094 198.808 61.5 198 61.5H188H178C177.192 61.5 176.5 60.8094 176.5 59.9091C176.5 59.796 176.513 59.6823 176.537 59.565L176.542 59.542L176.544 59.5187L178.497 41.1438L178.5 41.1174V41.0909C178.5 40.1906 179.192 39.5 180 39.5H188H196C196.808 39.5 197.5 40.1906 197.5 41.0909V41.1174L197.503 41.1438L199.456 59.5187ZM193.5 45.2727V44.4437C194.101 44.0852 194.5 43.4182 194.5 42.6591C194.5 41.5385 193.625 40.5909 192.5 40.5909C191.375 40.5909 190.5 41.5385 190.5 42.6591V45.2727C190.5 46.7469 189.357 47.9091 188 47.9091C186.643 47.9091 185.5 46.7469 185.5 45.2727V42.6591C185.5 41.5385 184.625 40.5909 183.5 40.5909C182.375 40.5909 181.5 41.5385 181.5 42.6591C181.5 43.4182 181.899 44.0852 182.5 44.4437V45.2727C182.5 48.41 184.946 51 188 51C191.054 51 193.5 48.41 193.5 45.2727Z" stroke="#9B9B9B"/>
<path d="M100.94 75H104.21C105.4 75 106.25 74.22 106.25 73.12C106.25 72.37 105.79 71.75 105 71.35C105.62 70.99 105.98 70.57 105.98 69.84C105.98 68.84 105.2 68.13 104.09 68.13H100.94V75ZM101.72 71.04V68.84H103.89C104.65 68.84 105.19 69.3 105.19 69.94C105.19 70.58 104.65 71.04 103.89 71.04H101.72ZM101.72 74.29V71.75H104.01C104.86 71.75 105.46 72.28 105.46 73.02C105.46 73.76 104.86 74.29 104.01 74.29H101.72ZM111.216 69.83V73.12C111.216 73.84 110.486 74.45 109.616 74.45C108.856 74.45 108.326 73.86 108.326 73.02V69.83H107.576V73.12C107.576 74.29 108.376 75.12 109.516 75.12C110.246 75.12 110.916 74.72 111.216 74.17V75H111.966V69.83H111.216ZM115.324 75.12C116.394 75.12 117.214 74.51 117.214 73.56C117.214 72.58 116.354 72.3 115.524 72.04C114.564 71.73 114.184 71.59 114.184 71.14C114.184 70.64 114.664 70.38 115.244 70.38C115.704 70.38 116.214 70.54 116.734 70.87L117.094 70.29C116.544 69.93 115.884 69.71 115.244 69.71C114.214 69.71 113.434 70.29 113.434 71.23C113.434 71.97 113.914 72.34 115.164 72.7C115.864 72.9 116.464 73.08 116.464 73.64C116.464 74.13 116.004 74.45 115.324 74.45C114.754 74.45 114.164 74.23 113.574 73.8L113.184 74.35C113.804 74.85 114.604 75.12 115.324 75.12ZM120.855 75.12C121.575 75.12 122.235 74.82 122.725 74.33L122.205 73.82C121.855 74.21 121.375 74.45 120.855 74.45C119.825 74.45 118.965 73.52 118.965 72.41C118.965 71.31 119.825 70.38 120.855 70.38C121.365 70.38 121.835 70.61 122.175 70.98L122.695 70.47C122.205 70 121.555 69.71 120.855 69.71C119.405 69.71 118.175 70.94 118.175 72.41C118.175 73.88 119.405 75.12 120.855 75.12ZM125.975 69.71C125.475 69.71 124.855 69.84 124.115 70.21L124.415 70.82C124.885 70.58 125.405 70.35 125.925 70.35C127.045 70.35 127.325 71.15 127.325 71.85V72.04C126.795 71.87 126.205 71.75 125.645 71.75C124.535 71.75 123.615 72.44 123.615 73.47C123.615 74.49 124.415 75.12 125.505 75.12C126.185 75.12 126.955 74.8 127.325 74.19V75H128.075V71.85C128.075 70.6 127.385 69.71 125.975 69.71ZM125.635 74.46C124.905 74.46 124.345 74.08 124.345 73.44C124.345 72.82 124.995 72.38 125.765 72.38C126.325 72.38 126.855 72.46 127.325 72.59V73.38C127.125 74.11 126.315 74.46 125.635 74.46ZM130.428 70.84V69.83H129.678V75H130.428V72.11C130.428 71.1 131.258 70.38 132.428 70.38V69.71C131.478 69.71 130.738 70.15 130.428 70.84Z" fill="#9B9B9B"/>
<path d="M32.62 68.13V71.13H28.57V68.13H27.79V75H28.57V71.87H32.62V75H33.4V68.13H32.62ZM37.3475 75.12C38.7975 75.12 40.0175 73.88 40.0175 72.41C40.0175 70.94 38.7975 69.71 37.3475 69.71C35.8975 69.71 34.6675 70.94 34.6675 72.41C34.6675 73.88 35.8975 75.12 37.3475 75.12ZM37.3475 74.45C36.3175 74.45 35.4575 73.52 35.4575 72.41C35.4575 71.31 36.3175 70.38 37.3475 70.38C38.3675 70.38 39.2275 71.31 39.2275 72.41C39.2275 73.52 38.3675 74.45 37.3475 74.45ZM46.8461 69.71C46.0661 69.71 45.3861 70.14 45.1761 70.81C44.8961 70.14 44.2861 69.71 43.5061 69.71C42.8261 69.71 42.2661 70.05 42.0061 70.59V69.83H41.2561V75H42.0061V71.71C42.0061 70.93 42.5861 70.38 43.4061 70.38C44.1061 70.38 44.5961 70.97 44.5961 71.81V75H45.3461V71.71C45.3461 70.93 45.9261 70.38 46.7461 70.38C47.4461 70.38 47.9361 70.97 47.9361 71.81V75H48.6861V71.71C48.6861 70.54 47.9261 69.71 46.8461 69.71ZM52.5314 74.45C51.5114 74.45 50.8014 73.71 50.6914 72.7H54.9214C54.9214 70.89 54.0314 69.71 52.4714 69.71C51.0814 69.71 49.9214 70.86 49.9214 72.4C49.9214 73.99 51.1614 75.12 52.5414 75.12C53.2614 75.12 54.1714 74.81 54.6214 74.32L54.1614 73.83C53.8414 74.18 53.1414 74.45 52.5314 74.45ZM52.5014 70.38C53.5314 70.38 54.0814 71.1 54.1814 72.03H50.7014C50.8414 71.03 51.5814 70.38 52.5014 70.38Z" fill="#9B9B9B"/>
<g clip-path="url(#clip1)">
<path fill-rule="evenodd" clip-rule="evenodd" d="M38.2941 62V53.5294H43.9412V62H51V50.7059H55.2353L41.1176 38L27 50.7059H31.2353V62H38.2941Z" stroke="#9B9B9B"/>
</g>
</g>
<path fill-rule="evenodd" clip-rule="evenodd" d="M124.596 58.7592L118.573 52.7336C119.653 51.261 120.231 49.4807 120.223 47.6547C120.202 42.8884 116.347 39.0276 111.581 39.0001C109.3 38.9898 107.11 39.8921 105.498 41.5061C103.886 43.1201 102.987 45.3117 103 47.5927C103.021 52.3595 106.876 56.2206 111.643 56.2481C113.476 56.256 115.263 55.6709 116.737 54.58L116.743 54.5753L122.761 60.5962C123.086 60.9376 123.571 61.0757 124.027 60.9572C124.484 60.8387 124.84 60.482 124.958 60.0255C125.076 59.569 124.938 59.0843 124.596 58.7592ZM111.637 54.5227C107.824 54.5007 104.739 51.4122 104.722 47.599C104.712 45.7744 105.432 44.0215 106.721 42.7304C108.01 41.4393 109.762 40.7172 111.586 40.7247C115.4 40.7467 118.484 43.8352 118.501 47.6485C118.511 49.473 117.791 51.2259 116.502 52.517C115.213 53.8081 113.461 54.5302 111.637 54.5227Z" fill="#8E8E93"/>
</g>
<defs>
<filter id="filter0_d" x="-20" y="3" width="415" height="123" filterUnits="userSpaceOnUse" color-interpolation-filters="sRGB">
<feFlood flood-opacity="0" result="BackgroundImageFix"/>
<feColorMatrix in="SourceAlpha" type="matrix" values="0 0 0 0 0 0 0 0 0 0 0 0 0 0 0 0 0 0 127 0"/>
<feOffset dy="-4"/>
<feGaussianBlur stdDeviation="10"/>
<feColorMatrix type="matrix" values="0 0 0 0 0 0 0 0 0 0 0 0 0 0 0 0 0 0 0.06 0"/>
<feBlend mode="normal" in2="BackgroundImageFix" result="effect1_dropShadow"/>
<feBlend mode="normal" in="SourceGraphic" in2="effect1_dropShadow" result="shape"/>
</filter>
<clipPath id="clip0">
<rect width="375" height="110" fill="white"/>
</clipPath>
<clipPath id="clip1">
<rect width="30" height="30" fill="white" transform="translate(26 35)"/>
</clipPath>
</defs>
</svg>
