<svg width="303" height="56" viewBox="0 0 303 56" fill="none" xmlns="http://www.w3.org/2000/svg">
<g filter="url(#filter0_d)">
<path fill-rule="evenodd" clip-rule="evenodd" d="M8 27C8 15.9543 16.9543 7 28 7H275C286.046 7 295 15.9543 295 27C295 38.0457 286.046 47 275 47H28C16.9543 47 8 38.0457 8 27Z" fill="white"/>
</g>
<path d="M47.3782 32.176C49.9382 32.176 51.2502 30.752 51.2502 29.008C51.2502 27.072 49.7462 26.32 47.6502 25.824C45.7782 25.376 44.6902 24.976 44.6902 23.84C44.6902 22.832 45.6822 21.936 47.0422 21.936C48.1942 21.936 49.2822 22.464 50.1942 23.344L50.9622 22.368C49.9542 21.44 48.7382 20.8 47.1062 20.8C44.9942 20.8 43.4262 22.176 43.4262 23.936C43.4262 25.84 44.8182 26.528 47.0262 27.04C48.9462 27.488 49.9862 27.952 49.9862 29.12C49.9862 30.112 49.1222 31.04 47.4262 31.04C45.8902 31.04 44.7542 30.384 43.8262 29.456L43.0422 30.432C44.1462 31.52 45.5702 32.176 47.3782 32.176ZM57.0627 31.12C55.4307 31.12 54.2947 29.936 54.1187 28.32H60.8867C60.8867 25.424 59.4627 23.536 56.9667 23.536C54.7427 23.536 52.8867 25.376 52.8867 27.84C52.8867 30.384 54.8707 32.192 57.0787 32.192C58.2307 32.192 59.6867 31.696 60.4067 30.912L59.6707 30.128C59.1587 30.688 58.0387 31.12 57.0627 31.12ZM57.0147 24.608C58.6627 24.608 59.5427 25.76 59.7027 27.248H54.1347C54.3587 25.648 55.5427 24.608 57.0147 24.608ZM66.2103 23.536C65.4103 23.536 64.4183 23.744 63.2343 24.336L63.7143 25.312C64.4663 24.928 65.2983 24.56 66.1303 24.56C67.9223 24.56 68.3703 25.84 68.3703 26.96V27.264C67.5223 26.992 66.5783 26.8 65.6823 26.8C63.9063 26.8 62.4343 27.904 62.4343 29.552C62.4343 31.184 63.7143 32.192 65.4583 32.192C66.5463 32.192 67.7783 31.68 68.3703 30.704V32H69.5703V26.96C69.5703 24.96 68.4663 23.536 66.2103 23.536ZM65.6663 31.136C64.4983 31.136 63.6023 30.528 63.6023 29.504C63.6023 28.512 64.6423 27.808 65.8743 27.808C66.7703 27.808 67.6183 27.936 68.3703 28.144V29.408C68.0503 30.576 66.7543 31.136 65.6663 31.136ZM73.3342 25.344V23.728H72.1342V32H73.3342V27.376C73.3342 25.76 74.6622 24.608 76.5342 24.608V23.536C75.0142 23.536 73.8302 24.24 73.3342 25.344ZM82.034 32.192C83.186 32.192 84.242 31.712 85.026 30.928L84.194 30.112C83.634 30.736 82.866 31.12 82.034 31.12C80.386 31.12 79.01 29.632 79.01 27.856C79.01 26.096 80.386 24.608 82.034 24.608C82.85 24.608 83.602 24.976 84.146 25.568L84.978 24.752C84.194 24 83.154 23.536 82.034 23.536C79.714 23.536 77.746 25.504 77.746 27.856C77.746 30.208 79.714 32.192 82.034 32.192ZM90.8019 23.536C89.6339 23.536 88.5619 24.176 88.0819 25.056V20.816H86.8819V32H88.0819V26.736C88.0819 25.584 89.2499 24.608 90.6419 24.608C91.8579 24.608 92.7059 25.552 92.7059 26.896V32H93.9059V26.736C93.9059 24.864 92.6259 23.536 90.8019 23.536Z" fill="#9B9B9B"/>
<path fill-rule="evenodd" clip-rule="evenodd" d="M32.0503 32.5741L28.8431 28.7396C29.418 27.8025 29.726 26.6695 29.7217 25.5076C29.7107 22.4744 27.658 20.0176 25.1201 20.0001C23.9056 19.9935 22.7393 20.5677 21.881 21.5948C21.0228 22.6219 20.5439 24.0165 20.5511 25.4681C20.5621 28.5015 22.615 30.9585 25.1531 30.9761C26.1294 30.9811 27.0808 30.6088 27.8654 29.9146L27.8688 29.9116L31.073 33.7431C31.2463 33.9603 31.5044 34.0482 31.7475 33.9728C31.9905 33.8973 32.1802 33.6704 32.2431 33.3799C32.306 33.0894 32.2322 32.7809 32.0503 32.5741ZM25.1498 29.8781C23.1194 29.8641 21.4771 27.8987 21.4682 25.4721C21.4627 24.311 21.8458 23.1955 22.5323 22.3739C23.2187 21.5523 24.1515 21.0927 25.123 21.0976C27.1534 21.1115 28.7957 23.077 28.8046 25.5036C28.8101 26.6646 28.427 27.7801 27.7405 28.6017C27.0541 29.4233 26.1213 29.8829 25.1498 29.8781Z" fill="#8E8E93"/>
<defs>
<filter id="filter0_d" x="0" y="0" width="303" height="56" filterUnits="userSpaceOnUse" color-interpolation-filters="sRGB">
<feFlood flood-opacity="0" result="BackgroundImageFix"/>
<feColorMatrix in="SourceAlpha" type="matrix" values="0 0 0 0 0 0 0 0 0 0 0 0 0 0 0 0 0 0 127 0"/>
<feOffset dy="1"/>
<feGaussianBlur stdDeviation="4"/>
<feColorMatrix type="matrix" values="0 0 0 0 0 0 0 0 0 0 0 0 0 0 0 0 0 0 0.05 0"/>
<feBlend mode="normal" in2="BackgroundImageFix" result="effect1_dropShadow"/>
<feBlend mode="normal" in="SourceGraphic" in2="effect1_dropShadow" result="shape"/>
</filter>
</defs>
</svg>
