<svg width="375" height="72" viewBox="0 0 375 72" fill="none" xmlns="http://www.w3.org/2000/svg">
<rect opacity="0.05" y="71" width="375" height="1" fill="#9B9B9B"/>
<path d="M20.2 31.176C22.824 31.176 24.328 29.784 24.328 27.816C24.328 25.816 22.792 25.08 20.504 24.568C18.76 24.168 17.944 23.848 17.944 22.952C17.944 22.184 18.696 21.512 19.8 21.512C20.888 21.512 21.992 21.976 22.952 22.808L24.04 21.336C22.936 20.392 21.624 19.8 19.88 19.8C17.56 19.8 15.928 21.208 15.928 23.128C15.928 25.192 17.512 25.848 19.784 26.376C21.544 26.792 22.328 27.096 22.328 28.008C22.328 28.792 21.624 29.464 20.264 29.464C18.824 29.464 17.656 28.888 16.648 27.976L15.496 29.4C16.712 30.536 18.312 31.176 20.2 31.176ZM29.9436 29.464C28.7596 29.464 27.8956 28.664 27.6556 27.528H33.8956C33.8956 24.472 32.4076 22.536 29.8476 22.536C27.4956 22.536 25.6396 24.36 25.6396 26.84C25.6396 29.384 27.5916 31.192 29.9596 31.192C31.1596 31.192 32.5996 30.68 33.3196 29.912L32.0876 28.632C31.6236 29.112 30.7116 29.464 29.9436 29.464ZM29.9276 24.264C31.0956 24.264 31.7996 25 32.0236 26.04H27.6716C27.9596 24.952 28.8396 24.264 29.9276 24.264ZM36.5796 21.48C37.1876 21.48 37.6836 20.952 37.6836 20.36C37.6836 19.768 37.1876 19.256 36.5796 19.256C35.9556 19.256 35.4596 19.768 35.4596 20.36C35.4596 20.952 35.9556 21.48 36.5796 21.48ZM35.1556 33.848C36.5636 33.848 37.5396 32.84 37.5396 31.4V22.728H35.5876V31.256C35.5876 31.816 35.2516 32.216 34.7716 32.216C34.4676 32.216 34.0836 32.152 33.8596 32.056L33.6196 33.544C33.9876 33.72 34.6276 33.848 35.1556 33.848ZM43.297 22.536C42.257 22.536 41.169 22.824 40.001 23.4L40.673 24.76C41.377 24.408 42.129 24.136 42.913 24.136C44.417 24.136 44.945 25.064 44.945 26.024V26.248C44.193 25.96 43.377 25.8 42.625 25.8C40.769 25.8 39.249 26.92 39.249 28.552C39.249 30.152 40.577 31.192 42.337 31.192C43.297 31.192 44.337 30.776 44.945 30.008V31H46.849V26.024C46.849 23.928 45.489 22.536 43.297 22.536ZM42.769 29.768C41.841 29.768 41.153 29.272 41.153 28.488C41.153 27.704 41.937 27.16 42.913 27.16C43.649 27.16 44.337 27.272 44.945 27.48V28.408C44.721 29.288 43.713 29.768 42.769 29.768ZM59.0939 22.728V27.96C58.9659 28.84 58.1179 29.528 57.0939 29.528C56.0699 29.528 55.3499 28.728 55.3499 27.608V22.728H53.4619V27.992C53.4619 29.864 54.7259 31.192 56.5339 31.192C57.6219 31.192 58.5819 30.664 59.0939 29.896V31H61.0459V22.728H59.0939ZM72.749 22.536C71.517 22.536 70.477 23.144 70.077 24.104C69.565 23.128 68.605 22.536 67.437 22.536C66.397 22.536 65.549 23.048 65.133 23.848V22.728H63.181V31H65.133V25.928C65.133 24.92 65.885 24.2 66.941 24.2C67.901 24.2 68.557 24.968 68.557 26.056V31H70.461V25.928C70.461 24.92 71.197 24.2 72.269 24.2C73.213 24.2 73.869 24.968 73.869 26.056V31H75.773V25.736C75.773 23.864 74.477 22.536 72.749 22.536ZM85.1838 31H87.0238L90.5278 22.728H88.4478L86.0958 28.744L83.6957 22.728H81.6318L85.1838 31ZM95.2093 29.464C94.0253 29.464 93.1613 28.664 92.9213 27.528H99.1613C99.1613 24.472 97.6733 22.536 95.1133 22.536C92.7613 22.536 90.9053 24.36 90.9053 26.84C90.9053 29.384 92.8573 31.192 95.2253 31.192C96.4253 31.192 97.8653 30.68 98.5853 29.912L97.3533 28.632C96.8893 29.112 95.9773 29.464 95.2093 29.464ZM95.1933 24.264C96.3613 24.264 97.0653 25 97.2893 26.04H92.9373C93.2253 24.952 94.1053 24.264 95.1933 24.264ZM105.365 22.536C104.277 22.536 103.317 23.064 102.805 23.832V22.728H100.853V31H102.805V25.768C102.933 24.888 103.781 24.2 104.805 24.2C105.829 24.2 106.549 25 106.549 26.12V31H108.437V25.736C108.437 23.864 107.173 22.536 105.365 22.536ZM116.844 19.816V24.008C116.188 23.08 115.196 22.536 113.98 22.536C111.788 22.536 110.188 24.328 110.188 26.856C110.188 29.4 111.788 31.192 113.98 31.192C115.196 31.192 116.188 30.648 116.844 29.72V31H118.796V19.816H116.844ZM114.508 29.528C113.116 29.528 112.124 28.408 112.124 26.856C112.124 25.304 113.116 24.2 114.508 24.2C115.884 24.2 116.844 25.304 116.844 26.856C116.844 28.408 115.884 29.528 114.508 29.528ZM124.85 29.464C123.666 29.464 122.802 28.664 122.562 27.528H128.802C128.802 24.472 127.314 22.536 124.754 22.536C122.402 22.536 120.546 24.36 120.546 26.84C120.546 29.384 122.498 31.192 124.866 31.192C126.066 31.192 127.506 30.68 128.226 29.912L126.994 28.632C126.53 29.112 125.618 29.464 124.85 29.464ZM124.834 24.264C126.002 24.264 126.706 25 126.93 26.04H122.578C122.866 24.952 123.746 24.264 124.834 24.264ZM136.782 19.816V24.008C136.126 23.08 135.134 22.536 133.918 22.536C131.726 22.536 130.126 24.328 130.126 26.856C130.126 29.4 131.726 31.192 133.918 31.192C135.134 31.192 136.126 30.648 136.782 29.72V31H138.734V19.816H136.782ZM134.446 29.528C133.054 29.528 132.062 28.408 132.062 26.856C132.062 25.304 133.054 24.2 134.446 24.2C135.822 24.2 136.782 25.304 136.782 26.856C136.782 28.408 135.822 29.528 134.446 29.528ZM144.931 31.192C147.331 31.192 149.363 29.208 149.363 26.856C149.363 24.504 147.331 22.536 144.931 22.536C142.531 22.536 140.499 24.504 140.499 26.856C140.499 29.208 142.531 31.192 144.931 31.192ZM144.931 29.528C143.555 29.528 142.403 28.312 142.403 26.856C142.403 25.416 143.555 24.2 144.931 24.2C146.291 24.2 147.443 25.416 147.443 26.856C147.443 28.312 146.291 29.528 144.931 29.528ZM153.056 24.328V22.728H151.104V31H153.056V26.824C153.056 25.256 154.24 24.2 156.016 24.2V22.536C154.656 22.536 153.584 23.224 153.056 24.328Z" fill="#222222"/>
<path d="M22.182 44.443V47.743H17.727V44.443H16.869V52H17.727V48.557H22.182V52H23.04V44.443H22.182ZM27.0523 46.181C26.5023 46.181 25.8203 46.324 25.0063 46.731L25.3363 47.402C25.8533 47.138 26.4253 46.885 26.9973 46.885C28.2293 46.885 28.5373 47.765 28.5373 48.535V48.744C27.9543 48.557 27.3053 48.425 26.6893 48.425C25.4683 48.425 24.4563 49.184 24.4563 50.317C24.4563 51.439 25.3363 52.132 26.5353 52.132C27.2833 52.132 28.1303 51.78 28.5373 51.109V52H29.3623V48.535C29.3623 47.16 28.6033 46.181 27.0523 46.181ZM26.6783 51.406C25.8753 51.406 25.2593 50.988 25.2593 50.284C25.2593 49.602 25.9743 49.118 26.8213 49.118C27.4373 49.118 28.0203 49.206 28.5373 49.349V50.218C28.3173 51.021 27.4263 51.406 26.6783 51.406ZM34.0179 46.181C33.1049 46.181 32.3789 46.632 31.9499 47.38V44.311H31.1249V52H31.9499V50.933C32.3789 51.681 33.1049 52.132 34.0179 52.132C35.5139 52.132 36.6359 50.9 36.6359 49.151C36.6359 47.413 35.5139 46.181 34.0179 46.181ZM33.8639 51.395C32.7419 51.395 31.9499 50.46 31.9499 49.151C31.9499 47.842 32.7419 46.918 33.8639 46.918C34.9749 46.918 35.7669 47.842 35.7669 49.151C35.7669 50.46 34.9749 51.395 33.8639 51.395ZM38.4696 45.279C38.7666 45.279 39.0086 45.026 39.0086 44.729C39.0086 44.443 38.7666 44.19 38.4696 44.19C38.1616 44.19 37.9196 44.443 37.9196 44.729C37.9196 45.026 38.1616 45.279 38.4696 45.279ZM38.0516 52H38.8766V46.313H38.0516V52ZM40.5333 52H41.3583V44.311H40.5333V52ZM43.4325 45.279C43.7295 45.279 43.9715 45.026 43.9715 44.729C43.9715 44.443 43.7295 44.19 43.4325 44.19C43.1245 44.19 42.8825 44.443 42.8825 44.729C42.8825 45.026 43.1245 45.279 43.4325 45.279ZM43.0145 52H43.8395V46.313H43.0145V52ZM47.9932 51.164C47.8722 51.296 47.6522 51.395 47.3992 51.395C47.0692 51.395 46.7832 51.098 46.7832 50.68V47.05H48.1802V46.313H46.7832V44.751H45.9582V46.313H45.0672V47.05H45.9582V50.68C45.9582 51.527 46.5302 52.132 47.3442 52.132C47.7292 52.132 48.1032 52 48.4002 51.769L47.9932 51.164ZM52.1304 51.395C51.0084 51.395 50.2274 50.581 50.1064 49.47H54.7594C54.7594 47.479 53.7804 46.181 52.0644 46.181C50.5354 46.181 49.2594 47.446 49.2594 49.14C49.2594 50.889 50.6234 52.132 52.1414 52.132C52.9334 52.132 53.9344 51.791 54.4294 51.252L53.9234 50.713C53.5714 51.098 52.8014 51.395 52.1304 51.395ZM52.0974 46.918C53.2304 46.918 53.8354 47.71 53.9454 48.733H50.1174C50.2714 47.633 51.0854 46.918 52.0974 46.918ZM61.3129 52.132C62.4899 52.132 63.3919 51.461 63.3919 50.416C63.3919 49.338 62.4459 49.03 61.5329 48.744C60.4769 48.403 60.0589 48.249 60.0589 47.754C60.0589 47.204 60.5869 46.918 61.2249 46.918C61.7309 46.918 62.2919 47.094 62.8639 47.457L63.2599 46.819C62.6549 46.423 61.9289 46.181 61.2249 46.181C60.0919 46.181 59.2339 46.819 59.2339 47.853C59.2339 48.667 59.7619 49.074 61.1369 49.47C61.9069 49.69 62.5669 49.888 62.5669 50.504C62.5669 51.043 62.0609 51.395 61.3129 51.395C60.6859 51.395 60.0369 51.153 59.3879 50.68L58.9589 51.285C59.6409 51.835 60.5209 52.132 61.3129 52.132ZM68.7609 46.313V49.932C68.7609 50.724 67.9579 51.395 67.0009 51.395C66.1649 51.395 65.5819 50.746 65.5819 49.822V46.313H64.7569V49.932C64.7569 51.219 65.6369 52.132 66.8909 52.132C67.6939 52.132 68.4309 51.692 68.7609 51.087V52H69.5859V46.313H68.7609ZM73.5767 46.181C73.0267 46.181 72.3447 46.324 71.5307 46.731L71.8607 47.402C72.3777 47.138 72.9497 46.885 73.5217 46.885C74.7537 46.885 75.0617 47.765 75.0617 48.535V48.744C74.4787 48.557 73.8297 48.425 73.2137 48.425C71.9927 48.425 70.9807 49.184 70.9807 50.317C70.9807 51.439 71.8607 52.132 73.0597 52.132C73.8077 52.132 74.6547 51.78 75.0617 51.109V52H75.8867V48.535C75.8867 47.16 75.1277 46.181 73.5767 46.181ZM73.2027 51.406C72.3997 51.406 71.7837 50.988 71.7837 50.284C71.7837 49.602 72.4987 49.118 73.3457 49.118C73.9617 49.118 74.5447 49.206 75.0617 49.349V50.218C74.8417 51.021 73.9507 51.406 73.2027 51.406ZM80.7628 52H81.5878V44.311H80.7628V52ZM85.8949 52.132C87.4899 52.132 88.8319 50.768 88.8319 49.151C88.8319 47.534 87.4899 46.181 85.8949 46.181C84.2999 46.181 82.9469 47.534 82.9469 49.151C82.9469 50.768 84.2999 52.132 85.8949 52.132ZM85.8949 51.395C84.7619 51.395 83.8159 50.372 83.8159 49.151C83.8159 47.941 84.7619 46.918 85.8949 46.918C87.0169 46.918 87.9629 47.941 87.9629 49.151C87.9629 50.372 87.0169 51.395 85.8949 51.395ZM90.6014 45.279C90.8984 45.279 91.1404 45.026 91.1404 44.729C91.1404 44.443 90.8984 44.19 90.6014 44.19C90.2934 44.19 90.0514 44.443 90.0514 44.729C90.0514 45.026 90.2934 45.279 90.6014 45.279ZM89.6224 53.958C90.4364 53.958 91.0084 53.353 91.0084 52.506V46.313H90.1834V52.506C90.1834 52.924 89.9304 53.221 89.5674 53.221C89.3364 53.221 89.0394 53.166 88.8634 53.1L88.7314 53.782C88.9514 53.881 89.3144 53.958 89.6224 53.958ZM94.9751 46.181C94.4251 46.181 93.7431 46.324 92.9291 46.731L93.2591 47.402C93.7761 47.138 94.3481 46.885 94.9201 46.885C96.1521 46.885 96.4601 47.765 96.4601 48.535V48.744C95.8771 48.557 95.2281 48.425 94.6121 48.425C93.3911 48.425 92.3791 49.184 92.3791 50.317C92.3791 51.439 93.2591 52.132 94.4581 52.132C95.2061 52.132 96.0531 51.78 96.4601 51.109V52H97.2851V48.535C97.2851 47.16 96.5261 46.181 94.9751 46.181ZM94.6011 51.406C93.7981 51.406 93.1821 50.988 93.1821 50.284C93.1821 49.602 93.8971 49.118 94.7441 49.118C95.3601 49.118 95.9431 49.206 96.4601 49.349V50.218C96.2401 51.021 95.3491 51.406 94.6011 51.406Z" fill="#9B9B9B"/>
<path fill-rule="evenodd" clip-rule="evenodd" d="M351.6 31.4L353 30L359 36L353 42L351.6 40.6L356.2 36L351.6 31.4Z" fill="#9B9B9B"/>
</svg>
