<svg width="340" height="30" viewBox="0 0 340 30" fill="none" xmlns="http://www.w3.org/2000/svg">
<rect width="100" height="30" rx="15" fill="#222222"/>
<path d="M24.1395 11.698V10.382H17.0695V20H24.1395V18.684H18.4975V15.758H23.5935V14.442H18.4975V11.698H24.1395ZM29.5552 12.594C28.5752 12.594 27.6932 13.098 27.2592 13.812V12.762H25.8732V20H27.2592V15.31C27.3712 14.456 28.2392 13.798 29.2472 13.798C30.2272 13.798 30.9132 14.554 30.9132 15.632V20H32.2712V15.394C32.2712 13.756 31.1512 12.594 29.5552 12.594ZM37.6421 18.698C37.4881 18.852 37.2081 18.964 36.9001 18.964C36.4941 18.964 36.1581 18.6 36.1581 18.096V13.938H37.8661V12.762H36.1581V10.774H34.8001V12.762H33.7081V13.938H34.8001V18.194C34.8001 19.356 35.5841 20.168 36.7041 20.168C37.2221 20.168 37.7541 19.972 38.1461 19.65L37.6421 18.698ZM41.0148 14.148V12.762H39.6288V20H41.0148V15.884C41.1408 14.624 42.2048 13.798 43.7028 13.798V12.594C42.4568 12.594 41.4768 13.196 41.0148 14.148ZM48.3729 18.936C47.1269 18.936 46.2449 18.068 46.0629 16.864H51.7609C51.7609 14.274 50.4869 12.594 48.2749 12.594C46.2729 12.594 44.6629 14.19 44.6629 16.36C44.6629 18.586 46.3709 20.168 48.3869 20.168C49.4089 20.168 50.6689 19.734 51.3129 19.048L50.4449 18.152C50.0109 18.6 49.1289 18.936 48.3729 18.936ZM48.3309 13.826C49.5769 13.826 50.2629 14.638 50.4169 15.758H46.0769C46.3009 14.582 47.2109 13.826 48.3309 13.826ZM58.8694 12.762V13.924C58.3234 13.112 57.3994 12.594 56.3074 12.594C54.4034 12.594 53.0174 14.008 53.0174 16.024C53.0174 18.04 54.4034 19.468 56.3074 19.468C57.3994 19.468 58.2954 18.978 58.8694 18.152V19.202C58.8694 20.462 57.9314 21.204 56.3774 21.204C55.5094 21.204 54.6414 20.91 54.1094 20.406L53.5634 21.442C54.2494 22.002 55.3694 22.408 56.5874 22.408C58.7294 22.408 60.2554 21.092 60.2554 19.23V12.762H58.8694ZM56.6574 18.264C55.3694 18.264 54.4594 17.34 54.4594 16.024C54.4594 14.722 55.3694 13.798 56.6574 13.798C57.9454 13.798 58.8694 14.722 58.8694 16.024C58.8694 17.34 57.9454 18.264 56.6574 18.264ZM67.3065 12.762V17.452C67.1945 18.306 66.3265 18.964 65.3185 18.964C64.3385 18.964 63.6525 18.208 63.6525 17.13V12.762H62.2945V17.368C62.2945 19.006 63.4145 20.168 65.0105 20.168C65.9905 20.168 66.8725 19.664 67.3065 18.95V20H68.6925V12.762H67.3065ZM74.0213 18.936C72.7753 18.936 71.8933 18.068 71.7113 16.864H77.4093C77.4093 14.274 76.1353 12.594 73.9233 12.594C71.9213 12.594 70.3113 14.19 70.3113 16.36C70.3113 18.586 72.0193 20.168 74.0353 20.168C75.0573 20.168 76.3173 19.734 76.9613 19.048L76.0933 18.152C75.6593 18.6 74.7773 18.936 74.0213 18.936ZM73.9793 13.826C75.2253 13.826 75.9113 14.638 76.0653 15.758H71.7253C71.9493 14.582 72.8593 13.826 73.9793 13.826ZM81.6338 20.168C83.2158 20.168 84.3778 19.3 84.3778 17.928C84.3778 16.486 83.1038 16.094 81.9138 15.744C80.6958 15.366 80.2478 15.198 80.2478 14.638C80.2478 14.092 80.8078 13.784 81.5218 13.784C82.1518 13.784 82.8798 14.022 83.5798 14.456L84.1958 13.434C83.4118 12.916 82.4598 12.594 81.5218 12.594C79.9818 12.594 78.8758 13.462 78.8898 14.792C78.8898 15.968 79.7158 16.444 81.3818 16.906C82.2778 17.158 83.0198 17.368 83.0198 18.04C83.0198 18.6 82.4598 18.978 81.6478 18.978C80.7938 18.978 79.9678 18.656 79.1978 18.096L78.5398 19.09C79.4078 19.79 80.5698 20.168 81.6338 20.168Z" fill="white"/>
<path d="M134.928 20H136.342V16.654H138.974C141.004 16.654 142.544 15.352 142.544 13.518C142.544 11.684 141.004 10.382 138.974 10.382H134.928V20ZM136.342 15.338V11.698H138.778C140.164 11.698 141.102 12.384 141.102 13.518C141.102 14.652 140.164 15.338 138.778 15.338H136.342ZM145.434 14.148V12.762H144.048V20H145.434V15.884C145.56 14.624 146.624 13.798 148.122 13.798V12.594C146.876 12.594 145.896 13.196 145.434 14.148ZM152.685 20.168C154.743 20.168 156.479 18.432 156.479 16.374C156.479 14.316 154.743 12.594 152.685 12.594C150.613 12.594 148.863 14.316 148.863 16.374C148.863 18.432 150.613 20.168 152.685 20.168ZM152.685 18.964C151.355 18.964 150.249 17.788 150.249 16.374C150.249 14.974 151.355 13.798 152.685 13.798C153.987 13.798 155.093 14.974 155.093 16.374C155.093 17.788 153.987 18.964 152.685 18.964ZM161.517 20.168C162.595 20.168 163.533 19.72 164.233 19.006L163.295 18.152C162.847 18.656 162.203 18.964 161.531 18.964C160.201 18.964 159.109 17.788 159.109 16.374C159.109 14.974 160.201 13.798 161.517 13.798C162.189 13.798 162.819 14.092 163.253 14.582L164.191 13.714C163.505 13.028 162.567 12.594 161.531 12.594C159.459 12.594 157.709 14.316 157.709 16.374C157.709 18.432 159.459 20.168 161.517 20.168ZM169.034 18.936C167.788 18.936 166.906 18.068 166.724 16.864H172.422C172.422 14.274 171.148 12.594 168.936 12.594C166.934 12.594 165.324 14.19 165.324 16.36C165.324 18.586 167.032 20.168 169.048 20.168C170.07 20.168 171.33 19.734 171.974 19.048L171.106 18.152C170.672 18.6 169.79 18.936 169.034 18.936ZM168.992 13.826C170.238 13.826 170.924 14.638 171.078 15.758H166.738C166.962 14.582 167.872 13.826 168.992 13.826ZM176.646 20.168C178.228 20.168 179.39 19.3 179.39 17.928C179.39 16.486 178.116 16.094 176.926 15.744C175.708 15.366 175.26 15.198 175.26 14.638C175.26 14.092 175.82 13.784 176.534 13.784C177.164 13.784 177.892 14.022 178.592 14.456L179.208 13.434C178.424 12.916 177.472 12.594 176.534 12.594C174.994 12.594 173.888 13.462 173.902 14.792C173.902 15.968 174.728 16.444 176.394 16.906C177.29 17.158 178.032 17.368 178.032 18.04C178.032 18.6 177.472 18.978 176.66 18.978C175.806 18.978 174.98 18.656 174.21 18.096L173.552 19.09C174.42 19.79 175.582 20.168 176.646 20.168ZM183.619 20.168C185.201 20.168 186.363 19.3 186.363 17.928C186.363 16.486 185.089 16.094 183.899 15.744C182.681 15.366 182.233 15.198 182.233 14.638C182.233 14.092 182.793 13.784 183.507 13.784C184.137 13.784 184.865 14.022 185.565 14.456L186.181 13.434C185.397 12.916 184.445 12.594 183.507 12.594C181.967 12.594 180.861 13.462 180.875 14.792C180.875 15.968 181.701 16.444 183.367 16.906C184.263 17.158 185.005 17.368 185.005 18.04C185.005 18.6 184.445 18.978 183.633 18.978C182.779 18.978 181.953 18.656 181.183 18.096L180.525 19.09C181.393 19.79 182.555 20.168 183.619 20.168ZM191.012 12.594C190.214 12.594 189.304 12.804 188.268 13.322L188.772 14.344C189.402 14.022 190.102 13.742 190.816 13.742C192.258 13.742 192.678 14.708 192.678 15.618V15.842C191.978 15.604 191.208 15.45 190.494 15.45C188.898 15.45 187.596 16.416 187.596 17.858C187.596 19.272 188.73 20.168 190.27 20.168C191.152 20.168 192.146 19.762 192.678 19.006V20H194.036V15.618C194.036 13.826 192.958 12.594 191.012 12.594ZM190.536 19.076C189.626 19.076 188.926 18.6 188.926 17.816C188.926 17.032 189.738 16.486 190.704 16.486C191.418 16.486 192.09 16.584 192.678 16.766V17.732C192.44 18.628 191.432 19.076 190.536 19.076ZM199.722 12.594C198.742 12.594 197.86 13.098 197.426 13.812V12.762H196.04V20H197.426V15.31C197.538 14.456 198.406 13.798 199.414 13.798C200.394 13.798 201.08 14.554 201.08 15.632V20H202.438V15.394C202.438 13.756 201.318 12.594 199.722 12.594ZM209.993 10.214V14.008C209.433 13.126 208.537 12.594 207.417 12.594C205.513 12.594 204.085 14.162 204.085 16.374C204.085 18.6 205.513 20.168 207.417 20.168C208.537 20.168 209.433 19.636 209.993 18.74V20H211.365V10.214H209.993ZM207.753 18.964C206.423 18.964 205.485 17.886 205.485 16.374C205.485 14.862 206.423 13.798 207.753 13.798C209.055 13.798 209.993 14.862 209.993 16.374C209.993 17.886 209.055 18.964 207.753 18.964ZM216.874 20.168C218.932 20.168 220.668 18.432 220.668 16.374C220.668 14.316 218.932 12.594 216.874 12.594C214.802 12.594 213.052 14.316 213.052 16.374C213.052 18.432 214.802 20.168 216.874 20.168ZM216.874 18.964C215.544 18.964 214.438 17.788 214.438 16.374C214.438 14.974 215.544 13.798 216.874 13.798C218.176 13.798 219.282 14.974 219.282 16.374C219.282 17.788 218.176 18.964 216.874 18.964Z" fill="#222222"/>
<path d="M255.556 20.168C256.928 20.168 258.188 19.58 259.098 18.656L258.104 17.704C257.46 18.404 256.55 18.866 255.556 18.866C253.638 18.866 252.014 17.186 252.014 15.184C252.014 13.196 253.638 11.516 255.556 11.516C256.55 11.516 257.46 11.978 258.104 12.678L259.098 11.726C258.188 10.788 256.928 10.214 255.556 10.214C252.854 10.214 250.558 12.482 250.558 15.184C250.558 17.886 252.854 20.168 255.556 20.168ZM263.516 12.594C262.718 12.594 261.808 12.804 260.772 13.322L261.276 14.344C261.906 14.022 262.606 13.742 263.32 13.742C264.762 13.742 265.182 14.708 265.182 15.618V15.842C264.482 15.604 263.712 15.45 262.998 15.45C261.402 15.45 260.1 16.416 260.1 17.858C260.1 19.272 261.234 20.168 262.774 20.168C263.656 20.168 264.65 19.762 265.182 19.006V20H266.54V15.618C266.54 13.826 265.462 12.594 263.516 12.594ZM263.04 19.076C262.13 19.076 261.43 18.6 261.43 17.816C261.43 17.032 262.242 16.486 263.208 16.486C263.922 16.486 264.594 16.584 265.182 16.766V17.732C264.944 18.628 263.936 19.076 263.04 19.076ZM272.226 12.594C271.246 12.594 270.364 13.098 269.93 13.812V12.762H268.544V20H269.93V15.31C270.042 14.456 270.91 13.798 271.918 13.798C272.898 13.798 273.584 14.554 273.584 15.632V20H274.942V15.394C274.942 13.756 273.822 12.594 272.226 12.594ZM280.341 20.168C281.419 20.168 282.357 19.72 283.057 19.006L282.119 18.152C281.671 18.656 281.027 18.964 280.355 18.964C279.025 18.964 277.933 17.788 277.933 16.374C277.933 14.974 279.025 13.798 280.341 13.798C281.013 13.798 281.643 14.092 282.077 14.582L283.015 13.714C282.329 13.028 281.391 12.594 280.355 12.594C278.283 12.594 276.533 14.316 276.533 16.374C276.533 18.432 278.283 20.168 280.341 20.168ZM287.859 18.936C286.613 18.936 285.731 18.068 285.549 16.864H291.247C291.247 14.274 289.973 12.594 287.761 12.594C285.759 12.594 284.149 14.19 284.149 16.36C284.149 18.586 285.857 20.168 287.873 20.168C288.895 20.168 290.155 19.734 290.799 19.048L289.931 18.152C289.497 18.6 288.615 18.936 287.859 18.936ZM287.817 13.826C289.063 13.826 289.749 14.638 289.903 15.758H285.563C285.787 14.582 286.697 13.826 287.817 13.826ZM292.853 20H294.225V10.214H292.853V20ZM299.282 12.594C298.484 12.594 297.574 12.804 296.538 13.322L297.042 14.344C297.672 14.022 298.372 13.742 299.086 13.742C300.528 13.742 300.948 14.708 300.948 15.618V15.842C300.248 15.604 299.478 15.45 298.764 15.45C297.168 15.45 295.866 16.416 295.866 17.858C295.866 19.272 297 20.168 298.54 20.168C299.422 20.168 300.416 19.762 300.948 19.006V20H302.306V15.618C302.306 13.826 301.228 12.594 299.282 12.594ZM298.806 19.076C297.896 19.076 297.196 18.6 297.196 17.816C297.196 17.032 298.008 16.486 298.974 16.486C299.688 16.486 300.36 16.584 300.948 16.766V17.732C300.71 18.628 299.702 19.076 298.806 19.076ZM309.882 10.214V14.008C309.322 13.126 308.426 12.594 307.306 12.594C305.402 12.594 303.974 14.162 303.974 16.374C303.974 18.6 305.402 20.168 307.306 20.168C308.426 20.168 309.322 19.636 309.882 18.74V20H311.254V10.214H309.882ZM307.642 18.964C306.312 18.964 305.374 17.886 305.374 16.374C305.374 14.862 306.312 13.798 307.642 13.798C308.944 13.798 309.882 14.862 309.882 16.374C309.882 17.886 308.944 18.964 307.642 18.964ZM316.764 20.168C318.822 20.168 320.558 18.432 320.558 16.374C320.558 14.316 318.822 12.594 316.764 12.594C314.692 12.594 312.942 14.316 312.942 16.374C312.942 18.432 314.692 20.168 316.764 20.168ZM316.764 18.964C315.434 18.964 314.328 17.788 314.328 16.374C314.328 14.974 315.434 13.798 316.764 13.798C318.066 13.798 319.172 14.974 319.172 16.374C319.172 17.788 318.066 18.964 316.764 18.964ZM324.797 20.168C326.379 20.168 327.541 19.3 327.541 17.928C327.541 16.486 326.267 16.094 325.077 15.744C323.859 15.366 323.411 15.198 323.411 14.638C323.411 14.092 323.971 13.784 324.685 13.784C325.315 13.784 326.043 14.022 326.743 14.456L327.359 13.434C326.575 12.916 325.623 12.594 324.685 12.594C323.145 12.594 322.039 13.462 322.053 14.792C322.053 15.968 322.879 16.444 324.545 16.906C325.441 17.158 326.183 17.368 326.183 18.04C326.183 18.6 325.623 18.978 324.811 18.978C323.957 18.978 323.131 18.656 322.361 18.096L321.703 19.09C322.571 19.79 323.733 20.168 324.797 20.168Z" fill="#222222"/>
</svg>
