<svg width="375" height="110" viewBox="0 0 375 110" fill="none" xmlns="http://www.w3.org/2000/svg">
<g clip-path="url(#clip0)">
<g filter="url(#filter0_d)">
<path d="M0 39C0 32.3726 5.37258 27 12 27H363C369.627 27 375 32.3726 375 39V110H0V39Z" fill="white"/>
<path fill-rule="evenodd" clip-rule="evenodd" d="M332.141 38C334.946 38 337.211 40.2648 337.211 43.0704C337.211 45.8761 334.946 48.1408 332.141 48.1408C329.335 48.1408 327.07 45.8761 327.07 43.0704C327.07 40.2648 329.335 38 332.141 38ZM332.141 62C328.062 62 324.255 59.9566 322 56.5577C322.051 53.1943 328.761 51.3521 332.141 51.3521C335.504 51.3521 342.231 53.1943 342.282 56.5577C340.027 59.9566 336.22 62 332.141 62Z" fill="#DB3022"/>
<path d="M322.71 75H323.96V72.69H325.7C327.17 72.69 328.27 71.75 328.27 70.41C328.27 69.07 327.17 68.13 325.7 68.13H322.71V75ZM323.96 71.54V69.28H325.56C326.41 69.28 327 69.71 327 70.41C327 71.11 326.41 71.54 325.56 71.54H323.96ZM331.623 74.04C330.883 74.04 330.343 73.54 330.193 72.83H334.093C334.093 70.92 333.163 69.71 331.563 69.71C330.093 69.71 328.933 70.85 328.933 72.4C328.933 73.99 330.153 75.12 331.633 75.12C332.383 75.12 333.283 74.8 333.733 74.32L332.963 73.52C332.673 73.82 332.103 74.04 331.623 74.04ZM331.613 70.79C332.343 70.79 332.783 71.25 332.923 71.9H330.203C330.383 71.22 330.933 70.79 331.613 70.79ZM336.4 70.83V69.83H335.18V75H336.4V72.39C336.4 71.41 337.14 70.75 338.25 70.75V69.71C337.4 69.71 336.73 70.14 336.4 70.83ZM340.714 69.4C340.714 69.05 340.934 68.8 341.224 68.8C341.434 68.8 341.624 68.88 341.734 68.99L342.084 68.21C341.794 67.96 341.374 67.8 340.984 67.8C340.124 67.8 339.524 68.42 339.524 69.29V69.83H338.774V70.84H339.524V75H340.714V70.84H341.884V69.83H340.714V69.4ZM343.476 69.05C343.856 69.05 344.166 68.72 344.166 68.35C344.166 67.98 343.856 67.66 343.476 67.66C343.086 67.66 342.776 67.98 342.776 68.35C342.776 68.72 343.086 69.05 343.476 69.05ZM342.856 75H344.076V69.83H342.856V75ZM345.424 75H346.644V68.01H345.424V75Z" fill="#DB3022"/>
<path d="M244.72 68.87V68.13H239.79V75H240.58V71.87H244.31V71.13H240.58V68.87H244.72ZM247.954 69.71C247.454 69.71 246.834 69.84 246.094 70.21L246.394 70.82C246.864 70.58 247.384 70.35 247.904 70.35C249.024 70.35 249.304 71.15 249.304 71.85V72.04C248.774 71.87 248.184 71.75 247.624 71.75C246.514 71.75 245.594 72.44 245.594 73.47C245.594 74.49 246.394 75.12 247.484 75.12C248.164 75.12 248.934 74.8 249.304 74.19V75H250.054V71.85C250.054 70.6 249.364 69.71 247.954 69.71ZM247.614 74.46C246.884 74.46 246.324 74.08 246.324 73.44C246.324 72.82 246.974 72.38 247.744 72.38C248.304 72.38 248.834 72.46 249.304 72.59V73.38C249.104 74.11 248.294 74.46 247.614 74.46ZM253.296 75H254.016L256.186 69.83H255.346L253.656 74.12L251.936 69.83H251.096L253.296 75ZM259.426 75.12C260.876 75.12 262.096 73.88 262.096 72.41C262.096 70.94 260.876 69.71 259.426 69.71C257.976 69.71 256.746 70.94 256.746 72.41C256.746 73.88 257.976 75.12 259.426 75.12ZM259.426 74.45C258.396 74.45 257.536 73.52 257.536 72.41C257.536 71.31 258.396 70.38 259.426 70.38C260.446 70.38 261.306 71.31 261.306 72.41C261.306 73.52 260.446 74.45 259.426 74.45ZM264.154 70.84V69.83H263.404V75H264.154V72.11C264.154 71.1 264.984 70.38 266.154 70.38V69.71C265.204 69.71 264.464 70.15 264.154 70.84ZM267.562 68.89C267.832 68.89 268.052 68.66 268.052 68.39C268.052 68.13 267.832 67.9 267.562 67.9C267.282 67.9 267.062 68.13 267.062 68.39C267.062 68.66 267.282 68.89 267.562 68.89ZM267.182 75H267.932V69.83H267.182V75ZM271.708 74.24C271.598 74.36 271.398 74.45 271.168 74.45C270.868 74.45 270.608 74.18 270.608 73.8V70.5H271.878V69.83H270.608V68.41H269.858V69.83H269.048V70.5H269.858V73.8C269.858 74.57 270.378 75.12 271.118 75.12C271.468 75.12 271.808 75 272.078 74.79L271.708 74.24ZM275.539 75.12C276.989 75.12 278.209 73.88 278.209 72.41C278.209 70.94 276.989 69.71 275.539 69.71C274.089 69.71 272.859 70.94 272.859 72.41C272.859 73.88 274.089 75.12 275.539 75.12ZM275.539 74.45C274.509 74.45 273.649 73.52 273.649 72.41C273.649 71.31 274.509 70.38 275.539 70.38C276.559 70.38 277.419 71.31 277.419 72.41C277.419 73.52 276.559 74.45 275.539 74.45ZM281.278 75.12C282.348 75.12 283.168 74.51 283.168 73.56C283.168 72.58 282.308 72.3 281.478 72.04C280.518 71.73 280.138 71.59 280.138 71.14C280.138 70.64 280.618 70.38 281.198 70.38C281.658 70.38 282.168 70.54 282.688 70.87L283.048 70.29C282.498 69.93 281.838 69.71 281.198 69.71C280.168 69.71 279.388 70.29 279.388 71.23C279.388 71.97 279.868 72.34 281.118 72.7C281.818 72.9 282.418 73.08 282.418 73.64C282.418 74.13 281.958 74.45 281.278 74.45C280.708 74.45 280.118 74.23 279.528 73.8L279.138 74.35C279.758 74.85 280.558 75.12 281.278 75.12Z" fill="#9B9B9B"/>
<path fill-rule="evenodd" clip-rule="evenodd" d="M261.079 62L259.183 60.2736C252.447 54.1657 248 50.1373 248 45.1935C248 41.1651 251.165 38 255.193 38C257.469 38 259.653 39.0594 261.079 40.7335C262.505 39.0594 264.689 38 266.965 38C270.993 38 274.158 41.1651 274.158 45.1935C274.158 50.1373 269.711 54.1657 262.975 60.2866L261.079 62Z" stroke="#9B9B9B"/>
<path d="M172.04 75.12C172.99 75.12 173.87 74.71 174.51 74.07L173.98 73.53C173.48 74.06 172.79 74.4 172.04 74.4C170.56 74.4 169.31 73.1 169.31 71.56C169.31 70.03 170.56 68.73 172.04 68.73C172.79 68.73 173.48 69.07 173.98 69.6L174.51 69.06C173.87 68.41 172.99 68.01 172.04 68.01C170.14 68.01 168.52 69.63 168.52 71.56C168.52 73.49 170.14 75.12 172.04 75.12ZM177.657 69.71C177.157 69.71 176.537 69.84 175.797 70.21L176.097 70.82C176.567 70.58 177.087 70.35 177.607 70.35C178.727 70.35 179.007 71.15 179.007 71.85V72.04C178.477 71.87 177.887 71.75 177.327 71.75C176.217 71.75 175.297 72.44 175.297 73.47C175.297 74.49 176.097 75.12 177.187 75.12C177.867 75.12 178.637 74.8 179.007 74.19V75H179.757V71.85C179.757 70.6 179.067 69.71 177.657 69.71ZM177.317 74.46C176.587 74.46 176.027 74.08 176.027 73.44C176.027 72.82 176.677 72.38 177.447 72.38C178.007 72.38 178.537 72.46 179.007 72.59V73.38C178.807 74.11 177.997 74.46 177.317 74.46ZM182.109 70.84V69.83H181.359V75H182.109V72.11C182.109 71.1 182.939 70.38 184.109 70.38V69.71C183.159 69.71 182.419 70.15 182.109 70.84ZM185.967 70.84V69.83H185.217V75H185.967V72.11C185.967 71.1 186.797 70.38 187.967 70.38V69.71C187.017 69.71 186.277 70.15 185.967 70.84ZM189.374 68.89C189.644 68.89 189.864 68.66 189.864 68.39C189.864 68.13 189.644 67.9 189.374 67.9C189.094 67.9 188.874 68.13 188.874 68.39C188.874 68.66 189.094 68.89 189.374 68.89ZM188.994 75H189.744V69.83H188.994V75ZM193.71 69.71C192.98 69.71 192.31 70.11 192.01 70.66V69.83H191.26V75H192.01V71.71C192.01 70.99 192.74 70.38 193.61 70.38C194.37 70.38 194.9 70.97 194.9 71.81V75H195.65V71.71C195.65 70.54 194.85 69.71 193.71 69.71ZM199.628 69.71C198.898 69.71 198.228 70.11 197.928 70.66V68.01H197.178V75H197.928V71.71C197.928 70.99 198.658 70.38 199.528 70.38C200.288 70.38 200.818 70.97 200.818 71.81V75H201.568V71.71C201.568 70.54 200.768 69.71 199.628 69.71ZM205.486 75.12C206.936 75.12 208.156 73.88 208.156 72.41C208.156 70.94 206.936 69.71 205.486 69.71C204.036 69.71 202.806 70.94 202.806 72.41C202.806 73.88 204.036 75.12 205.486 75.12ZM205.486 74.45C204.456 74.45 203.596 73.52 203.596 72.41C203.596 71.31 204.456 70.38 205.486 70.38C206.506 70.38 207.366 71.31 207.366 72.41C207.366 73.52 206.506 74.45 205.486 74.45Z" fill="#9B9B9B"/>
<path d="M199.456 59.5187L199.458 59.542L199.463 59.565C199.487 59.6823 199.5 59.796 199.5 59.9091C199.5 60.8094 198.808 61.5 198 61.5H188H178C177.192 61.5 176.5 60.8094 176.5 59.9091C176.5 59.796 176.513 59.6823 176.537 59.565L176.542 59.542L176.544 59.5187L178.497 41.1438L178.5 41.1174V41.0909C178.5 40.1906 179.192 39.5 180 39.5H188H196C196.808 39.5 197.5 40.1906 197.5 41.0909V41.1174L197.503 41.1438L199.456 59.5187ZM193.5 45.2727V44.4437C194.101 44.0852 194.5 43.4182 194.5 42.6591C194.5 41.5385 193.625 40.5909 192.5 40.5909C191.375 40.5909 190.5 41.5385 190.5 42.6591V45.2727C190.5 46.7469 189.357 47.9091 188 47.9091C186.643 47.9091 185.5 46.7469 185.5 45.2727V42.6591C185.5 41.5385 184.625 40.5909 183.5 40.5909C182.375 40.5909 181.5 41.5385 181.5 42.6591C181.5 43.4182 181.899 44.0852 182.5 44.4437V45.2727C182.5 48.41 184.946 51 188 51C191.054 51 193.5 48.41 193.5 45.2727Z" stroke="#9B9B9B"/>
<path d="M100.94 75H104.21C105.4 75 106.25 74.22 106.25 73.12C106.25 72.37 105.79 71.75 105 71.35C105.62 70.99 105.98 70.57 105.98 69.84C105.98 68.84 105.2 68.13 104.09 68.13H100.94V75ZM101.72 71.04V68.84H103.89C104.65 68.84 105.19 69.3 105.19 69.94C105.19 70.58 104.65 71.04 103.89 71.04H101.72ZM101.72 74.29V71.75H104.01C104.86 71.75 105.46 72.28 105.46 73.02C105.46 73.76 104.86 74.29 104.01 74.29H101.72ZM111.216 69.83V73.12C111.216 73.84 110.486 74.45 109.616 74.45C108.856 74.45 108.326 73.86 108.326 73.02V69.83H107.576V73.12C107.576 74.29 108.376 75.12 109.516 75.12C110.246 75.12 110.916 74.72 111.216 74.17V75H111.966V69.83H111.216ZM115.324 75.12C116.394 75.12 117.214 74.51 117.214 73.56C117.214 72.58 116.354 72.3 115.524 72.04C114.564 71.73 114.184 71.59 114.184 71.14C114.184 70.64 114.664 70.38 115.244 70.38C115.704 70.38 116.214 70.54 116.734 70.87L117.094 70.29C116.544 69.93 115.884 69.71 115.244 69.71C114.214 69.71 113.434 70.29 113.434 71.23C113.434 71.97 113.914 72.34 115.164 72.7C115.864 72.9 116.464 73.08 116.464 73.64C116.464 74.13 116.004 74.45 115.324 74.45C114.754 74.45 114.164 74.23 113.574 73.8L113.184 74.35C113.804 74.85 114.604 75.12 115.324 75.12ZM120.855 75.12C121.575 75.12 122.235 74.82 122.725 74.33L122.205 73.82C121.855 74.21 121.375 74.45 120.855 74.45C119.825 74.45 118.965 73.52 118.965 72.41C118.965 71.31 119.825 70.38 120.855 70.38C121.365 70.38 121.835 70.61 122.175 70.98L122.695 70.47C122.205 70 121.555 69.71 120.855 69.71C119.405 69.71 118.175 70.94 118.175 72.41C118.175 73.88 119.405 75.12 120.855 75.12ZM125.975 69.71C125.475 69.71 124.855 69.84 124.115 70.21L124.415 70.82C124.885 70.58 125.405 70.35 125.925 70.35C127.045 70.35 127.325 71.15 127.325 71.85V72.04C126.795 71.87 126.205 71.75 125.645 71.75C124.535 71.75 123.615 72.44 123.615 73.47C123.615 74.49 124.415 75.12 125.505 75.12C126.185 75.12 126.955 74.8 127.325 74.19V75H128.075V71.85C128.075 70.6 127.385 69.71 125.975 69.71ZM125.635 74.46C124.905 74.46 124.345 74.08 124.345 73.44C124.345 72.82 124.995 72.38 125.765 72.38C126.325 72.38 126.855 72.46 127.325 72.59V73.38C127.125 74.11 126.315 74.46 125.635 74.46ZM130.428 70.84V69.83H129.678V75H130.428V72.11C130.428 71.1 131.258 70.38 132.428 70.38V69.71C131.478 69.71 130.738 70.15 130.428 70.84Z" fill="#9B9B9B"/>
<path d="M32.62 68.13V71.13H28.57V68.13H27.79V75H28.57V71.87H32.62V75H33.4V68.13H32.62ZM37.3475 75.12C38.7975 75.12 40.0175 73.88 40.0175 72.41C40.0175 70.94 38.7975 69.71 37.3475 69.71C35.8975 69.71 34.6675 70.94 34.6675 72.41C34.6675 73.88 35.8975 75.12 37.3475 75.12ZM37.3475 74.45C36.3175 74.45 35.4575 73.52 35.4575 72.41C35.4575 71.31 36.3175 70.38 37.3475 70.38C38.3675 70.38 39.2275 71.31 39.2275 72.41C39.2275 73.52 38.3675 74.45 37.3475 74.45ZM46.8461 69.71C46.0661 69.71 45.3861 70.14 45.1761 70.81C44.8961 70.14 44.2861 69.71 43.5061 69.71C42.8261 69.71 42.2661 70.05 42.0061 70.59V69.83H41.2561V75H42.0061V71.71C42.0061 70.93 42.5861 70.38 43.4061 70.38C44.1061 70.38 44.5961 70.97 44.5961 71.81V75H45.3461V71.71C45.3461 70.93 45.9261 70.38 46.7461 70.38C47.4461 70.38 47.9361 70.97 47.9361 71.81V75H48.6861V71.71C48.6861 70.54 47.9261 69.71 46.8461 69.71ZM52.5314 74.45C51.5114 74.45 50.8014 73.71 50.6914 72.7H54.9214C54.9214 70.89 54.0314 69.71 52.4714 69.71C51.0814 69.71 49.9214 70.86 49.9214 72.4C49.9214 73.99 51.1614 75.12 52.5414 75.12C53.2614 75.12 54.1714 74.81 54.6214 74.32L54.1614 73.83C53.8414 74.18 53.1414 74.45 52.5314 74.45ZM52.5014 70.38C53.5314 70.38 54.0814 71.1 54.1814 72.03H50.7014C50.8414 71.03 51.5814 70.38 52.5014 70.38Z" fill="#9B9B9B"/>
<g clip-path="url(#clip1)">
<path fill-rule="evenodd" clip-rule="evenodd" d="M38.2941 62V53.5294H43.9412V62H51V50.7059H55.2353L41.1176 38L27 50.7059H31.2353V62H38.2941Z" stroke="#9B9B9B"/>
</g>
</g>
<path fill-rule="evenodd" clip-rule="evenodd" d="M124.596 58.7592L118.573 52.7336C119.653 51.261 120.231 49.4807 120.223 47.6547C120.202 42.8884 116.347 39.0276 111.581 39.0001C109.3 38.9898 107.11 39.8921 105.498 41.5061C103.886 43.1201 102.987 45.3117 103 47.5927C103.021 52.3595 106.876 56.2206 111.643 56.2481C113.476 56.256 115.263 55.6709 116.737 54.58L116.743 54.5753L122.761 60.5962C123.086 60.9376 123.571 61.0757 124.027 60.9572C124.484 60.8387 124.84 60.482 124.958 60.0255C125.076 59.569 124.938 59.0843 124.596 58.7592ZM111.637 54.5227C107.824 54.5007 104.739 51.4122 104.722 47.599C104.712 45.7744 105.432 44.0215 106.721 42.7304C108.01 41.4393 109.762 40.7172 111.586 40.7247C115.4 40.7467 118.484 43.8352 118.501 47.6485C118.511 49.473 117.791 51.2259 116.502 52.517C115.213 53.8081 113.461 54.5302 111.637 54.5227Z" fill="#8E8E93"/>
</g>
<defs>
<filter id="filter0_d" x="-20" y="3" width="415" height="123" filterUnits="userSpaceOnUse" color-interpolation-filters="sRGB">
<feFlood flood-opacity="0" result="BackgroundImageFix"/>
<feColorMatrix in="SourceAlpha" type="matrix" values="0 0 0 0 0 0 0 0 0 0 0 0 0 0 0 0 0 0 127 0"/>
<feOffset dy="-4"/>
<feGaussianBlur stdDeviation="10"/>
<feColorMatrix type="matrix" values="0 0 0 0 0 0 0 0 0 0 0 0 0 0 0 0 0 0 0.06 0"/>
<feBlend mode="normal" in2="BackgroundImageFix" result="effect1_dropShadow"/>
<feBlend mode="normal" in="SourceGraphic" in2="effect1_dropShadow" result="shape"/>
</filter>
<clipPath id="clip0">
<rect width="375" height="110" fill="white"/>
</clipPath>
<clipPath id="clip1">
<rect width="30" height="30" fill="white" transform="translate(26 35)"/>
</clipPath>
</defs>
</svg>
